SplineFontDB: 3.2
FontName: HomepageBaukasten-Book
FullName: HomepageBaukasten-Book
FamilyName: HomepageBaukasten Book
Weight: Book
Copyright: 2016 Copyright Webme GmbH
Version: 1.000
ItalicAngle: 0
UnderlinePosition: -133
UnderlineWidth: 20
Ascent: 842
Descent: 158
InvalidEm: 0
sfntRevision: 0x00010000
LayerCount: 2
Layer: 0 1 "Back" 1
Layer: 1 1 "Fore" 0
XUID: [1021 898 -1864655063 2291]
StyleMap: 0x0040
FSType: 8
OS2Version: 3
OS2_WeightWidthSlopeOnly: 0
OS2_UseTypoMetrics: 0
CreationTime: 1254692341
ModificationTime: 1718019761
PfmFamily: 81
TTFWeight: 400
TTFWidth: 5
LineGap: 0
VLineGap: 0
Panose: 0 0 0 0 0 0 0 0 0 0
OS2TypoAscent: 842
OS2TypoAOffset: 0
OS2TypoDescent: -158
OS2TypoDOffset: 0
OS2TypoLinegap: 200
OS2WinAscent: 907
OS2WinAOffset: 0
OS2WinDescent: 170
OS2WinDOffset: 0
HheadAscent: 907
HheadAOffset: 0
HheadDescent: -170
HheadDOffset: 0
OS2SubXSize: 650
OS2SubYSize: 600
OS2SubXOff: 0
OS2SubYOff: 75
OS2SupXSize: 650
OS2SupYSize: 600
OS2SupXOff: 0
OS2SupYOff: 350
OS2StrikeYSize: 20
OS2StrikeYPos: 310
OS2CapHeight: 700
OS2XHeight: 517
OS2Vendor: 'UKWN'
OS2CodePages: 00000111.00000000
OS2UnicodeRanges: 800000af.50000048.00000000.00000000
Lookup: 258 0 0 "'kern' Horizontal Kerning lookup 0" { "'kern' Horizontal Kerning lookup 0 subtable"  } ['kern' ('DFLT' <'dflt' > ) ]
Lookup: 258 0 0 "'kern' Horizontal Kerning lookup 1" { "'kern' Horizontal Kerning lookup 1 subtable"  } ['kern' ('DFLT' <'dflt' > ) ]
Lookup: 258 0 0 "'kern' Horizontal Kerning lookup 2" { "'kern' Horizontal Kerning lookup 2 subtable"  } ['kern' ('DFLT' <'dflt' > ) ]
DEI: 91125
TtTable: prep
SVTCA[y-axis]
MPPEM
PUSHW_1
 200
GT
IF
PUSHB_2
 1
 1
INSTCTRL
EIF
PUSHB_1
 1
PUSHW_2
 2048
 2048
MUL
WCVTF
PUSHB_2
 0
 7
WS
PUSHB_4
 48
 28
 2
 0
LOOPCALL
PUSHB_2
 0
 7
WS
PUSHB_6
 35
 8
 15
 8
 2
 8
LOOPCALL
PUSHB_2
 0
 7
WS
PUSHB_6
 45
 6
 25
 6
 2
 8
LOOPCALL
PUSHB_2
 0
 9
WS
PUSHW_4
 2304
 1024
 2
 9
LOOPCALL
PUSHB_2
 0
 11
WS
PUSHW_4
 64
 64
 2
 9
LOOPCALL
PUSHB_2
 3
 0
WCVTP
PUSHB_2
 36
 1

StartChar: exclam
Encoding: 33 33 2
Width: 271
GlyphClass: 1
Flags: W
LayerCount: 2
Fore
SplineSet
193.5 687.5 m 128,-1,1
 204 677 204 677 204 662 c 2,2,-1
 204 623 l 1,3,-1
 74 623 l 1,4,-1
 74 662 l 2,5,6
 74 677 74 677 85 687.5 c 128,-1,7
 96 698 96 698 111 698 c 2,8,-1
 167 698 l 2,9,0
 183 698 183 698 193.5 687.5 c 128,-1,1
74 608 m 1,10,-1
 203 608 l 1,11,-1
 203 303 l 1,12,-1
 74 303 l 1,13,-1
 74 608 l 1,10,-1
103 334 m 1,14,-1
 117 334 l 1,15,-1
 117 580 l 1,16,-1
 103 580 l 1,17,-1
 103 334 l 1,14,-1
132 334 m 1,18,-1
 146 334 l 1,19,-1
 146 580 l 1,20,-1
 132 580 l 1,21,-1
 132 334 l 1,18,-1
160 334 m 1,22,-1
 175 334 l 1,23,-1
 175 580 l 1,24,-1
 160 580 l 1,25,-1
 160 334 l 1,22,-1
74 287 m 1,26,-1
 203 287 l 1,27,-1
 167 213 l 1,28,-1
 111 213 l 1,29,-1
 74 287 l 1,26,-1
118 197 m 1,30,-1
 158 197 l 1,31,-1
 139 155 l 1,32,-1
 118 197 l 1,30,-1
90 105 m 1,33,-1
 182 105 l 1,34,-1
 182 0 l 1,35,-1
 90 0 l 1,36,-1
 90 105 l 1,33,-1
EndSplineSet
EndChar

StartChar: quotedbl
Encoding: 34 34 3
Width: 440
GlyphClass: 1
Flags: W
LayerCount: 2
Fore
SplineSet
188 700 m 1,0,-1
 188 695 l 1,1,-1
 107 428 l 1,2,-1
 65 428 l 1,3,-1
 95 700 l 1,4,-1
 188 700 l 1,0,-1
383 700 m 1,5,-1
 383 695 l 1,6,-1
 302 428 l 1,7,-1
 260 428 l 1,8,-1
 291 700 l 1,9,-1
 383 700 l 1,5,-1
EndSplineSet
EndChar

StartChar: numbersign
Encoding: 35 35 4
Width: 700
GlyphClass: 1
Flags: W
LayerCount: 2
Fore
SplineSet
497 246 m 1,0,-1
 615 246 l 1,1,-1
 615 177 l 1,2,-1
 486 177 l 1,3,-1
 455 0 l 1,4,-1
 385 0 l 1,5,-1
 415 177 l 1,6,-1
 225 177 l 1,7,-1
 194 0 l 1,8,-1
 124 0 l 1,9,-1
 154 177 l 1,10,-1
 45 177 l 1,11,-1
 45 246 l 1,12,-1
 166 246 l 1,13,-1
 203 458 l 1,14,-1
 84 458 l 1,15,-1
 84 527 l 1,16,-1
 214 527 l 1,17,-1
 244 700 l 1,18,-1
 314 700 l 1,19,-1
 285 527 l 1,20,-1
 475 527 l 1,21,-1
 505 700 l 1,22,-1
 575 700 l 1,23,-1
 546 527 l 1,24,-1
 654 527 l 1,25,-1
 654 458 l 1,26,-1
 534 458 l 1,27,-1
 497 246 l 1,0,-1
237 246 m 1,28,-1
 427 246 l 1,29,-1
 463 458 l 1,30,-1
 273 458 l 1,31,-1
 237 246 l 1,28,-1
EndSplineSet
EndChar

StartChar: dollar
Encoding: 36 36 5
Width: 636
GlyphClass: 1
Flags: W
LayerCount: 2
Fore
SplineSet
510 57.5 m 128,-1,1
 451 6 451 6 356 0 c 1,2,-1
 356 -98 l 1,3,-1
 292 -98 l 1,4,-1
 292 2 l 1,5,6
 163 14 163 14 56 105 c 1,7,-1
 101 165 l 1,8,9
 148 123 148 123 194.5 99.5 c 128,-1,10
 241 76 241 76 295 70 c 1,11,-1
 295 320 l 1,12,13
 183 347 183 347 132.5 392 c 128,-1,14
 82 437 82 437 82 515 c 0,15,16
 82 566 82 566 109 607 c 128,-1,17
 136 648 136 648 183.5 672.5 c 128,-1,18
 231 697 231 697 292 700 c 1,19,-1
 292 758 l 1,20,-1
 356 758 l 1,21,-1
 356 698 l 1,22,23
 410 693 410 693 455.5 673 c 128,-1,24
 501 653 501 653 547 618 c 1,25,-1
 504 558 l 1,26,27
 436 616 436 616 353 630 c 1,28,-1
 353 384 l 1,29,30
 467 358 467 358 518 312 c 128,-1,31
 569 266 569 266 569 189 c 0,32,0
 569 109 569 109 510 57.5 c 128,-1,1
196 599 m 128,-1,34
 159 567 159 567 159 520 c 0,35,36
 159 474 159 474 187.5 446 c 128,-1,37
 216 418 216 418 295 398 c 1,38,-1
 295 633 l 1,39,33
 233 631 233 631 196 599 c 128,-1,34
462.5 259 m 128,-1,41
 433 287 433 287 353 306 c 1,42,-1
 353 67 l 1,43,44
 416 70 416 70 454 102 c 128,-1,45
 492 134 492 134 492 184 c 0,46,40
 492 231 492 231 462.5 259 c 128,-1,41
EndSplineSet
EndChar

StartChar: percent
Encoding: 37 37 6
Width: 834
GlyphClass: 1
Flags: W
LayerCount: 2
Fore
SplineSet
349 440.5 m 128,-1,1
 329 399 329 399 292.5 374.5 c 128,-1,2
 256 350 256 350 210 350 c 256,3,4
 164 350 164 350 128 374.5 c 128,-1,5
 92 399 92 399 72 439.5 c 128,-1,6
 52 480 52 480 52 528 c 256,7,8
 52 576 52 576 72 617.5 c 128,-1,9
 92 659 92 659 128.5 683.5 c 128,-1,10
 165 708 165 708 212 708 c 0,11,12
 258 708 258 708 293.5 683.5 c 128,-1,13
 329 659 329 659 349 618.5 c 128,-1,14
 369 578 369 578 369 530 c 256,15,0
 369 482 369 482 349 440.5 c 128,-1,1
124 0 m 1,16,-1
 638 700 l 1,17,-1
 709 700 l 1,18,-1
 196 0 l 1,19,-1
 124 0 l 1,16,-1
276 616.5 m 128,-1,21
 249 652 249 652 210 652 c 0,22,23
 169 652 169 652 144 617 c 128,-1,24
 119 582 119 582 119 530 c 0,25,26
 119 477 119 477 146 441.5 c 128,-1,27
 173 406 173 406 212 406 c 0,28,29
 252 406 252 406 277.5 441 c 128,-1,30
 303 476 303 476 303 528 c 0,31,20
 303 581 303 581 276 616.5 c 128,-1,21
761 82.5 m 128,-1,33
 741 41 741 41 705 16.5 c 128,-1,34
 669 -8 669 -8 622 -8 c 0,35,36
 576 -8 576 -8 540.5 16.5 c 128,-1,37
 505 41 505 41 485 81.5 c 128,-1,38
 465 122 465 122 465 170 c 256,39,40
 465 218 465 218 485 259.5 c 128,-1,41
 505 301 505 301 541.5 325.5 c 128,-1,42
 578 350 578 350 624 350 c 256,43,44
 670 350 670 350 706 325.5 c 128,-1,45
 742 301 742 301 761.5 260.5 c 128,-1,46
 781 220 781 220 781 172 c 256,47,32
 781 124 781 124 761 82.5 c 128,-1,33
688 258.5 m 128,-1,49
 661 294 661 294 622 294 c 0,50,51
 582 294 582 294 556.5 259 c 128,-1,52
 531 224 531 224 531 172 c 0,53,54
 531 119 531 119 558 83.5 c 128,-1,55
 585 48 585 48 624 48 c 0,56,57
 665 48 665 48 690 83 c 128,-1,58
 715 118 715 118 715 170 c 0,59,48
 715 223 715 223 688 258.5 c 128,-1,49
EndSplineSet
EndChar

StartChar: ampersand
Encoding: 38 38 7
Width: 696
GlyphClass: 1
Flags: W
LayerCount: 2
Fore
SplineSet
494 99 m 1,0,1
 393 -10 393 -10 265 -10 c 0,2,3
 202 -10 202 -10 152 14.5 c 128,-1,4
 102 39 102 39 73.5 84 c 128,-1,5
 45 129 45 129 45 187 c 0,6,7
 45 256 45 256 88.5 307 c 128,-1,8
 132 358 132 358 214 390 c 1,9,10
 177 433 177 433 160.5 468.5 c 128,-1,11
 144 504 144 504 144 545 c 0,12,13
 144 591 144 591 167 629.5 c 128,-1,14
 190 668 190 668 232.5 690 c 128,-1,15
 275 712 275 712 329 712 c 0,16,17
 377 712 377 712 416 691 c 128,-1,18
 455 670 455 670 477 633.5 c 128,-1,19
 499 597 499 597 499 553 c 0,20,21
 499 487 499 487 456.5 442.5 c 128,-1,22
 414 398 414 398 334 370 c 1,23,-1
 494 207 l 1,24,25
 539 272 539 272 578 363 c 1,26,-1
 643 333 l 1,27,28
 590 220 590 220 542 157 c 1,29,-1
 664 32 l 1,30,-1
 604 -14 l 1,31,-1
 494 99 l 1,0,1
397 619.5 m 128,-1,33
 369 647 369 647 326 647 c 0,34,35
 279 647 279 647 249.5 618 c 128,-1,36
 220 589 220 589 220 545 c 0,37,38
 220 514 220 514 235 486 c 128,-1,39
 250 458 250 458 290 415 c 1,40,41
 358 438 358 438 391.5 470.5 c 128,-1,42
 425 503 425 503 425 549 c 0,43,32
 425 592 425 592 397 619.5 c 128,-1,33
158.5 276.5 m 128,-1,45
 125 237 125 237 125 190 c 0,46,47
 125 133 125 133 166 95 c 128,-1,48
 207 57 207 57 271 57 c 0,49,50
 363 57 363 57 446 148 c 1,51,-1
 259 341 l 1,52,44
 192 316 192 316 158.5 276.5 c 128,-1,45
EndSplineSet
EndChar

StartChar: quoteright
Encoding: 8217 8217 8
Width: 245
GlyphClass: 1
Flags: W
LayerCount: 2
Fore
SplineSet
105 542.5 m 128,-1,1
 121 563 121 563 118 595 c 1,2,-1
 82 595 l 1,3,-1
 82 700 l 1,4,-1
 174 700 l 1,5,-1
 174 610 l 2,6,7
 174 550 174 550 147.5 518 c 128,-1,8
 121 486 121 486 63 473 c 1,9,-1
 51 508 l 1,10,0
 89 522 89 522 105 542.5 c 128,-1,1
EndSplineSet
EndChar

StartChar: parenleft
Encoding: 40 40 9
Width: 434
GlyphClass: 1
Flags: W
LayerCount: 2
Fore
SplineSet
204 497.5 m 128,-1,1
 146 405 146 405 146 287 c 256,2,3
 146 169 146 169 204 76.5 c 128,-1,4
 262 -16 262 -16 378 -90 c 1,5,-1
 345 -141 l 1,6,7
 210 -65 210 -65 139 43 c 128,-1,8
 68 151 68 151 68 287 c 256,9,10
 68 423 68 423 139 531 c 128,-1,11
 210 639 210 639 345 715 c 1,12,-1
 378 664 l 1,13,0
 262 590 262 590 204 497.5 c 128,-1,1
EndSplineSet
EndChar

StartChar: parenright
Encoding: 41 41 10
Width: 434
GlyphClass: 1
Flags: W
LayerCount: 2
Fore
SplineSet
295 531 m 128,-1,1
 366 423 366 423 366 287 c 256,2,3
 366 151 366 151 295 43 c 128,-1,4
 224 -65 224 -65 89 -141 c 1,5,-1
 56 -90 l 1,6,7
 172 -16 172 -16 230 76.5 c 128,-1,8
 288 169 288 169 288 287 c 256,9,10
 288 405 288 405 230 497.5 c 128,-1,11
 172 590 172 590 56 664 c 1,12,-1
 89 715 l 1,13,0
 224 639 224 639 295 531 c 128,-1,1
EndSplineSet
EndChar

StartChar: asterisk
Encoding: 42 42 11
Width: 430
GlyphClass: 1
Flags: W
LayerCount: 2
Fore
SplineSet
231 522 m 1,0,-1
 241 397 l 1,1,-1
 189 397 l 1,2,-1
 199 522 l 1,3,-1
 96 449 l 1,4,-1
 69 496 l 1,5,-1
 185 549 l 1,6,-1
 69 603 l 1,7,-1
 96 649 l 1,8,-1
 199 577 l 1,9,-1
 189 702 l 1,10,-1
 241 702 l 1,11,-1
 231 577 l 1,12,-1
 334 649 l 1,13,-1
 361 603 l 1,14,-1
 245 549 l 1,15,-1
 361 496 l 1,16,-1
 334 449 l 1,17,-1
 231 522 l 1,0,-1
EndSplineSet
EndChar

StartChar: plus
Encoding: 43 43 12
Width: 640
GlyphClass: 1
Flags: W
LayerCount: 2
Fore
SplineSet
357 594 m 1,0,-1
 357 388 l 1,1,-1
 565 388 l 1,2,-1
 565 316 l 1,3,-1
 357 316 l 1,4,-1
 357 110 l 1,5,-1
 283 110 l 1,6,-1
 283 316 l 1,7,-1
 75 316 l 1,8,-1
 75 388 l 1,9,-1
 283 388 l 1,10,-1
 283 594 l 1,11,-1
 357 594 l 1,0,-1
EndSplineSet
EndChar

StartChar: comma
Encoding: 44 44 13
Width: 245
GlyphClass: 1
Flags: W
LayerCount: 2
Fore
SplineSet
100 -52.5 m 128,-1,1
 116 -32 116 -32 113 0 c 1,2,-1
 77 0 l 1,3,-1
 77 105 l 1,4,-1
 169 105 l 1,5,-1
 169 15 l 2,6,7
 169 -45 169 -45 142.5 -77 c 128,-1,8
 116 -109 116 -109 58 -122 c 1,9,-1
 46 -87 l 1,10,0
 84 -73 84 -73 100 -52.5 c 128,-1,1
EndSplineSet
EndChar

StartChar: hyphen
Encoding: 45 45 14
Width: 408
GlyphClass: 1
Flags: W
LayerCount: 2
Fore
SplineSet
65 341 m 1,0,-1
 343 341 l 1,1,-1
 343 260 l 1,2,-1
 65 260 l 1,3,-1
 65 341 l 1,0,-1
EndSplineSet
EndChar

StartChar: period
Encoding: 46 46 15
Width: 245
GlyphClass: 1
Flags: W
LayerCount: 2
Fore
SplineSet
77 105 m 1,0,-1
 169 105 l 1,1,-1
 169 0 l 1,2,-1
 77 0 l 1,3,-1
 77 105 l 1,0,-1
EndSplineSet
EndChar

StartChar: slash
Encoding: 47 47 16
Width: 508
GlyphClass: 1
Flags: W
LayerCount: 2
Fore
SplineSet
50 -128 m 1,0,-1
 -21 -128 l 1,1,-1
 443 798 l 1,2,-1
 514 798 l 1,3,-1
 50 -128 l 1,0,-1
EndSplineSet
EndChar

StartChar: zero
Encoding: 48 48 17
Width: 715
GlyphClass: 1
Flags: W
LayerCount: 2
Fore
SplineSet
616 169 m 128,-1,1
 579 86 579 86 512 37 c 128,-1,2
 445 -12 445 -12 357 -12 c 256,3,4
 269 -12 269 -12 202 36.5 c 128,-1,5
 135 85 135 85 98.5 167.5 c 128,-1,6
 62 250 62 250 62 349 c 256,7,8
 62 448 62 448 99 531 c 128,-1,9
 136 614 136 614 203.5 663 c 128,-1,10
 271 712 271 712 359 712 c 256,11,12
 447 712 447 712 513.5 663.5 c 128,-1,13
 580 615 580 615 616.5 532.5 c 128,-1,14
 653 450 653 450 653 351 c 256,15,0
 653 252 653 252 616 169 c 128,-1,1
544.5 493.5 m 128,-1,17
 518 560 518 560 469 600 c 128,-1,18
 420 640 420 640 357 640 c 0,19,20
 293 640 293 640 245 600.5 c 128,-1,21
 197 561 197 561 170.5 495 c 128,-1,22
 144 429 144 429 144 351 c 256,23,24
 144 273 144 273 171 206.5 c 128,-1,25
 198 140 198 140 246.5 100 c 128,-1,26
 295 60 295 60 359 60 c 0,27,28
 422 60 422 60 470.5 99.5 c 128,-1,29
 519 139 519 139 545 205 c 128,-1,30
 571 271 571 271 571 349 c 256,31,16
 571 427 571 427 544.5 493.5 c 128,-1,17
EndSplineSet
EndChar

StartChar: one
Encoding: 49 49 18
Width: 358
GlyphClass: 1
Flags: W
LayerCount: 2
Fore
SplineSet
257 705 m 1,0,-1
 257 0 l 1,1,-1
 179 0 l 1,2,-1
 179 623 l 1,3,-1
 47 582 l 1,4,-1
 28 646 l 1,5,-1
 199 705 l 1,6,-1
 257 705 l 1,0,-1
EndSplineSet
EndChar

StartChar: two
Encoding: 50 50 19
Width: 599
GlyphClass: 1
Flags: W
LayerCount: 2
Fore
SplineSet
206.5 610 m 128,-1,1
 163 581 163 581 119 519 c 1,2,-1
 61 561 l 1,3,4
 112 637 112 637 169 673.5 c 128,-1,5
 226 710 226 710 313 710 c 0,6,7
 376 710 376 710 425 684.5 c 128,-1,8
 474 659 474 659 502 613.5 c 128,-1,9
 530 568 530 568 530 511 c 0,10,11
 530 460 530 460 512 419 c 128,-1,12
 494 378 494 378 457 337 c 128,-1,13
 420 296 420 296 353 238 c 2,14,-1
 166 72 l 1,15,-1
 537 72 l 1,16,-1
 537 0 l 1,17,-1
 48 0 l 1,18,-1
 48 61 l 1,19,-1
 302 285 l 2,20,21
 384 358 384 358 416 405.5 c 128,-1,22
 448 453 448 453 448 505 c 0,23,24
 448 565 448 565 407 602 c 128,-1,25
 366 639 366 639 307 639 c 0,26,0
 250 639 250 639 206.5 610 c 128,-1,1
EndSplineSet
EndChar

StartChar: three
Encoding: 51 51 20
Width: 613
GlyphClass: 1
Flags: W
LayerCount: 2
Fore
SplineSet
87 700 m 1,0,-1
 534 700 l 1,1,-1
 534 642 l 1,2,-1
 314 398 l 1,3,4
 415 390 415 390 480 340.5 c 128,-1,5
 545 291 545 291 545 200 c 0,6,7
 545 138 545 138 514 90 c 128,-1,8
 483 42 483 42 429.5 15 c 128,-1,9
 376 -12 376 -12 311 -12 c 0,10,11
 227 -12 227 -12 161 21.5 c 128,-1,12
 95 55 95 55 50 113 c 1,13,-1
 107 164 l 1,14,15
 149 113 149 113 199 86.5 c 128,-1,16
 249 60 249 60 312 60 c 0,17,18
 377 60 377 60 421 98 c 128,-1,19
 465 136 465 136 465 197 c 0,20,21
 465 262 465 262 411.5 297.5 c 128,-1,22
 358 333 358 333 269 333 c 2,23,-1
 224 333 l 1,24,-1
 208 380 l 1,25,-1
 429 629 l 1,26,-1
 87 629 l 1,27,-1
 87 700 l 1,0,-1
EndSplineSet
EndChar

StartChar: four
Encoding: 52 52 21
Width: 671
GlyphClass: 1
Flags: W
LayerCount: 2
Fore
SplineSet
508 232 m 1,0,-1
 617 232 l 1,1,-1
 617 166 l 1,2,-1
 508 166 l 1,3,-1
 508 0 l 1,4,-1
 432 0 l 1,5,-1
 432 166 l 1,6,-1
 63 166 l 1,7,-1
 43 223 l 1,8,-1
 439 705 l 1,9,-1
 508 705 l 1,10,-1
 508 232 l 1,0,-1
138 232 m 1,11,-1
 432 232 l 1,12,-1
 432 593 l 1,13,-1
 138 232 l 1,11,-1
EndSplineSet
EndChar

StartChar: five
Encoding: 53 53 22
Width: 612
GlyphClass: 1
Flags: W
LayerCount: 2
Fore
SplineSet
522 700 m 1,0,-1
 522 627 l 1,1,-1
 188 627 l 1,2,-1
 173 403 l 1,3,4
 208 418 208 418 239.5 426 c 128,-1,5
 271 434 271 434 311 434 c 0,6,7
 379 434 379 434 434.5 408 c 128,-1,8
 490 382 490 382 521.5 333 c 128,-1,9
 553 284 553 284 553 219 c 0,10,11
 553 151 553 151 521 98.5 c 128,-1,12
 489 46 489 46 432 17 c 128,-1,13
 375 -12 375 -12 303 -12 c 0,14,15
 232 -12 232 -12 168 18 c 128,-1,16
 104 48 104 48 53 99 c 1,17,-1
 105 156 l 1,18,19
 204 60 204 60 304 60 c 0,20,21
 353 60 353 60 391.5 80 c 128,-1,22
 430 100 430 100 451.5 135.5 c 128,-1,23
 473 171 473 171 473 216 c 0,24,25
 473 282 473 282 424.5 323 c 128,-1,26
 376 364 376 364 299 364 c 0,27,28
 227 364 227 364 152 324 c 1,29,-1
 99 359 l 1,30,-1
 119 700 l 1,31,-1
 522 700 l 1,0,-1
EndSplineSet
EndChar

StartChar: six
Encoding: 54 54 23
Width: 647
GlyphClass: 1
Flags: W
LayerCount: 2
Fore
SplineSet
433 623 m 128,-1,1
 394 640 394 640 348 640 c 0,2,3
 286 640 286 640 239 600.5 c 128,-1,4
 192 561 192 561 167.5 491 c 128,-1,5
 143 421 143 421 143 331 c 1,6,7
 216 438 216 438 342 438 c 0,8,9
 408 438 408 438 463.5 411 c 128,-1,10
 519 384 519 384 551.5 335 c 128,-1,11
 584 286 584 286 584 222 c 0,12,13
 584 155 584 155 551 101.5 c 128,-1,14
 518 48 518 48 460.5 18 c 128,-1,15
 403 -12 403 -12 333 -12 c 0,16,17
 277 -12 277 -12 230 6.5 c 128,-1,18
 183 25 183 25 149 59 c 0,19,20
 104 104 104 104 82.5 166 c 128,-1,21
 61 228 61 228 61 331 c 0,22,23
 61 439 61 439 96 525.5 c 128,-1,24
 131 612 131 612 197 662 c 128,-1,25
 263 712 263 712 352 712 c 0,26,27
 412 712 412 712 461 692 c 128,-1,28
 510 672 510 672 559 632 c 1,29,-1
 513 571 l 1,30,0
 472 606 472 606 433 623 c 128,-1,1
481.5 296.5 m 128,-1,32
 460 331 460 331 421 350.5 c 128,-1,33
 382 370 382 370 332 370 c 0,34,35
 281 370 281 370 241 348.5 c 128,-1,36
 201 327 201 327 179 291.5 c 128,-1,37
 157 256 157 256 157 216 c 0,38,39
 157 171 157 171 180 135 c 128,-1,40
 203 99 203 99 243 78.5 c 128,-1,41
 283 58 283 58 334 58 c 0,42,43
 384 58 384 58 422.5 79.5 c 128,-1,44
 461 101 461 101 482 137.5 c 128,-1,45
 503 174 503 174 503 219 c 0,46,31
 503 262 503 262 481.5 296.5 c 128,-1,32
EndSplineSet
EndChar

StartChar: seven
Encoding: 55 55 24
Width: 596
GlyphClass: 1
Flags: W
LayerCount: 2
Fore
SplineSet
543 700 m 1,0,-1
 543 641 l 1,1,-1
 225 0 l 1,2,-1
 137 0 l 1,3,-1
 453 628 l 1,4,-1
 68 628 l 1,5,-1
 68 700 l 1,6,-1
 543 700 l 1,0,-1
EndSplineSet
EndChar

StartChar: eight
Encoding: 56 56 25
Width: 630
GlyphClass: 1
Flags: W
LayerCount: 2
Fore
SplineSet
543.5 85.5 m 128,-1,1
 509 40 509 40 449 15 c 128,-1,2
 389 -10 389 -10 315 -10 c 256,3,4
 241 -10 241 -10 181 15 c 128,-1,5
 121 40 121 40 86.5 85.5 c 128,-1,6
 52 131 52 131 52 189 c 0,7,8
 52 250 52 250 91 294 c 128,-1,9
 130 338 130 338 196 362 c 1,10,11
 76 417 76 417 76 524 c 0,12,13
 76 577 76 577 108.5 619.5 c 128,-1,14
 141 662 141 662 196 686 c 128,-1,15
 251 710 251 710 315 710 c 256,16,17
 379 710 379 710 434 686 c 128,-1,18
 489 662 489 662 521.5 619.5 c 128,-1,19
 554 577 554 577 554 524 c 0,20,21
 554 417 554 417 434 362 c 1,22,23
 500 337 500 337 539 293.5 c 128,-1,24
 578 250 578 250 578 190 c 0,25,0
 578 131 578 131 543.5 85.5 c 128,-1,1
454 581 m 128,-1,27
 433 609 433 609 396.5 625 c 128,-1,28
 360 641 360 641 315 641 c 0,29,30
 246 641 246 641 200.5 606.5 c 128,-1,31
 155 572 155 572 155 519 c 0,32,33
 155 462 155 462 201 426 c 128,-1,34
 247 390 247 390 315 390 c 256,35,36
 383 390 383 390 429 426 c 128,-1,37
 475 462 475 462 475 519 c 0,38,26
 475 553 475 553 454 581 c 128,-1,27
473.5 260.5 m 128,-1,40
 449 291 449 291 407.5 308 c 128,-1,41
 366 325 366 325 315 325 c 256,42,43
 264 325 264 325 222.5 308 c 128,-1,44
 181 291 181 291 156.5 260.5 c 128,-1,45
 132 230 132 230 132 191 c 0,46,47
 132 155 132 155 154 124.5 c 128,-1,48
 176 94 176 94 217.5 76.5 c 128,-1,49
 259 59 259 59 315 59 c 256,50,51
 371 59 371 59 412.5 76.5 c 128,-1,52
 454 94 454 94 476 124.5 c 128,-1,53
 498 155 498 155 498 191 c 0,54,39
 498 230 498 230 473.5 260.5 c 128,-1,40
EndSplineSet
EndChar

StartChar: nine
Encoding: 57 57 26
Width: 647
GlyphClass: 1
Flags: W
LayerCount: 2
Fore
SplineSet
549.5 171.5 m 128,-1,1
 513 85 513 85 446.5 36.5 c 128,-1,2
 380 -12 380 -12 295 -12 c 0,3,4
 231 -12 231 -12 179.5 10.5 c 128,-1,5
 128 33 128 33 79 74 c 1,6,-1
 125 135 l 1,7,8
 169 97 169 97 210 78.5 c 128,-1,9
 251 60 251 60 297 60 c 0,10,11
 359 60 359 60 407 99.5 c 128,-1,12
 455 139 455 139 480.5 208.5 c 128,-1,13
 506 278 506 278 505 367 c 1,14,15
 474 316 474 316 424.5 285.5 c 128,-1,16
 375 255 375 255 307 255 c 0,17,18
 236 255 236 255 180.5 283 c 128,-1,19
 125 311 125 311 94 360.5 c 128,-1,20
 63 410 63 410 63 473 c 0,21,22
 63 540 63 540 95 594.5 c 128,-1,23
 127 649 127 649 184.5 680.5 c 128,-1,24
 242 712 242 712 315 712 c 0,25,26
 427 712 427 712 499 640 c 0,27,28
 543 596 543 596 564.5 532.5 c 128,-1,29
 586 469 586 469 586 368 c 0,30,0
 586 258 586 258 549.5 171.5 c 128,-1,1
467.5 563.5 m 128,-1,32
 445 600 445 600 404 621 c 128,-1,33
 363 642 363 642 312 642 c 256,34,35
 261 642 261 642 223 619.5 c 128,-1,36
 185 597 185 597 164.5 559.5 c 128,-1,37
 144 522 144 522 144 477 c 0,38,39
 144 409 144 409 192 366 c 128,-1,40
 240 323 240 323 316 323 c 0,41,42
 368 323 368 323 407.5 345.5 c 128,-1,43
 447 368 447 368 468.5 404.5 c 128,-1,44
 490 441 490 441 490 482 c 0,45,31
 490 527 490 527 467.5 563.5 c 128,-1,32
EndSplineSet
EndChar

StartChar: colon
Encoding: 58 58 27
Width: 255
GlyphClass: 1
Flags: W
LayerCount: 2
Fore
SplineSet
82 517 m 1,0,-1
 174 517 l 1,1,-1
 174 412 l 1,2,-1
 82 412 l 1,3,-1
 82 517 l 1,0,-1
82 105 m 1,4,-1
 174 105 l 1,5,-1
 174 0 l 1,6,-1
 82 0 l 1,7,-1
 82 105 l 1,4,-1
EndSplineSet
EndChar

StartChar: semicolon
Encoding: 59 59 28
Width: 255
GlyphClass: 1
Flags: W
LayerCount: 2
Fore
SplineSet
82 517 m 1,0,-1
 174 517 l 1,1,-1
 174 412 l 1,2,-1
 82 412 l 1,3,-1
 82 517 l 1,0,-1
105 -52.5 m 128,-1,5
 121 -32 121 -32 118 0 c 1,6,-1
 82 0 l 1,7,-1
 82 105 l 1,8,-1
 174 105 l 1,9,-1
 174 15 l 2,10,11
 174 -45 174 -45 147.5 -77 c 128,-1,12
 121 -109 121 -109 63 -122 c 1,13,-1
 51 -87 l 1,14,4
 89 -73 89 -73 105 -52.5 c 128,-1,5
EndSplineSet
EndChar

StartChar: less
Encoding: 60 60 29
Width: 640
GlyphClass: 1
Flags: W
LayerCount: 2
Fore
SplineSet
541 541 m 1,0,-1
 156 353 l 1,1,-1
 541 164 l 1,2,-1
 541 86 l 1,3,-1
 72 319 l 1,4,-1
 72 385 l 1,5,-1
 541 618 l 1,6,-1
 541 541 l 1,0,-1
EndSplineSet
EndChar

StartChar: equal
Encoding: 61 61 30
Width: 640
GlyphClass: 1
Flags: W
LayerCount: 2
Fore
SplineSet
550 432 m 1,0,-1
 90 432 l 1,1,-1
 90 506 l 1,2,-1
 550 506 l 1,3,-1
 550 432 l 1,0,-1
550 198 m 1,4,-1
 90 198 l 1,5,-1
 90 272 l 1,6,-1
 550 272 l 1,7,-1
 550 198 l 1,4,-1
EndSplineSet
EndChar

StartChar: greater
Encoding: 62 62 31
Width: 640
GlyphClass: 1
Flags: W
LayerCount: 2
Fore
SplineSet
99 163 m 1,0,-1
 484 351 l 1,1,-1
 99 540 l 1,2,-1
 99 618 l 1,3,-1
 568 385 l 1,4,-1
 568 319 l 1,5,-1
 99 86 l 1,6,-1
 99 163 l 1,0,-1
EndSplineSet
EndChar

StartChar: question
Encoding: 63 63 32
Width: 537
GlyphClass: 1
Flags: W
LayerCount: 2
Fore
SplineSet
357.5 404.5 m 128,-1,1
 409 442 409 442 409 507 c 0,2,3
 409 563 409 563 369 600.5 c 128,-1,4
 329 638 329 638 263 638 c 0,5,6
 209 638 209 638 165 614 c 128,-1,7
 121 590 121 590 81 544 c 1,8,-1
 30 593 l 1,9,10
 76 649 76 649 132.5 679 c 128,-1,11
 189 709 189 709 265 709 c 0,12,13
 331 709 331 709 382 683.5 c 128,-1,14
 433 658 433 658 461 612.5 c 128,-1,15
 489 567 489 567 489 510 c 0,16,17
 489 421 489 421 431.5 370 c 128,-1,18
 374 319 374 319 281 306 c 1,19,-1
 271 198 l 1,20,-1
 220 198 l 1,21,-1
 205 360 l 1,22,-1
 210 365 l 1,23,0
 306 367 306 367 357.5 404.5 c 128,-1,1
199 105 m 1,24,-1
 291 105 l 1,25,-1
 291 0 l 1,26,-1
 199 0 l 1,27,-1
 199 105 l 1,24,-1
EndSplineSet
EndChar

StartChar: at
Encoding: 64 64 33
Width: 980
GlyphClass: 1
Flags: W
LayerCount: 2
Fore
SplineSet
900.5 180 m 128,-1,1
 874 125 874 125 831 98 c 128,-1,2
 788 71 788 71 740 71 c 0,3,4
 687 71 687 71 651 93.5 c 128,-1,5
 615 116 615 116 600 155 c 1,6,7
 567 116 567 116 527 93.5 c 128,-1,8
 487 71 487 71 435 71 c 0,9,10
 386 71 386 71 345 94 c 128,-1,11
 304 117 304 117 280 158 c 128,-1,12
 256 199 256 199 256 253 c 0,13,14
 256 321 256 321 289.5 378.5 c 128,-1,15
 323 436 323 436 376.5 469 c 128,-1,16
 430 502 430 502 487 502 c 0,17,18
 541 502 541 502 576.5 478.5 c 128,-1,19
 612 455 612 455 633 419 c 1,20,-1
 646 488 l 1,21,-1
 713 479 l 1,22,-1
 673 252 l 2,23,24
 666 213 666 213 666 191 c 0,25,26
 666 153 666 153 688.5 131.5 c 128,-1,27
 711 110 711 110 751 110 c 0,28,29
 788 110 788 110 820 132.5 c 128,-1,30
 852 155 852 155 871.5 201.5 c 128,-1,31
 891 248 891 248 891 316 c 0,32,33
 891 408 891 408 838.5 491.5 c 128,-1,34
 786 575 786 575 694 626.5 c 128,-1,35
 602 678 602 678 491 678 c 0,36,37
 378 678 378 678 286 623.5 c 128,-1,38
 194 569 194 569 141.5 476.5 c 128,-1,39
 89 384 89 384 89 274 c 0,40,41
 89 163 89 163 141.5 71 c 128,-1,42
 194 -21 194 -21 288 -74.5 c 128,-1,43
 382 -128 382 -128 499 -128 c 0,44,45
 572 -128 572 -128 630 -111.5 c 128,-1,46
 688 -95 688 -95 748 -60 c 1,47,-1
 764 -87 l 1,48,49
 704 -124 704 -124 639 -143 c 128,-1,50
 574 -162 574 -162 499 -162 c 0,51,52
 374 -162 374 -162 272 -103 c 128,-1,53
 170 -44 170 -44 111.5 56 c 128,-1,54
 53 156 53 156 53 274 c 256,55,56
 53 392 53 392 111.5 492.5 c 128,-1,57
 170 593 170 593 270.5 652.5 c 128,-1,58
 371 712 371 712 491 712 c 0,59,60
 610 712 610 712 710.5 657 c 128,-1,61
 811 602 811 602 869 511 c 128,-1,62
 927 420 927 420 927 316 c 0,63,0
 927 235 927 235 900.5 180 c 128,-1,1
579.5 404 m 128,-1,65
 545 440 545 440 492 440 c 0,66,67
 450 440 450 440 412 416 c 128,-1,68
 374 392 374 392 351 350 c 128,-1,69
 328 308 328 308 328 258 c 0,70,71
 328 200 328 200 362 166.5 c 128,-1,72
 396 133 396 133 450 133 c 0,73,74
 492 133 492 133 530 158.5 c 128,-1,75
 568 184 568 184 591 225.5 c 128,-1,76
 614 267 614 267 614 313 c 0,77,64
 614 368 614 368 579.5 404 c 128,-1,65
EndSplineSet
EndChar

StartChar: A
Encoding: 65 65 34
Width: 790
GlyphClass: 1
Flags: W
LayerCount: 2
Fore
SplineSet
666 0 m 1,0,-1
 584 185 l 1,1,-1
 203 185 l 1,2,-1
 120 0 l 1,3,-1
 39 0 l 1,4,-1
 358 705 l 1,5,-1
 432 705 l 1,6,-1
 751 0 l 1,7,-1
 666 0 l 1,0,-1
234 256 m 1,8,-1
 553 256 l 1,9,-1
 394 613 l 1,10,-1
 234 256 l 1,8,-1
EndSplineSet
EndChar

StartChar: B
Encoding: 66 66 35
Width: 722
GlyphClass: 1
Flags: W
LayerCount: 2
Fore
SplineSet
563 652.5 m 128,-1,1
 625 605 625 605 625 525 c 0,2,3
 625 462 625 462 593.5 422.5 c 128,-1,4
 562 383 562 383 514 362 c 1,5,6
 664 317 664 317 664 192 c 0,7,8
 664 102 664 102 595 51 c 128,-1,9
 526 0 526 0 410 0 c 2,10,-1
 99 0 l 1,11,-1
 99 700 l 1,12,-1
 397 700 l 2,13,0
 501 700 501 700 563 652.5 c 128,-1,1
501 420.5 m 128,-1,15
 545 453 545 453 545 514 c 0,16,17
 545 567 545 567 504.5 598 c 128,-1,18
 464 629 464 629 390 629 c 2,19,-1
 177 629 l 1,20,-1
 177 388 l 1,21,-1
 384 388 l 2,22,14
 457 388 457 388 501 420.5 c 128,-1,15
538 104.5 m 128,-1,24
 584 138 584 138 584 197 c 0,25,26
 584 255 584 255 536.5 286.5 c 128,-1,27
 489 318 489 318 398 318 c 2,28,-1
 177 318 l 1,29,-1
 177 71 l 1,30,-1
 412 71 l 2,31,23
 492 71 492 71 538 104.5 c 128,-1,24
EndSplineSet
EndChar

StartChar: C
Encoding: 67 67 36
Width: 738
GlyphClass: 1
Flags: W
LayerCount: 2
Fore
SplineSet
574 19 m 128,-1,1
 509 -12 509 -12 419 -12 c 0,2,3
 320 -12 320 -12 239.5 36 c 128,-1,4
 159 84 159 84 113.5 166.5 c 128,-1,5
 68 249 68 249 68 349 c 0,6,7
 68 448 68 448 113.5 531.5 c 128,-1,8
 159 615 159 615 240 663.5 c 128,-1,9
 321 712 321 712 422 712 c 0,10,11
 511 712 511 712 574 684 c 128,-1,12
 637 656 637 656 695 601 c 1,13,-1
 641 543 l 1,14,15
 592 589 592 589 540 614 c 128,-1,16
 488 639 488 639 421 639 c 0,17,18
 345 639 345 639 283 601 c 128,-1,19
 221 563 221 563 185.5 497 c 128,-1,20
 150 431 150 431 150 351 c 256,21,22
 150 271 150 271 185.5 204.5 c 128,-1,23
 221 138 221 138 283 99.5 c 128,-1,24
 345 61 345 61 421 61 c 0,25,26
 489 61 489 61 541 86 c 128,-1,27
 593 111 593 111 647 162 c 1,28,-1
 699 111 l 1,29,0
 639 50 639 50 574 19 c 128,-1,1
EndSplineSet
EndChar

StartChar: D
Encoding: 68 68 37
Width: 782
GlyphClass: 1
Flags: W
LayerCount: 2
Fore
SplineSet
666.5 172.5 m 128,-1,1
 619 92 619 92 534.5 46 c 128,-1,2
 450 0 450 0 342 0 c 2,3,-1
 99 0 l 1,4,-1
 99 700 l 1,5,-1
 342 700 l 2,6,7
 450 700 450 700 534.5 654.5 c 128,-1,8
 619 609 619 609 666.5 529 c 128,-1,9
 714 449 714 449 714 351 c 256,10,0
 714 253 714 253 666.5 172.5 c 128,-1,1
596 490.5 m 128,-1,12
 560 554 560 554 494 590.5 c 128,-1,13
 428 627 428 627 342 627 c 2,14,-1
 178 627 l 1,15,-1
 178 73 l 1,16,-1
 342 73 l 2,17,18
 429 73 429 73 494.5 109 c 128,-1,19
 560 145 560 145 596 208 c 128,-1,20
 632 271 632 271 632 349 c 256,21,11
 632 427 632 427 596 490.5 c 128,-1,12
EndSplineSet
EndChar

StartChar: E
Encoding: 69 69 38
Width: 670
GlyphClass: 1
Flags: W
LayerCount: 2
Fore
SplineSet
178 628 m 1,0,-1
 178 389 l 1,1,-1
 560 389 l 1,2,-1
 560 317 l 1,3,-1
 178 317 l 1,4,-1
 178 72 l 1,5,-1
 610 72 l 1,6,-1
 610 0 l 1,7,-1
 99 0 l 1,8,-1
 99 700 l 1,9,-1
 605 700 l 1,10,-1
 605 628 l 1,11,-1
 178 628 l 1,0,-1
EndSplineSet
EndChar

StartChar: F
Encoding: 70 70 39
Width: 656
GlyphClass: 1
Flags: W
LayerCount: 2
Fore
SplineSet
178 627 m 1,0,-1
 178 377 l 1,1,-1
 557 377 l 1,2,-1
 557 305 l 1,3,-1
 178 305 l 1,4,-1
 178 0 l 1,5,-1
 99 0 l 1,6,-1
 99 700 l 1,7,-1
 602 700 l 1,8,-1
 602 627 l 1,9,-1
 178 627 l 1,0,-1
EndSplineSet
EndChar

StartChar: G
Encoding: 71 71 40
Width: 784
GlyphClass: 1
Flags: W
LayerCount: 2
Fore
SplineSet
579.5 17.5 m 128,-1,1
 507 -12 507 -12 424 -12 c 0,2,3
 317 -12 317 -12 236 35.5 c 128,-1,4
 155 83 155 83 111.5 165.5 c 128,-1,5
 68 248 68 248 68 349 c 0,6,7
 68 446 68 446 112.5 529 c 128,-1,8
 157 612 157 612 237 662 c 128,-1,9
 317 712 317 712 419 712 c 0,10,11
 503 712 503 712 563.5 689 c 128,-1,12
 624 666 624 666 680 619 c 1,13,-1
 629 559 l 1,14,15
 584 598 584 598 534.5 618.5 c 128,-1,16
 485 639 485 639 416 639 c 0,17,18
 340 639 340 639 279.5 600 c 128,-1,19
 219 561 219 561 184.5 495 c 128,-1,20
 150 429 150 429 150 351 c 0,21,22
 150 267 150 267 184 200.5 c 128,-1,23
 218 134 218 134 281 96.5 c 128,-1,24
 344 59 344 59 427 59 c 0,25,26
 484 59 484 59 537.5 78.5 c 128,-1,27
 591 98 591 98 629 129 c 1,28,-1
 629 303 l 1,29,-1
 416 303 l 1,30,-1
 416 374 l 1,31,-1
 705 374 l 1,32,-1
 705 95 l 1,33,0
 652 47 652 47 579.5 17.5 c 128,-1,1
EndSplineSet
EndChar

StartChar: H
Encoding: 72 72 41
Width: 760
GlyphClass: 1
Flags: W
LayerCount: 2
Fore
SplineSet
178 0 m 1,0,-1
 99 0 l 1,1,-1
 99 700 l 1,2,-1
 178 700 l 1,3,-1
 178 389 l 1,4,-1
 582 389 l 1,5,-1
 582 700 l 1,6,-1
 661 700 l 1,7,-1
 661 0 l 1,8,-1
 582 0 l 1,9,-1
 582 315 l 1,10,-1
 178 315 l 1,11,-1
 178 0 l 1,0,-1
EndSplineSet
EndChar

StartChar: I
Encoding: 73 73 42
Width: 291
GlyphClass: 1
Flags: W
LayerCount: 2
Fore
SplineSet
185 0 m 1,0,-1
 106 0 l 1,1,-1
 106 700 l 1,2,-1
 185 700 l 1,3,-1
 185 0 l 1,0,-1
EndSplineSet
EndChar

StartChar: J
Encoding: 74 74 43
Width: 553
GlyphClass: 1
Flags: W
LayerCount: 2
Fore
SplineSet
405 52.5 m 128,-1,1
 345 -10 345 -10 247 -10 c 0,2,3
 107 -10 107 -10 31 114 c 1,4,-1
 88 163 l 1,5,6
 122 112 122 112 158.5 87.5 c 128,-1,7
 195 63 195 63 248 63 c 0,8,9
 309 63 309 63 347 106.5 c 128,-1,10
 385 150 385 150 385 231 c 2,11,-1
 385 700 l 1,12,-1
 465 700 l 1,13,-1
 465 232 l 2,14,0
 465 115 465 115 405 52.5 c 128,-1,1
EndSplineSet
EndChar

StartChar: K
Encoding: 75 75 44
Width: 719
GlyphClass: 1
Flags: W
LayerCount: 2
Fore
SplineSet
596 0 m 1,0,-1
 327 339 l 1,1,-1
 178 188 l 1,2,-1
 178 0 l 1,3,-1
 99 0 l 1,4,-1
 99 700 l 1,5,-1
 178 700 l 1,6,-1
 178 282 l 1,7,-1
 580 700 l 1,8,-1
 682 700 l 1,9,-1
 382 394 l 1,10,-1
 695 0 l 1,11,-1
 596 0 l 1,0,-1
EndSplineSet
EndChar

StartChar: L
Encoding: 76 76 45
Width: 619
GlyphClass: 1
Flags: W
LayerCount: 2
Fore
SplineSet
178 700 m 1,0,-1
 178 73 l 1,1,-1
 572 73 l 1,2,-1
 572 0 l 1,3,-1
 99 0 l 1,4,-1
 99 700 l 1,5,-1
 178 700 l 1,0,-1
EndSplineSet
EndChar

StartChar: M
Encoding: 77 77 46
Width: 868
GlyphClass: 1
Flags: W
LayerCount: 2
Fore
SplineSet
431 192 m 1,0,-1
 176 566 l 1,1,-1
 176 0 l 1,2,-1
 99 0 l 1,3,-1
 99 700 l 1,4,-1
 179 700 l 1,5,-1
 434 318 l 1,6,-1
 689 700 l 1,7,-1
 769 700 l 1,8,-1
 769 0 l 1,9,-1
 690 0 l 1,10,-1
 690 567 l 1,11,-1
 435 192 l 1,12,-1
 431 192 l 1,0,-1
EndSplineSet
EndChar

StartChar: N
Encoding: 78 78 47
Width: 790
GlyphClass: 1
Flags: W
LayerCount: 2
Fore
SplineSet
691 700 m 1,0,-1
 691 0 l 1,1,-1
 628 0 l 1,2,-1
 176 574 l 1,3,-1
 176 0 l 1,4,-1
 99 0 l 1,5,-1
 99 700 l 1,6,-1
 173 700 l 1,7,-1
 614 139 l 1,8,-1
 614 700 l 1,9,-1
 691 700 l 1,0,-1
EndSplineSet
EndChar

StartChar: O
Encoding: 79 79 48
Width: 850
GlyphClass: 1
Flags: W
LayerCount: 2
Fore
SplineSet
736.5 170.5 m 128,-1,1
 691 87 691 87 609.5 37.5 c 128,-1,2
 528 -12 528 -12 424 -12 c 256,3,4
 320 -12 320 -12 239 37 c 128,-1,5
 158 86 158 86 113 169 c 128,-1,6
 68 252 68 252 68 349 c 256,7,8
 68 446 68 446 113.5 529.5 c 128,-1,9
 159 613 159 613 240.5 662.5 c 128,-1,10
 322 712 322 712 426 712 c 256,11,12
 530 712 530 712 611 663 c 128,-1,13
 692 614 692 614 737 531 c 128,-1,14
 782 448 782 448 782 351 c 256,15,0
 782 254 782 254 736.5 170.5 c 128,-1,1
664.5 494.5 m 128,-1,17
 629 561 629 561 565.5 600 c 128,-1,18
 502 639 502 639 424 639 c 256,19,20
 346 639 346 639 283.5 600.5 c 128,-1,21
 221 562 221 562 185.5 496 c 128,-1,22
 150 430 150 430 150 351 c 256,23,24
 150 272 150 272 185.5 205.5 c 128,-1,25
 221 139 221 139 284.5 100 c 128,-1,26
 348 61 348 61 426 61 c 256,27,28
 504 61 504 61 566.5 99.5 c 128,-1,29
 629 138 629 138 664.5 204 c 128,-1,30
 700 270 700 270 700 349 c 256,31,16
 700 428 700 428 664.5 494.5 c 128,-1,17
EndSplineSet
EndChar

StartChar: P
Encoding: 80 80 49
Width: 668
GlyphClass: 1
Flags: W
LayerCount: 2
Fore
SplineSet
586 352 m 128,-1,1
 549 300 549 300 486.5 273.5 c 128,-1,2
 424 247 424 247 348 247 c 2,3,-1
 178 247 l 1,4,-1
 178 0 l 1,5,-1
 99 0 l 1,6,-1
 99 700 l 1,7,-1
 361 700 l 2,8,9
 440 700 440 700 499 673 c 128,-1,10
 558 646 558 646 590.5 596 c 128,-1,11
 623 546 623 546 623 477 c 0,12,0
 623 404 623 404 586 352 c 128,-1,1
492.5 587.5 m 128,-1,14
 442 627 442 627 355 627 c 2,15,-1
 178 627 l 1,16,-1
 178 319 l 1,17,-1
 351 319 l 2,18,19
 438 319 438 319 490.5 361.5 c 128,-1,20
 543 404 543 404 543 474 c 0,21,13
 543 548 543 548 492.5 587.5 c 128,-1,14
EndSplineSet
EndChar

StartChar: Q
Encoding: 81 81 50
Width: 850
GlyphClass: 1
Flags: W
LayerCount: 2
Fore
SplineSet
737 -21 m 1,0,-1
 645 63 l 1,1,2
 549 -12 549 -12 424 -12 c 0,3,4
 320 -12 320 -12 239 37 c 128,-1,5
 158 86 158 86 113 169 c 128,-1,6
 68 252 68 252 68 349 c 256,7,8
 68 446 68 446 113.5 529.5 c 128,-1,9
 159 613 159 613 240.5 662.5 c 128,-1,10
 322 712 322 712 426 712 c 256,11,12
 530 712 530 712 611 663 c 128,-1,13
 692 614 692 614 737 531 c 128,-1,14
 782 448 782 448 782 351 c 0,15,16
 782 285 782 285 760.5 224 c 128,-1,17
 739 163 739 163 698 115 c 1,18,-1
 791 38 l 1,19,-1
 737 -21 l 1,0,-1
510 284 m 1,20,-1
 639 167 l 1,21,22
 668 204 668 204 684 251 c 128,-1,23
 700 298 700 298 700 349 c 0,24,25
 700 428 700 428 664.5 494.5 c 128,-1,26
 629 561 629 561 565.5 600 c 128,-1,27
 502 639 502 639 424 639 c 256,28,29
 346 639 346 639 283.5 600.5 c 128,-1,30
 221 562 221 562 185.5 496 c 128,-1,31
 150 430 150 430 150 351 c 256,32,33
 150 272 150 272 185.5 205.5 c 128,-1,34
 221 139 221 139 284.5 100 c 128,-1,35
 348 61 348 61 426 61 c 0,36,37
 472 61 472 61 513 75 c 128,-1,38
 554 89 554 89 587 114 c 1,39,-1
 457 225 l 1,40,-1
 510 284 l 1,20,-1
EndSplineSet
EndChar

StartChar: R
Encoding: 82 82 51
Width: 723
GlyphClass: 1
Flags: W
LayerCount: 2
Fore
SplineSet
378 272 m 1,0,-1
 178 272 l 1,1,-1
 178 0 l 1,2,-1
 99 0 l 1,3,-1
 99 700 l 1,4,-1
 400 700 l 2,5,6
 476 700 476 700 533.5 674 c 128,-1,7
 591 648 591 648 622 601 c 128,-1,8
 653 554 653 554 653 491 c 0,9,10
 653 406 653 406 601 354 c 128,-1,11
 549 302 549 302 463 286 c 1,12,-1
 678 0 l 1,13,-1
 581 0 l 1,14,-1
 378 272 l 1,0,-1
526 590 m 128,-1,16
 479 627 479 627 394 627 c 2,17,-1
 178 627 l 1,18,-1
 178 343 l 1,19,-1
 393 343 l 2,20,21
 473 343 473 343 523 382 c 128,-1,22
 573 421 573 421 573 488 c 0,23,15
 573 553 573 553 526 590 c 128,-1,16
EndSplineSet
EndChar

StartChar: S
Encoding: 83 83 52
Width: 640
GlyphClass: 1
Flags: W
LayerCount: 2
Fore
SplineSet
176 466 m 128,-1,1
 192 442 192 442 233 423 c 128,-1,2
 274 404 274 404 350 388 c 0,3,4
 469 362 469 362 523.5 315.5 c 128,-1,5
 578 269 578 269 578 189 c 0,6,7
 578 130 578 130 547.5 84.5 c 128,-1,8
 517 39 517 39 462.5 14.5 c 128,-1,9
 408 -10 408 -10 339 -10 c 0,10,11
 256 -10 256 -10 186.5 17.5 c 128,-1,12
 117 45 117 45 53 102 c 1,13,-1
 102 160 l 1,14,15
 158 109 158 109 214.5 85 c 128,-1,16
 271 61 271 61 342 61 c 0,17,18
 412 61 412 61 455 94.5 c 128,-1,19
 498 128 498 128 498 181 c 0,20,21
 498 216 498 216 482.5 239.5 c 128,-1,22
 467 263 467 263 428 281.5 c 128,-1,23
 389 300 389 300 316 315 c 0,24,25
 192 342 192 342 136.5 387.5 c 128,-1,26
 81 433 81 433 81 518 c 0,27,28
 81 573 81 573 110.5 617 c 128,-1,29
 140 661 140 661 192.5 685.5 c 128,-1,30
 245 710 245 710 311 710 c 0,31,32
 386 710 386 710 444 689 c 128,-1,33
 502 668 502 668 557 624 c 1,34,-1
 511 563 l 1,35,36
 463 602 463 602 413.5 620.5 c 128,-1,37
 364 639 364 639 309 639 c 0,38,39
 242 639 242 639 201 606.5 c 128,-1,40
 160 574 160 574 160 525 c 0,41,0
 160 490 160 490 176 466 c 128,-1,1
EndSplineSet
EndChar

StartChar: T
Encoding: 84 84 53
Width: 648
GlyphClass: 1
Flags: W
LayerCount: 2
Fore
SplineSet
284 0 m 1,0,-1
 284 627 l 1,1,-1
 49 627 l 1,2,-1
 49 700 l 1,3,-1
 599 700 l 1,4,-1
 599 627 l 1,5,-1
 364 627 l 1,6,-1
 364 0 l 1,7,-1
 284 0 l 1,0,-1
EndSplineSet
EndChar

StartChar: U
Encoding: 85 85 54
Width: 759
GlyphClass: 1
Flags: W
LayerCount: 2
Fore
SplineSet
592 69 m 128,-1,1
 513 -11 513 -11 379 -11 c 0,2,3
 292 -11 292 -11 226.5 24 c 128,-1,4
 161 59 161 59 124.5 127.5 c 128,-1,5
 88 196 88 196 88 293 c 2,6,-1
 88 700 l 1,7,-1
 167 700 l 1,8,-1
 167 298 l 2,9,10
 167 185 167 185 223.5 123.5 c 128,-1,11
 280 62 280 62 381 62 c 0,12,13
 480 62 480 62 536 121 c 128,-1,14
 592 180 592 180 592 293 c 2,15,-1
 592 700 l 1,16,-1
 671 700 l 1,17,-1
 671 299 l 2,18,0
 671 149 671 149 592 69 c 128,-1,1
EndSplineSet
EndChar

StartChar: V
Encoding: 86 86 55
Width: 750
GlyphClass: 1
Flags: W
LayerCount: 2
Fore
SplineSet
711 700 m 1,0,-1
 410 -5 l 1,1,-1
 340 -5 l 1,2,-1
 39 700 l 1,3,-1
 127 700 l 1,4,-1
 376 97 l 1,5,-1
 626 700 l 1,6,-1
 711 700 l 1,0,-1
EndSplineSet
EndChar

StartChar: W
Encoding: 87 87 56
Width: 1107
GlyphClass: 1
Flags: W
LayerCount: 2
Fore
SplineSet
588 702 m 1,0,-1
 780 117 l 1,1,-1
 980 700 l 1,2,-1
 1063 700 l 1,3,-1
 813 -5 l 1,4,-1
 746 -5 l 1,5,-1
 554 563 l 1,6,-1
 361 -5 l 1,7,-1
 295 -5 l 1,8,-1
 45 700 l 1,9,-1
 131 700 l 1,10,-1
 331 117 l 1,11,-1
 523 702 l 1,12,-1
 588 702 l 1,0,-1
EndSplineSet
EndChar

StartChar: X
Encoding: 88 88 57
Width: 725
GlyphClass: 1
Flags: W
LayerCount: 2
Fore
SplineSet
361 301 m 1,0,-1
 137 0 l 1,1,-1
 46 0 l 1,2,-1
 315 357 l 1,3,-1
 56 700 l 1,4,-1
 149 700 l 1,5,-1
 364 414 l 1,6,-1
 577 700 l 1,7,-1
 669 700 l 1,8,-1
 410 358 l 1,9,-1
 679 0 l 1,10,-1
 585 0 l 1,11,-1
 361 301 l 1,0,-1
EndSplineSet
EndChar

StartChar: Y
Encoding: 89 89 58
Width: 716
GlyphClass: 1
Flags: W
LayerCount: 2
Fore
SplineSet
318 0 m 1,0,-1
 318 277 l 1,1,-1
 27 700 l 1,2,-1
 123 700 l 1,3,-1
 359 350 l 1,4,-1
 597 700 l 1,5,-1
 689 700 l 1,6,-1
 398 278 l 1,7,-1
 398 0 l 1,8,-1
 318 0 l 1,0,-1
EndSplineSet
EndChar

StartChar: Z
Encoding: 90 90 59
Width: 693
GlyphClass: 1
Flags: W
LayerCount: 2
Fore
SplineSet
82 700 m 1,0,-1
 628 700 l 1,1,-1
 628 647 l 1,2,-1
 174 71 l 1,3,-1
 628 71 l 1,4,-1
 628 0 l 1,5,-1
 67 0 l 1,6,-1
 67 53 l 1,7,-1
 520 629 l 1,8,-1
 82 629 l 1,9,-1
 82 700 l 1,0,-1
EndSplineSet
EndChar

StartChar: bracketleft
Encoding: 91 91 60
Width: 439
GlyphClass: 1
Flags: W
LayerCount: 2
Fore
SplineSet
167 640 m 1,0,-1
 167 -70 l 1,1,-1
 380 -70 l 1,2,-1
 380 -130 l 1,3,-1
 94 -130 l 1,4,-1
 94 700 l 1,5,-1
 380 700 l 1,6,-1
 380 640 l 1,7,-1
 167 640 l 1,0,-1
EndSplineSet
EndChar

StartChar: backslash
Encoding: 92 92 61
Width: 508
GlyphClass: 1
Flags: W
LayerCount: 2
Fore
SplineSet
458 -128 m 1,0,-1
 -6 798 l 1,1,-1
 65 798 l 1,2,-1
 529 -128 l 1,3,-1
 458 -128 l 1,0,-1
EndSplineSet
EndChar

StartChar: bracketright
Encoding: 93 93 62
Width: 439
GlyphClass: 1
Flags: W
LayerCount: 2
Fore
SplineSet
345 -130 m 1,0,-1
 59 -130 l 1,1,-1
 59 -70 l 1,2,-1
 273 -70 l 1,3,-1
 273 640 l 1,4,-1
 59 640 l 1,5,-1
 59 700 l 1,6,-1
 345 700 l 1,7,-1
 345 -130 l 1,0,-1
EndSplineSet
EndChar

StartChar: asciicircum
Encoding: 94 94 63
Width: 500
GlyphClass: 1
Flags: W
LayerCount: 2
Fore
SplineSet
65 493 m 1,0,-1
 220 702 l 1,1,-1
 280 702 l 1,2,-1
 435 493 l 1,3,-1
 367 493 l 1,4,-1
 249 647 l 1,5,-1
 131 493 l 1,6,-1
 65 493 l 1,0,-1
EndSplineSet
EndChar

StartChar: underscore
Encoding: 95 95 64
Width: 600
GlyphClass: 1
Flags: W
LayerCount: 2
Fore
SplineSet
602 -160 m 1,0,-1
 -2 -160 l 1,1,-1
 -2 -97 l 1,2,-1
 602 -97 l 1,3,-1
 602 -160 l 1,0,-1
EndSplineSet
EndChar

StartChar: quoteleft
Encoding: 8216 8216 65
Width: 245
GlyphClass: 1
Flags: W
LayerCount: 2
Fore
SplineSet
141 636 m 128,-1,1
 125 615 125 615 127 583 c 1,2,-1
 164 583 l 1,3,-1
 164 478 l 1,4,-1
 72 478 l 1,5,-1
 72 568 l 2,6,7
 72 628 72 628 98 660 c 128,-1,8
 124 692 124 692 182 705 c 1,9,-1
 194 670 l 1,10,0
 157 657 157 657 141 636 c 128,-1,1
EndSplineSet
EndChar

StartChar: a
Encoding: 97 97 66
Width: 579
GlyphClass: 1
Flags: W
LayerCount: 2
Fore
SplineSet
193 446 m 128,-1,1
 156 436 156 436 116 418 c 1,2,-1
 93 481 l 1,3,4
 140 502 140 502 184 513 c 128,-1,5
 228 524 228 524 281 524 c 0,6,7
 387 524 387 524 444 471 c 128,-1,8
 501 418 501 418 501 316 c 2,9,-1
 501 0 l 1,10,-1
 427 0 l 1,11,-1
 427 78 l 1,12,13
 397 38 397 38 350 13.5 c 128,-1,14
 303 -11 303 -11 240 -11 c 0,15,16
 190 -11 190 -11 146 7.5 c 128,-1,17
 102 26 102 26 74.5 62.5 c 128,-1,18
 47 99 47 99 47 151 c 0,19,20
 47 232 47 232 107 275.5 c 128,-1,21
 167 319 167 319 268 319 c 0,22,23
 349 319 349 319 427 297 c 1,24,-1
 427 315 l 2,25,26
 427 384 427 384 387 420 c 128,-1,27
 347 456 347 456 273 456 c 0,28,0
 230 456 230 456 193 446 c 128,-1,1
164.5 233 m 128,-1,30
 125 204 125 204 125 154 c 0,31,32
 125 106 125 106 162.5 78 c 128,-1,33
 200 50 200 50 255 50 c 0,34,35
 302 50 302 50 342 68 c 128,-1,36
 382 86 382 86 405 118 c 128,-1,37
 428 150 428 150 428 190 c 2,38,-1
 428 240 l 1,39,40
 352 262 352 262 276 262 c 0,41,29
 204 262 204 262 164.5 233 c 128,-1,30
EndSplineSet
EndChar

StartChar: b
Encoding: 98 98 67
Width: 664
GlyphClass: 1
Flags: W
LayerCount: 2
Fore
SplineSet
573 116 m 128,-1,1
 538 55 538 55 481.5 22 c 128,-1,2
 425 -11 425 -11 361 -11 c 0,3,4
 239 -11 239 -11 163 99 c 1,5,-1
 163 0 l 1,6,-1
 86 0 l 1,7,-1
 86 730 l 1,8,-1
 163 730 l 1,9,-1
 163 413 l 1,10,11
 241 528 241 528 361 528 c 0,12,13
 424 528 424 528 481 495.5 c 128,-1,14
 538 463 538 463 573 402 c 128,-1,15
 608 341 608 341 608 259 c 256,16,0
 608 177 608 177 573 116 c 128,-1,1
504.5 363.5 m 128,-1,18
 480 409 480 409 438 434 c 128,-1,19
 396 459 396 459 347 459 c 0,20,21
 299 459 299 459 256 433.5 c 128,-1,22
 213 408 213 408 186.5 362.5 c 128,-1,23
 160 317 160 317 160 259 c 256,24,25
 160 201 160 201 186.5 155 c 128,-1,26
 213 109 213 109 256 83.5 c 128,-1,27
 299 58 299 58 347 58 c 0,28,29
 397 58 397 58 438.5 82 c 128,-1,30
 480 106 480 106 504.5 151.5 c 128,-1,31
 529 197 529 197 529 258 c 0,32,17
 529 318 529 318 504.5 363.5 c 128,-1,18
EndSplineSet
EndChar

StartChar: c
Encoding: 99 99 68
Width: 571
GlyphClass: 1
Flags: W
LayerCount: 2
Fore
SplineSet
437 14 m 128,-1,1
 387 -12 387 -12 319 -12 c 0,2,3
 245 -12 245 -12 184.5 24.5 c 128,-1,4
 124 61 124 61 89 123 c 128,-1,5
 54 185 54 185 54 257 c 0,6,7
 54 330 54 330 89 392 c 128,-1,8
 124 454 124 454 184.5 491 c 128,-1,9
 245 528 245 528 319 528 c 0,10,11
 387 528 387 528 436 503.5 c 128,-1,12
 485 479 485 479 526 436 c 1,13,-1
 475 382 l 1,14,15
 439 419 439 419 402.5 439.5 c 128,-1,16
 366 460 366 460 318 460 c 0,17,18
 266 460 266 460 224 433 c 128,-1,19
 182 406 182 406 157.5 360 c 128,-1,20
 133 314 133 314 133 259 c 0,21,22
 133 203 133 203 158 157 c 128,-1,23
 183 111 183 111 226.5 84 c 128,-1,24
 270 57 270 57 323 57 c 0,25,26
 409 57 409 57 481 134 c 1,27,-1
 530 88 l 1,28,0
 487 40 487 40 437 14 c 128,-1,1
EndSplineSet
EndChar

StartChar: d
Encoding: 100 100 69
Width: 664
GlyphClass: 1
Flags: W
LayerCount: 2
Fore
SplineSet
501 104 m 1,0,1
 423 -11 423 -11 303 -11 c 0,2,3
 240 -11 240 -11 183 21.5 c 128,-1,4
 126 54 126 54 91 115 c 128,-1,5
 56 176 56 176 56 258 c 256,6,7
 56 340 56 340 91 401 c 128,-1,8
 126 462 126 462 183 495 c 128,-1,9
 240 528 240 528 303 528 c 0,10,11
 425 528 425 528 501 418 c 1,12,-1
 501 730 l 1,13,-1
 578 730 l 1,14,-1
 578 0 l 1,15,-1
 501 0 l 1,16,-1
 501 104 l 1,0,1
477.5 362.5 m 128,-1,18
 451 408 451 408 408 433.5 c 128,-1,19
 365 459 365 459 317 459 c 0,20,21
 267 459 267 459 225.5 435 c 128,-1,22
 184 411 184 411 159.5 365.5 c 128,-1,23
 135 320 135 320 135 259 c 0,24,25
 135 199 135 199 159.5 153.5 c 128,-1,26
 184 108 184 108 226 83 c 128,-1,27
 268 58 268 58 317 58 c 0,28,29
 365 58 365 58 408 83.5 c 128,-1,30
 451 109 451 109 477.5 155 c 128,-1,31
 504 201 504 201 504 259 c 256,32,17
 504 317 504 317 477.5 362.5 c 128,-1,18
EndSplineSet
EndChar

StartChar: e
Encoding: 101 101 70
Width: 592
GlyphClass: 1
Flags: W
LayerCount: 2
Fore
SplineSet
191.5 102 m 128,-1,1
 243 55 243 55 314 55 c 0,2,3
 365 55 365 55 404 74 c 128,-1,4
 443 93 443 93 477 128 c 1,5,-1
 525 85 l 1,6,7
 483 38 483 38 432 13 c 128,-1,8
 381 -12 381 -12 312 -12 c 0,9,10
 241 -12 241 -12 182 22 c 128,-1,11
 123 56 123 56 88.5 117.5 c 128,-1,12
 54 179 54 179 54 258 c 0,13,14
 54 332 54 332 86 394 c 128,-1,15
 118 456 118 456 175 492 c 128,-1,16
 232 528 232 528 302 528 c 0,17,18
 376 528 376 528 431 492 c 128,-1,19
 486 456 486 456 514.5 393.5 c 128,-1,20
 543 331 543 331 543 254 c 0,21,22
 543 239 543 239 542 230 c 1,23,-1
 132 230 l 1,24,0
 140 149 140 149 191.5 102 c 128,-1,1
416 413 m 128,-1,26
 373 463 373 463 300 463 c 0,27,28
 233 463 233 463 186.5 413 c 128,-1,29
 140 363 140 363 132 287 c 1,30,-1
 465 287 l 1,31,25
 459 363 459 363 416 413 c 128,-1,26
EndSplineSet
EndChar

StartChar: f
Encoding: 102 102 71
Width: 367
GlyphClass: 1
Flags: W
LayerCount: 2
Fore
SplineSet
355 449 m 1,0,-1
 192 449 l 1,1,-1
 192 0 l 1,2,-1
 115 0 l 1,3,-1
 115 449 l 1,4,-1
 44 449 l 1,5,-1
 44 516 l 1,6,-1
 115 516 l 1,7,-1
 115 561 l 2,8,9
 115 645 115 645 155.5 689.5 c 128,-1,10
 196 734 196 734 271 734 c 0,11,12
 320 734 320 734 356 721 c 1,13,-1
 356 654 l 1,14,15
 310 667 310 667 281 667 c 0,16,17
 191 667 191 667 191 557 c 2,18,-1
 191 515 l 1,19,-1
 355 515 l 1,20,-1
 355 449 l 1,0,-1
EndSplineSet
EndChar

StartChar: g
Encoding: 103 103 72
Width: 664
GlyphClass: 1
Flags: W
LayerCount: 2
Fore
SplineSet
507.5 -97.5 m 128,-1,1
 437 -162 437 -162 315 -162 c 0,2,3
 184 -162 184 -162 80 -90 c 1,4,-1
 115 -30 l 1,5,6
 206 -96 206 -96 314 -96 c 0,7,8
 401 -96 401 -96 451.5 -48.5 c 128,-1,9
 502 -1 502 -1 502 88 c 2,10,-1
 502 149 l 1,11,12
 420 40 420 40 299 40 c 0,13,14
 236 40 236 40 180 70 c 128,-1,15
 124 100 124 100 90 155 c 128,-1,16
 56 210 56 210 56 283 c 256,17,18
 56 356 56 356 90.5 412 c 128,-1,19
 125 468 125 468 181 498 c 128,-1,20
 237 528 237 528 299 528 c 0,21,22
 423 528 423 528 501 424 c 1,23,-1
 501 517 l 1,24,-1
 578 517 l 1,25,-1
 578 90 l 2,26,0
 578 -33 578 -33 507.5 -97.5 c 128,-1,1
477.5 376 m 128,-1,28
 451 416 451 416 407 438 c 128,-1,29
 363 460 363 460 314 460 c 256,30,31
 265 460 265 460 224 438.5 c 128,-1,32
 183 417 183 417 159 377.5 c 128,-1,33
 135 338 135 338 135 285 c 0,34,35
 135 233 135 233 159.5 193 c 128,-1,36
 184 153 184 153 225 130.5 c 128,-1,37
 266 108 266 108 314 108 c 0,38,39
 363 108 363 108 407 130 c 128,-1,40
 451 152 451 152 477.5 192.5 c 128,-1,41
 504 233 504 233 504 284 c 0,42,27
 504 336 504 336 477.5 376 c 128,-1,28
EndSplineSet
EndChar

StartChar: h
Encoding: 104 104 73
Width: 616
GlyphClass: 1
Flags: W
LayerCount: 2
Fore
SplineSet
86 0 m 1,0,-1
 86 730 l 1,1,-1
 163 730 l 1,2,-1
 163 427 l 1,3,4
 224 528 224 528 340 528 c 0,5,6
 432 528 432 528 485 471.5 c 128,-1,7
 538 415 538 415 538 321 c 2,8,-1
 538 0 l 1,9,-1
 461 0 l 1,10,-1
 461 302 l 2,11,12
 461 375 461 375 423.5 416.5 c 128,-1,13
 386 458 386 458 318 458 c 0,14,15
 251 458 251 458 207 413 c 128,-1,16
 163 368 163 368 163 296 c 2,17,-1
 163 0 l 1,18,-1
 86 0 l 1,0,-1
EndSplineSet
EndChar

StartChar: i
Encoding: 105 105 74
Width: 263
GlyphClass: 1
Flags: W
LayerCount: 2
Fore
SplineSet
88 715 m 1,0,-1
 176 715 l 1,1,-1
 176 630 l 1,2,-1
 88 630 l 1,3,-1
 88 715 l 1,0,-1
93 517 m 1,4,-1
 170 517 l 1,5,-1
 170 0 l 1,6,-1
 93 0 l 1,7,-1
 93 517 l 1,4,-1
EndSplineSet
EndChar

StartChar: j
Encoding: 106 106 75
Width: 263
GlyphClass: 1
Flags: W
LayerCount: 2
Fore
SplineSet
88 715 m 1,0,-1
 176 715 l 1,1,-1
 176 630 l 1,2,-1
 88 630 l 1,3,-1
 88 715 l 1,0,-1
170 -30 m 2,4,5
 170 -97 170 -97 137 -130 c 128,-1,6
 104 -163 104 -163 44 -163 c 0,7,8
 17 -163 17 -163 -4 -158 c 1,9,-1
 -4 -95 l 1,10,11
 14 -98 14 -98 34 -98 c 0,12,13
 61 -98 61 -98 77 -81 c 128,-1,14
 93 -64 93 -64 93 -29 c 2,15,-1
 93 517 l 1,16,-1
 170 517 l 1,17,-1
 170 -30 l 2,4,5
EndSplineSet
EndChar

StartChar: k
Encoding: 107 107 76
Width: 569
GlyphClass: 1
Flags: W
LayerCount: 2
Fore
SplineSet
453 0 m 1,0,-1
 268 241 l 1,1,-1
 163 135 l 1,2,-1
 163 0 l 1,3,-1
 86 0 l 1,4,-1
 86 730 l 1,5,-1
 163 730 l 1,6,-1
 163 226 l 1,7,-1
 442 517 l 1,8,-1
 538 517 l 1,9,-1
 321 295 l 1,10,-1
 545 0 l 1,11,-1
 453 0 l 1,0,-1
EndSplineSet
EndChar

StartChar: l
Encoding: 108 108 77
Width: 263
GlyphClass: 1
Flags: W
LayerCount: 2
Fore
SplineSet
93 730 m 1,0,-1
 170 730 l 1,1,-1
 170 0 l 1,2,-1
 93 0 l 1,3,-1
 93 730 l 1,0,-1
EndSplineSet
EndChar

StartChar: m
Encoding: 109 109 78
Width: 951
GlyphClass: 1
Flags: W
LayerCount: 2
Fore
SplineSet
678 528 m 0,1,2
 767 528 767 528 818.5 472 c 128,-1,3
 870 416 870 416 870 320 c 2,4,-1
 870 0 l 1,5,-1
 793 0 l 1,6,-1
 793 302 l 2,7,8
 793 377 793 377 757.5 417.5 c 128,-1,9
 722 458 722 458 659 458 c 0,10,11
 598 458 598 458 557 415 c 128,-1,12
 516 372 516 372 516 298 c 2,13,-1
 516 0 l 1,14,-1
 440 0 l 1,15,-1
 440 304 l 2,16,17
 440 376 440 376 404.5 417 c 128,-1,18
 369 458 369 458 307 458 c 0,19,20
 266 458 266 458 233.5 437 c 128,-1,21
 201 416 201 416 182 379 c 128,-1,22
 163 342 163 342 163 295 c 2,23,-1
 163 0 l 1,24,-1
 86 0 l 1,25,-1
 86 517 l 1,26,-1
 163 517 l 1,27,-1
 163 430 l 1,28,29
 193 475 193 475 232 501.5 c 128,-1,30
 271 528 271 528 330 528 c 0,31,32
 390 528 390 528 431.5 500 c 128,-1,33
 473 472 473 472 496 425 c 1,34,0
 563 528 563 528 678 528 c 0,1,2
EndSplineSet
EndChar

StartChar: n
Encoding: 110 110 79
Width: 616
GlyphClass: 1
Flags: W
LayerCount: 2
Fore
SplineSet
86 0 m 1,0,-1
 86 517 l 1,1,-1
 163 517 l 1,2,-1
 163 427 l 1,3,4
 224 528 224 528 340 528 c 0,5,6
 432 528 432 528 485 471.5 c 128,-1,7
 538 415 538 415 538 321 c 2,8,-1
 538 0 l 1,9,-1
 461 0 l 1,10,-1
 461 302 l 2,11,12
 461 375 461 375 423.5 416.5 c 128,-1,13
 386 458 386 458 318 458 c 0,14,15
 251 458 251 458 207 413 c 128,-1,16
 163 368 163 368 163 296 c 2,17,-1
 163 0 l 1,18,-1
 86 0 l 1,0,-1
EndSplineSet
EndChar

StartChar: o
Encoding: 111 111 80
Width: 646
GlyphClass: 1
Flags: W
LayerCount: 2
Fore
SplineSet
557.5 124 m 128,-1,1
 522 62 522 62 460 25 c 128,-1,2
 398 -12 398 -12 322 -12 c 256,3,4
 246 -12 246 -12 185 24.5 c 128,-1,5
 124 61 124 61 89 122.5 c 128,-1,6
 54 184 54 184 54 257 c 256,7,8
 54 330 54 330 89 392 c 128,-1,9
 124 454 124 454 186 491 c 128,-1,10
 248 528 248 528 324 528 c 256,11,12
 400 528 400 528 461.5 491.5 c 128,-1,13
 523 455 523 455 558 393.5 c 128,-1,14
 593 332 593 332 593 259 c 256,15,0
 593 186 593 186 557.5 124 c 128,-1,1
488.5 359.5 m 128,-1,17
 463 406 463 406 419.5 433 c 128,-1,18
 376 460 376 460 322 460 c 0,19,20
 267 460 267 460 224 433.5 c 128,-1,21
 181 407 181 407 157 361 c 128,-1,22
 133 315 133 315 133 259 c 0,23,24
 133 204 133 204 158 157.5 c 128,-1,25
 183 111 183 111 227 84 c 128,-1,26
 271 57 271 57 324 57 c 0,27,28
 379 57 379 57 422 83.5 c 128,-1,29
 465 110 465 110 489.5 156 c 128,-1,30
 514 202 514 202 514 257 c 0,31,16
 514 313 514 313 488.5 359.5 c 128,-1,17
EndSplineSet
EndChar

StartChar: p
Encoding: 112 112 81
Width: 664
GlyphClass: 1
Flags: W
LayerCount: 2
Fore
SplineSet
573 116 m 128,-1,1
 538 55 538 55 481.5 22 c 128,-1,2
 425 -11 425 -11 361 -11 c 0,3,4
 239 -11 239 -11 163 99 c 1,5,-1
 163 -160 l 1,6,-1
 86 -160 l 1,7,-1
 86 517 l 1,8,-1
 163 517 l 1,9,-1
 163 413 l 1,10,11
 241 528 241 528 361 528 c 0,12,13
 424 528 424 528 481 495.5 c 128,-1,14
 538 463 538 463 573 402 c 128,-1,15
 608 341 608 341 608 259 c 256,16,0
 608 177 608 177 573 116 c 128,-1,1
504.5 363.5 m 128,-1,18
 480 409 480 409 438 434 c 128,-1,19
 396 459 396 459 347 459 c 0,20,21
 299 459 299 459 256 433.5 c 128,-1,22
 213 408 213 408 186.5 362.5 c 128,-1,23
 160 317 160 317 160 259 c 256,24,25
 160 201 160 201 186.5 155 c 128,-1,26
 213 109 213 109 256 83.5 c 128,-1,27
 299 58 299 58 347 58 c 0,28,29
 397 58 397 58 438.5 82 c 128,-1,30
 480 106 480 106 504.5 151.5 c 128,-1,31
 529 197 529 197 529 258 c 0,32,17
 529 318 529 318 504.5 363.5 c 128,-1,18
EndSplineSet
EndChar

StartChar: q
Encoding: 113 113 82
Width: 664
GlyphClass: 1
Flags: W
LayerCount: 2
Fore
SplineSet
501 104 m 1,0,1
 423 -11 423 -11 303 -11 c 0,2,3
 240 -11 240 -11 183 21.5 c 128,-1,4
 126 54 126 54 91 115 c 128,-1,5
 56 176 56 176 56 258 c 256,6,7
 56 340 56 340 91 401 c 128,-1,8
 126 462 126 462 183 495 c 128,-1,9
 240 528 240 528 303 528 c 0,10,11
 425 528 425 528 501 418 c 1,12,-1
 501 517 l 1,13,-1
 578 517 l 1,14,-1
 578 -160 l 1,15,-1
 501 -160 l 1,16,-1
 501 104 l 1,0,1
477.5 362.5 m 128,-1,18
 451 408 451 408 408 433.5 c 128,-1,19
 365 459 365 459 317 459 c 0,20,21
 267 459 267 459 225.5 435 c 128,-1,22
 184 411 184 411 159.5 365.5 c 128,-1,23
 135 320 135 320 135 259 c 0,24,25
 135 199 135 199 159.5 153.5 c 128,-1,26
 184 108 184 108 226 83 c 128,-1,27
 268 58 268 58 317 58 c 0,28,29
 365 58 365 58 408 83.5 c 128,-1,30
 451 109 451 109 477.5 155 c 128,-1,31
 504 201 504 201 504 259 c 256,32,17
 504 317 504 317 477.5 362.5 c 128,-1,18
EndSplineSet
EndChar

StartChar: r
Encoding: 114 114 83
Width: 405
GlyphClass: 1
Flags: W
LayerCount: 2
Fore
SplineSet
86 0 m 1,0,-1
 86 517 l 1,1,-1
 163 517 l 1,2,-1
 163 382 l 1,3,4
 193 449 193 449 248 489 c 128,-1,5
 303 529 303 529 374 526 c 1,6,-1
 374 443 l 1,7,-1
 368 443 l 2,8,9
 310 443 310 443 263.5 416 c 128,-1,10
 217 389 217 389 190 335.5 c 128,-1,11
 163 282 163 282 163 206 c 2,12,-1
 163 0 l 1,13,-1
 86 0 l 1,0,-1
EndSplineSet
EndChar

StartChar: s
Encoding: 115 115 84
Width: 498
GlyphClass: 1
Flags: W
LayerCount: 2
Fore
SplineSet
389 31.5 m 128,-1,1
 337 -10 337 -10 257 -10 c 0,2,3
 201 -10 201 -10 143.5 10.5 c 128,-1,4
 86 31 86 31 43 66 c 1,5,-1
 82 121 l 1,6,7
 170 55 170 55 261 55 c 0,8,9
 308 55 308 55 338 77.5 c 128,-1,10
 368 100 368 100 368 137 c 2,11,-1
 368 139 l 2,12,13
 368 174 368 174 335.5 193 c 128,-1,14
 303 212 303 212 239 230 c 0,15,16
 186 245 186 245 151 260.5 c 128,-1,17
 116 276 116 276 92 304 c 128,-1,18
 68 332 68 332 68 376 c 2,19,-1
 68 378 l 2,20,21
 68 444 68 444 117.5 485 c 128,-1,22
 167 526 167 526 244 526 c 0,23,24
 291 526 291 526 340.5 510.5 c 128,-1,25
 390 495 390 495 430 469 c 1,26,-1
 395 411 l 1,27,28
 358 435 358 435 318.5 448 c 128,-1,29
 279 461 279 461 242 461 c 0,30,31
 197 461 197 461 169.5 440 c 128,-1,32
 142 419 142 419 142 386 c 2,33,-1
 142 384 l 2,34,35
 142 351 142 351 174.5 333.5 c 128,-1,36
 207 316 207 316 275 295 c 0,37,38
 326 280 326 280 360.5 263.5 c 128,-1,39
 395 247 395 247 418 218.5 c 128,-1,40
 441 190 441 190 441 147 c 2,41,-1
 441 145 l 2,42,0
 441 73 441 73 389 31.5 c 128,-1,1
EndSplineSet
EndChar

StartChar: t
Encoding: 116 116 85
Width: 404
GlyphClass: 1
Flags: W
LayerCount: 2
Fore
SplineSet
277 61 m 0,1,2
 315 61 315 61 352 79 c 1,3,-1
 352 13 l 1,4,5
 310 -9 310 -9 259 -9 c 0,6,7
 192 -9 192 -9 152.5 26.5 c 128,-1,8
 113 62 113 62 113 137 c 2,9,-1
 113 449 l 1,10,-1
 41 449 l 1,11,-1
 41 517 l 1,12,-1
 113 517 l 1,13,-1
 113 673 l 1,14,-1
 190 673 l 1,15,-1
 190 517 l 1,16,-1
 354 517 l 1,17,-1
 354 449 l 1,18,-1
 190 449 l 1,19,-1
 190 147 l 2,20,0
 190 61 190 61 277 61 c 0,1,2
EndSplineSet
EndChar

StartChar: u
Encoding: 117 117 86
Width: 616
GlyphClass: 1
Flags: W
LayerCount: 2
Fore
SplineSet
529 517 m 1,0,-1
 529 0 l 1,1,-1
 453 0 l 1,2,-1
 453 90 l 1,3,4
 390 -11 390 -11 276 -11 c 0,5,6
 184 -11 184 -11 131 45.5 c 128,-1,7
 78 102 78 102 78 196 c 2,8,-1
 78 517 l 1,9,-1
 155 517 l 1,10,-1
 155 215 l 2,11,12
 155 142 155 142 192.5 100.5 c 128,-1,13
 230 59 230 59 298 59 c 0,14,15
 342 59 342 59 377 79.5 c 128,-1,16
 412 100 412 100 432.5 136.5 c 128,-1,17
 453 173 453 173 453 221 c 2,18,-1
 453 517 l 1,19,-1
 529 517 l 1,0,-1
EndSplineSet
EndChar

StartChar: v
Encoding: 118 118 87
Width: 587
GlyphClass: 1
Flags: W
LayerCount: 2
Fore
SplineSet
552 517 m 1,0,-1
 327 -4 l 1,1,-1
 259 -4 l 1,2,-1
 35 517 l 1,3,-1
 120 517 l 1,4,-1
 294 88 l 1,5,-1
 469 517 l 1,6,-1
 552 517 l 1,0,-1
EndSplineSet
EndChar

StartChar: w
Encoding: 119 119 88
Width: 861
GlyphClass: 1
Flags: W
LayerCount: 2
Fore
SplineSet
739 517 m 1,0,-1
 819 517 l 1,1,-1
 637 -4 l 1,2,-1
 570 -4 l 1,3,-1
 431 404 l 1,4,-1
 291 -4 l 1,5,-1
 223 -4 l 1,6,-1
 42 517 l 1,7,-1
 124 517 l 1,8,-1
 260 102 l 1,9,-1
 399 519 l 1,10,-1
 463 519 l 1,11,-1
 603 102 l 1,12,-1
 739 517 l 1,0,-1
EndSplineSet
EndChar

StartChar: x
Encoding: 120 120 89
Width: 574
GlyphClass: 1
Flags: W
LayerCount: 2
Fore
SplineSet
446 0 m 1,0,-1
 286 211 l 1,1,-1
 125 0 l 1,2,-1
 39 0 l 1,3,-1
 242 263 l 1,4,-1
 47 517 l 1,5,-1
 135 517 l 1,6,-1
 288 317 l 1,7,-1
 441 517 l 1,8,-1
 527 517 l 1,9,-1
 331 265 l 1,10,-1
 535 0 l 1,11,-1
 446 0 l 1,0,-1
EndSplineSet
EndChar

StartChar: y
Encoding: 121 121 90
Width: 591
GlyphClass: 1
Flags: W
LayerCount: 2
Fore
SplineSet
265 -129.5 m 128,-1,1
 225 -163 225 -163 166 -163 c 0,2,3
 135 -163 135 -163 109 -156.5 c 128,-1,4
 83 -150 83 -150 56 -137 c 1,5,-1
 82 -76 l 1,6,7
 119 -95 119 -95 163 -95 c 0,8,9
 198 -95 198 -95 222 -73.5 c 128,-1,10
 246 -52 246 -52 269 2 c 1,11,-1
 34 517 l 1,12,-1
 119 517 l 1,13,-1
 307 86 l 1,14,-1
 473 517 l 1,15,-1
 555 517 l 1,16,-1
 338 -17 l 2,17,0
 305 -96 305 -96 265 -129.5 c 128,-1,1
EndSplineSet
EndChar

StartChar: z
Encoding: 122 122 91
Width: 556
GlyphClass: 1
Flags: W
LayerCount: 2
Fore
SplineSet
68 517 m 1,0,-1
 504 517 l 1,1,-1
 504 468 l 1,2,-1
 160 65 l 1,3,-1
 504 65 l 1,4,-1
 504 0 l 1,5,-1
 56 0 l 1,6,-1
 56 49 l 1,7,-1
 399 452 l 1,8,-1
 68 452 l 1,9,-1
 68 517 l 1,0,-1
EndSplineSet
EndChar

StartChar: braceleft
Encoding: 123 123 92
Width: 483
GlyphClass: 1
Flags: W
LayerCount: 2
Fore
SplineSet
325.5 626.5 m 128,-1,1
 293 607 293 607 282.5 579.5 c 128,-1,2
 272 552 272 552 272 503 c 2,3,-1
 273 428 l 2,4,5
 273 368 273 368 246.5 335.5 c 128,-1,6
 220 303 220 303 169 287 c 1,7,8
 222 270 222 270 247.5 238 c 128,-1,9
 273 206 273 206 273 146 c 2,10,-1
 272 71 l 2,11,12
 272 22 272 22 282.5 -5.5 c 128,-1,13
 293 -33 293 -33 325.5 -52.5 c 128,-1,14
 358 -72 358 -72 428 -90 c 1,15,-1
 416 -141 l 1,16,17
 329 -125 329 -125 281.5 -98 c 128,-1,18
 234 -71 234 -71 216.5 -33 c 128,-1,19
 199 5 199 5 199 61 c 2,20,-1
 200 137 l 2,21,22
 200 198 200 198 173.5 227.5 c 128,-1,23
 147 257 147 257 82 257 c 2,24,-1
 56 257 l 1,25,-1
 56 317 l 1,26,-1
 82 317 l 2,27,28
 147 317 147 317 173.5 346.5 c 128,-1,29
 200 376 200 376 200 437 c 2,30,-1
 199 513 l 2,31,32
 199 569 199 569 216.5 607 c 128,-1,33
 234 645 234 645 281.5 672 c 128,-1,34
 329 699 329 699 416 715 c 1,35,-1
 428 664 l 1,36,0
 358 646 358 646 325.5 626.5 c 128,-1,1
EndSplineSet
EndChar

StartChar: bar
Encoding: 124 124 93
Width: 303
GlyphClass: 1
Flags: W
LayerCount: 2
Fore
SplineSet
119 798 m 1,0,-1
 184 798 l 1,1,-1
 184 -128 l 1,2,-1
 119 -128 l 1,3,-1
 119 798 l 1,0,-1
EndSplineSet
EndChar

StartChar: braceright
Encoding: 125 125 94
Width: 483
GlyphClass: 1
Flags: W
LayerCount: 2
Fore
SplineSet
157 -52.5 m 128,-1,1
 190 -33 190 -33 200.5 -5.5 c 128,-1,2
 211 22 211 22 211 71 c 2,3,-1
 210 146 l 2,4,5
 210 206 210 206 236.5 238.5 c 128,-1,6
 263 271 263 271 314 287 c 1,7,8
 261 304 261 304 235.5 336 c 128,-1,9
 210 368 210 368 210 428 c 2,10,-1
 211 503 l 2,11,12
 211 552 211 552 200.5 579.5 c 128,-1,13
 190 607 190 607 157 626.5 c 128,-1,14
 124 646 124 646 54 664 c 1,15,-1
 67 715 l 1,16,17
 154 699 154 699 201.5 672 c 128,-1,18
 249 645 249 645 266.5 607 c 128,-1,19
 284 569 284 569 284 513 c 2,20,-1
 283 437 l 2,21,22
 283 376 283 376 309.5 346.5 c 128,-1,23
 336 317 336 317 400 317 c 2,24,-1
 426 317 l 1,25,-1
 426 257 l 1,26,-1
 400 257 l 2,27,28
 336 257 336 257 309.5 227.5 c 128,-1,29
 283 198 283 198 283 137 c 2,30,-1
 284 61 l 2,31,32
 284 5 284 5 266.5 -33 c 128,-1,33
 249 -71 249 -71 201.5 -98 c 128,-1,34
 154 -125 154 -125 67 -141 c 1,35,-1
 54 -90 l 1,36,0
 124 -72 124 -72 157 -52.5 c 128,-1,1
EndSplineSet
EndChar

StartChar: asciitilde
Encoding: 126 126 95
Width: 473
GlyphClass: 1
Flags: W
LayerCount: 2
Fore
SplineSet
363.5 270.5 m 128,-1,1
 342 246 342 246 306 246 c 0,2,3
 290 246 290 246 273 252 c 128,-1,4
 256 258 256 258 230 269 c 0,5,6
 227 270 227 270 206.5 278.5 c 128,-1,7
 186 287 186 287 172 287 c 0,8,9
 153 287 153 287 142.5 276.5 c 128,-1,10
 132 266 132 266 120 237 c 1,11,-1
 73 250 l 1,12,13
 88 307 88 307 110 331.5 c 128,-1,14
 132 356 132 356 168 356 c 0,15,16
 194 356 194 356 242 334 c 0,17,18
 259 327 259 327 275 321 c 128,-1,19
 291 315 291 315 302 315 c 0,20,21
 321 315 321 315 331.5 325.5 c 128,-1,22
 342 336 342 336 354 365 c 1,23,-1
 400 352 l 1,24,0
 385 295 385 295 363.5 270.5 c 128,-1,1
EndSplineSet
EndChar

StartChar: exclamdown
Encoding: 161 161 96
Width: 271
GlyphClass: 1
Flags: W
LayerCount: 2
Fore
SplineSet
182 595 m 1,0,-1
 90 595 l 1,1,-1
 90 700 l 1,2,-1
 182 700 l 1,3,-1
 182 595 l 1,0,-1
91 57 m 1,4,-1
 114 502 l 1,5,-1
 157 502 l 1,6,-1
 181 57 l 1,7,-1
 181 0 l 1,8,-1
 91 0 l 1,9,-1
 91 57 l 1,4,-1
EndSplineSet
EndChar

StartChar: cent
Encoding: 162 162 97
Width: 581
GlyphClass: 1
Flags: W
LayerCount: 2
Fore
SplineSet
440 111.5 m 128,-1,1
 390 85 390 85 324 85 c 0,2,3
 305 85 305 85 295 87 c 1,4,-1
 277 -6 l 1,5,-1
 212 -6 l 1,6,-1
 234 100 l 1,7,8
 156 128 156 128 107 198 c 128,-1,9
 58 268 58 268 58 354 c 0,10,11
 58 427 58 427 93 489 c 128,-1,12
 128 551 128 551 189 588 c 128,-1,13
 250 625 250 625 323 625 c 2,14,-1
 336 625 l 1,15,-1
 351 706 l 1,16,-1
 416 706 l 1,17,-1
 398 616 l 1,18,19
 438 606 438 606 469.5 585 c 128,-1,20
 501 564 501 564 530 532 c 1,21,-1
 480 480 l 1,22,23
 454 506 454 506 431.5 522.5 c 128,-1,24
 409 539 409 539 381 547 c 1,25,-1
 306 156 l 1,26,27
 322 154 322 154 331 154 c 0,28,29
 415 155 415 155 485 231 c 1,30,-1
 533 186 l 1,31,0
 490 138 490 138 440 111.5 c 128,-1,1
319 556 m 2,32,33
 268 556 268 556 226 529 c 128,-1,34
 184 502 184 502 160 456.5 c 128,-1,35
 136 411 136 411 136 356 c 0,36,37
 136 294 136 294 167.5 244 c 128,-1,38
 199 194 199 194 251 170 c 1,39,-1
 325 556 l 1,40,-1
 319 556 l 2,32,33
EndSplineSet
EndChar

StartChar: sterling
Encoding: 163 163 98
Width: 644
GlyphClass: 1
Flags: W
LayerCount: 2
Fore
SplineSet
209.5 645 m 128,-1,1
 268 710 268 710 372 710 c 0,2,3
 446 710 446 710 496 681.5 c 128,-1,4
 546 653 546 653 586 602 c 1,5,-1
 525 554 l 1,6,7
 492 595 492 595 457 616 c 128,-1,8
 422 637 422 637 371 637 c 0,9,10
 304 637 304 637 267 593 c 128,-1,11
 230 549 230 549 230 472 c 2,12,-1
 230 364 l 1,13,-1
 509 364 l 1,14,-1
 509 295 l 1,15,-1
 230 295 l 1,16,-1
 230 70 l 1,17,-1
 585 70 l 1,18,-1
 585 0 l 1,19,-1
 67 0 l 1,20,-1
 67 46 l 1,21,-1
 151 67 l 1,22,-1
 151 295 l 1,23,-1
 67 295 l 1,24,-1
 67 364 l 1,25,-1
 151 364 l 1,26,-1
 151 472 l 2,27,0
 151 580 151 580 209.5 645 c 128,-1,1
EndSplineSet
EndChar

StartChar: fraction
Encoding: 8260 8260 99
Width: 429
GlyphClass: 1
Flags: W
LayerCount: 2
Fore
SplineSet
8 -98 m 1,0,-1
 -68 -98 l 1,1,-1
 399 758 l 1,2,-1
 475 758 l 1,3,-1
 8 -98 l 1,0,-1
EndSplineSet
EndChar

StartChar: yen
Encoding: 165 165 100
Width: 686
GlyphClass: 1
Flags: W
LayerCount: 2
Fore
SplineSet
586 178 m 1,0,-1
 586 116 l 1,1,-1
 381 116 l 1,2,-1
 381 0 l 1,3,-1
 305 0 l 1,4,-1
 305 116 l 1,5,-1
 100 116 l 1,6,-1
 100 178 l 1,7,-1
 305 178 l 1,8,-1
 305 266 l 1,9,-1
 100 266 l 1,10,-1
 100 328 l 1,11,-1
 281 328 l 1,12,-1
 27 700 l 1,13,-1
 121 700 l 1,14,-1
 344 358 l 1,15,-1
 569 700 l 1,16,-1
 659 700 l 1,17,-1
 404 328 l 1,18,-1
 586 328 l 1,19,-1
 586 266 l 1,20,-1
 381 266 l 1,21,-1
 381 178 l 1,22,-1
 586 178 l 1,0,-1
EndSplineSet
EndChar

StartChar: florin
Encoding: 402 402 101
Width: 514
GlyphClass: 1
Flags: W
LayerCount: 2
Fore
SplineSet
409 638 m 0,1,2
 370 638 370 638 349 617 c 128,-1,3
 328 596 328 596 319 548 c 2,4,-1
 299 440 l 1,5,-1
 443 440 l 1,6,-1
 443 373 l 1,7,-1
 287 373 l 1,8,-1
 242 129 l 2,9,10
 229 59 229 59 193 27 c 128,-1,11
 157 -5 157 -5 93 -5 c 0,12,13
 69 -5 69 -5 41 -1 c 1,14,-1
 41 65 l 1,15,16
 60 61 60 61 85 61 c 0,17,18
 150 61 150 61 163 137 c 2,19,-1
 207 373 l 1,20,-1
 109 373 l 1,21,-1
 109 440 l 1,22,-1
 218 440 l 1,23,-1
 241 559 l 2,24,25
 255 635 255 635 292 670 c 128,-1,26
 329 705 329 705 397 705 c 0,27,28
 445 705 445 705 478 694 c 1,29,-1
 478 628 l 1,30,0
 438 638 438 638 409 638 c 0,1,2
EndSplineSet
EndChar

StartChar: section
Encoding: 167 167 102
Width: 632
GlyphClass: 1
Flags: W
LayerCount: 2
Fore
SplineSet
534.5 266 m 128,-1,1
 499 236 499 236 438 226 c 1,2,3
 473 208 473 208 492.5 182 c 128,-1,4
 512 156 512 156 512 124 c 0,5,6
 512 63 512 63 462 26.5 c 128,-1,7
 412 -10 412 -10 328 -10 c 0,8,9
 260 -10 260 -10 201.5 15.5 c 128,-1,10
 143 41 143 41 99 85 c 1,11,-1
 149 133 l 1,12,13
 185 97 185 97 231.5 76.5 c 128,-1,14
 278 56 278 56 330 56 c 0,15,16
 380 56 380 56 406.5 74.5 c 128,-1,17
 433 93 433 93 433 123 c 0,18,19
 433 152 433 152 397.5 173 c 128,-1,20
 362 194 362 194 270 216 c 0,21,22
 156 243 156 243 109 275 c 128,-1,23
 62 307 62 307 62 359 c 0,24,25
 62 404 62 404 97.5 434 c 128,-1,26
 133 464 133 464 194 474 c 1,27,28
 159 492 159 492 139.5 518 c 128,-1,29
 120 544 120 544 120 576 c 0,30,31
 120 637 120 637 170 673.5 c 128,-1,32
 220 710 220 710 304 710 c 0,33,34
 372 710 372 710 430.5 684.5 c 128,-1,35
 489 659 489 659 533 615 c 1,36,-1
 483 567 l 1,37,38
 447 603 447 603 400.5 623.5 c 128,-1,39
 354 644 354 644 302 644 c 0,40,41
 252 644 252 644 225.5 625.5 c 128,-1,42
 199 607 199 607 199 577 c 0,43,44
 199 548 199 548 234.5 527 c 128,-1,45
 270 506 270 506 362 484 c 0,46,47
 476 457 476 457 523 425 c 128,-1,48
 570 393 570 393 570 341 c 0,49,0
 570 296 570 296 534.5 266 c 128,-1,1
464.5 381 m 128,-1,51
 433 402 433 402 354 421 c 0,52,53
 287 437 287 437 245 437 c 0,54,55
 197 437 197 437 166.5 416.5 c 128,-1,56
 136 396 136 396 136 367 c 0,57,58
 136 340 136 340 167.5 319 c 128,-1,59
 199 298 199 298 278 279 c 0,60,61
 343 263 343 263 387 263 c 0,62,63
 435 263 435 263 465.5 283.5 c 128,-1,64
 496 304 496 304 496 333 c 0,65,50
 496 360 496 360 464.5 381 c 128,-1,51
EndSplineSet
EndChar

StartChar: currency
Encoding: 164 164 103
Width: 720
GlyphClass: 1
Flags: W
LayerCount: 2
Fore
SplineSet
56 470 m 1,0,-1
 150 470 l 1,1,2
 179 578 179 578 252.5 645 c 128,-1,3
 326 712 326 712 425 712 c 0,4,5
 508 712 508 712 565 676 c 128,-1,6
 622 640 622 640 666 575 c 1,7,-1
 606 532 l 1,8,9
 566 588 566 588 524.5 614.5 c 128,-1,10
 483 641 483 641 422 641 c 0,11,12
 357 641 357 641 306 594 c 128,-1,13
 255 547 255 547 231 470 c 1,14,-1
 488 470 l 1,15,-1
 488 408 l 1,16,-1
 218 408 l 1,17,18
 214 384 214 384 214 351 c 0,19,20
 214 334 214 334 216 300 c 1,21,-1
 488 300 l 1,22,-1
 488 237 l 1,23,-1
 229 237 l 1,24,25
 251 156 251 156 305.5 107.5 c 128,-1,26
 360 59 360 59 433 59 c 0,27,28
 489 59 489 59 530.5 88 c 128,-1,29
 572 117 572 117 611 174 c 1,30,-1
 668 134 l 1,31,32
 622 65 622 65 565.5 26.5 c 128,-1,33
 509 -12 509 -12 430 -12 c 0,34,35
 325 -12 325 -12 249.5 56 c 128,-1,36
 174 124 174 124 147 237 c 1,37,-1
 56 237 l 1,38,-1
 56 300 l 1,39,-1
 137 300 l 1,40,41
 135 316 135 316 135 349 c 0,42,43
 135 383 135 383 139 408 c 1,44,-1
 56 408 l 1,45,-1
 56 470 l 1,0,-1
EndSplineSet
EndChar

StartChar: quotesingle
Encoding: 39 39 104
Width: 245
GlyphClass: 1
Flags: W
LayerCount: 2
Fore
SplineSet
189 700 m 1,0,-1
 189 695 l 1,1,-1
 108 428 l 1,2,-1
 65 428 l 1,3,-1
 95 700 l 1,4,-1
 189 700 l 1,0,-1
EndSplineSet
EndChar

StartChar: quotedblleft
Encoding: 8220 8220 105
Width: 445
GlyphClass: 1
Flags: W
LayerCount: 2
Fore
SplineSet
141 636 m 128,-1,1
 125 615 125 615 127 583 c 1,2,-1
 164 583 l 1,3,-1
 164 478 l 1,4,-1
 72 478 l 1,5,-1
 72 568 l 2,6,7
 72 628 72 628 98 660 c 128,-1,8
 124 692 124 692 182 705 c 1,9,-1
 194 670 l 1,10,0
 157 657 157 657 141 636 c 128,-1,1
341 636 m 128,-1,12
 325 615 325 615 327 583 c 1,13,-1
 363 583 l 1,14,-1
 363 478 l 1,15,-1
 272 478 l 1,16,-1
 272 568 l 2,17,18
 272 628 272 628 298 660 c 128,-1,19
 324 692 324 692 382 705 c 1,20,-1
 394 670 l 1,21,11
 357 657 357 657 341 636 c 128,-1,12
EndSplineSet
EndChar

StartChar: guillemotleft
Encoding: 171 171 106
Width: 550
GlyphClass: 1
Flags: W
LayerCount: 2
Fore
SplineSet
134 260 m 1,0,-1
 269 75 l 1,1,-1
 210 41 l 1,2,-1
 48 255 l 1,3,-1
 48 263 l 1,4,-1
 210 476 l 1,5,-1
 269 443 l 1,6,-1
 134 260 l 1,0,-1
356 260 m 1,7,-1
 491 75 l 1,8,-1
 433 41 l 1,9,-1
 271 255 l 1,10,-1
 271 263 l 1,11,-1
 433 476 l 1,12,-1
 491 443 l 1,13,-1
 356 260 l 1,7,-1
EndSplineSet
EndChar

StartChar: guilsinglleft
Encoding: 8249 8249 107
Width: 328
GlyphClass: 1
Flags: W
LayerCount: 2
Fore
SplineSet
134 260 m 1,0,-1
 269 75 l 1,1,-1
 210 41 l 1,2,-1
 48 255 l 1,3,-1
 48 263 l 1,4,-1
 210 476 l 1,5,-1
 269 443 l 1,6,-1
 134 260 l 1,0,-1
EndSplineSet
EndChar

StartChar: guilsinglright
Encoding: 8250 8250 108
Width: 328
GlyphClass: 1
Flags: W
LayerCount: 2
Fore
SplineSet
194 258 m 1,0,-1
 59 442 l 1,1,-1
 117 476 l 1,2,-1
 279 263 l 1,3,-1
 279 255 l 1,4,-1
 117 41 l 1,5,-1
 59 74 l 1,6,-1
 194 258 l 1,0,-1
EndSplineSet
EndChar

StartChar: fi
Encoding: 64257 64257 109
Width: 631
GlyphClass: 1
Flags: W
LayerCount: 2
Fore
SplineSet
355 449 m 1,0,-1
 192 449 l 1,1,-1
 192 0 l 1,2,-1
 115 0 l 1,3,-1
 115 449 l 1,4,-1
 44 449 l 1,5,-1
 44 516 l 1,6,-1
 115 516 l 1,7,-1
 115 561 l 2,8,9
 115 645 115 645 155.5 689.5 c 128,-1,10
 196 734 196 734 271 734 c 0,11,12
 320 734 320 734 356 721 c 1,13,-1
 356 654 l 1,14,15
 310 667 310 667 281 667 c 0,16,17
 191 667 191 667 191 557 c 2,18,-1
 191 515 l 1,19,-1
 355 515 l 1,20,-1
 355 449 l 1,0,-1
455 715 m 1,21,-1
 543 715 l 1,22,-1
 543 630 l 1,23,-1
 455 630 l 1,24,-1
 455 715 l 1,21,-1
461 517 m 1,25,-1
 537 517 l 1,26,-1
 537 0 l 1,27,-1
 461 0 l 1,28,-1
 461 517 l 1,25,-1
EndSplineSet
EndChar

StartChar: fl
Encoding: 64258 64258 110
Width: 631
GlyphClass: 1
Flags: W
LayerCount: 2
Fore
SplineSet
355 449 m 1,0,-1
 192 449 l 1,1,-1
 192 0 l 1,2,-1
 115 0 l 1,3,-1
 115 449 l 1,4,-1
 44 449 l 1,5,-1
 44 516 l 1,6,-1
 115 516 l 1,7,-1
 115 561 l 2,8,9
 115 645 115 645 155.5 689.5 c 128,-1,10
 196 734 196 734 271 734 c 0,11,12
 320 734 320 734 356 721 c 1,13,-1
 356 654 l 1,14,15
 310 667 310 667 281 667 c 0,16,17
 191 667 191 667 191 557 c 2,18,-1
 191 515 l 1,19,-1
 355 515 l 1,20,-1
 355 449 l 1,0,-1
461 730 m 1,21,-1
 537 730 l 1,22,-1
 537 0 l 1,23,-1
 461 0 l 1,24,-1
 461 730 l 1,21,-1
EndSplineSet
EndChar

StartChar: endash
Encoding: 8211 8211 111
Width: 528
GlyphClass: 1
Flags: W
LayerCount: 2
Fore
SplineSet
65 339 m 1,0,-1
 463 339 l 1,1,-1
 463 262 l 1,2,-1
 65 262 l 1,3,-1
 65 339 l 1,0,-1
EndSplineSet
EndChar

StartChar: dagger
Encoding: 8224 8224 112
Width: 410
GlyphClass: 1
Flags: W
LayerCount: 2
Fore
SplineSet
178 238 m 1,0,-1
 184 520 l 1,1,-1
 60 512 l 1,2,-1
 60 567 l 1,3,-1
 183 559 l 1,4,-1
 174 700 l 1,5,-1
 236 700 l 1,6,-1
 227 559 l 1,7,-1
 350 567 l 1,8,-1
 350 512 l 1,9,-1
 226 520 l 1,10,-1
 232 238 l 1,11,-1
 178 238 l 1,0,-1
EndSplineSet
EndChar

StartChar: daggerdbl
Encoding: 8225 8225 113
Width: 430
GlyphClass: 1
Flags: W
LayerCount: 2
Fore
SplineSet
246 0 m 1,0,-1
 184 0 l 1,1,-1
 193 141 l 1,2,-1
 70 133 l 1,3,-1
 70 188 l 1,4,-1
 194 180 l 1,5,-1
 188 350 l 1,6,-1
 194 520 l 1,7,-1
 70 512 l 1,8,-1
 70 567 l 1,9,-1
 193 559 l 1,10,-1
 184 700 l 1,11,-1
 246 700 l 1,12,-1
 237 559 l 1,13,-1
 360 567 l 1,14,-1
 360 512 l 1,15,-1
 236 520 l 1,16,-1
 242 350 l 1,17,-1
 236 180 l 1,18,-1
 360 188 l 1,19,-1
 360 133 l 1,20,-1
 237 141 l 1,21,-1
 246 0 l 1,0,-1
EndSplineSet
EndChar

StartChar: periodcentered
Encoding: 183 183 114
Width: 245
GlyphClass: 1
Flags: W
LayerCount: 2
Fore
SplineSet
77 353 m 1,0,-1
 169 353 l 1,1,-1
 169 248 l 1,2,-1
 77 248 l 1,3,-1
 77 353 l 1,0,-1
EndSplineSet
EndChar

StartChar: paragraph
Encoding: 182 182 115
Width: 510
GlyphClass: 1
Flags: W
LayerCount: 2
Fore
SplineSet
418 0 m 1,0,-1
 338 0 l 1,1,-1
 338 264 l 1,2,-1
 327 264 l 2,3,4
 247 264 247 264 183.5 289.5 c 128,-1,5
 120 315 120 315 84 364 c 128,-1,6
 48 413 48 413 48 482 c 0,7,8
 48 549 48 549 81 598.5 c 128,-1,9
 114 648 114 648 174 674 c 128,-1,10
 234 700 234 700 312 700 c 2,11,-1
 418 700 l 1,12,-1
 418 0 l 1,0,-1
EndSplineSet
EndChar

StartChar: bullet
Encoding: 8226 8226 116
Width: 478
GlyphClass: 1
Flags: W
LayerCount: 2
Fore
SplineSet
352.5 286.5 m 128,-1,1
 335 256 335 256 304.5 238.5 c 128,-1,2
 274 221 274 221 239 221 c 256,3,4
 204 221 204 221 173.5 238.5 c 128,-1,5
 143 256 143 256 125.5 286.5 c 128,-1,6
 108 317 108 317 108 352 c 256,7,8
 108 387 108 387 125.5 417.5 c 128,-1,9
 143 448 143 448 173.5 465.5 c 128,-1,10
 204 483 204 483 239 483 c 256,11,12
 274 483 274 483 304.5 465.5 c 128,-1,13
 335 448 335 448 352.5 417.5 c 128,-1,14
 370 387 370 387 370 352 c 256,15,0
 370 317 370 317 352.5 286.5 c 128,-1,1
EndSplineSet
EndChar

StartChar: quotesinglbase
Encoding: 8218 8218 117
Width: 245
GlyphClass: 1
Flags: W
LayerCount: 2
Fore
SplineSet
100 -52.5 m 128,-1,1
 116 -32 116 -32 113 0 c 1,2,-1
 77 0 l 1,3,-1
 77 105 l 1,4,-1
 169 105 l 1,5,-1
 169 15 l 2,6,7
 169 -45 169 -45 142.5 -77 c 128,-1,8
 116 -109 116 -109 58 -122 c 1,9,-1
 46 -87 l 1,10,0
 84 -73 84 -73 100 -52.5 c 128,-1,1
EndSplineSet
EndChar

StartChar: quotedblbase
Encoding: 8222 8222 118
Width: 445
GlyphClass: 1
Flags: W
LayerCount: 2
Fore
SplineSet
100 -52.5 m 128,-1,1
 116 -32 116 -32 113 0 c 1,2,-1
 77 0 l 1,3,-1
 77 105 l 1,4,-1
 169 105 l 1,5,-1
 169 15 l 2,6,7
 169 -45 169 -45 142.5 -77 c 128,-1,8
 116 -109 116 -109 58 -122 c 1,9,-1
 46 -87 l 1,10,0
 84 -73 84 -73 100 -52.5 c 128,-1,1
300 -52.5 m 128,-1,12
 316 -32 316 -32 313 0 c 1,13,-1
 277 0 l 1,14,-1
 277 105 l 1,15,-1
 368 105 l 1,16,-1
 368 15 l 2,17,18
 368 -45 368 -45 342 -77 c 128,-1,19
 316 -109 316 -109 258 -122 c 1,20,-1
 246 -87 l 1,21,11
 284 -73 284 -73 300 -52.5 c 128,-1,12
EndSplineSet
EndChar

StartChar: quotedblright
Encoding: 8221 8221 119
Width: 445
GlyphClass: 1
Flags: W
LayerCount: 2
Fore
SplineSet
105 542.5 m 128,-1,1
 121 563 121 563 118 595 c 1,2,-1
 82 595 l 1,3,-1
 82 700 l 1,4,-1
 174 700 l 1,5,-1
 174 610 l 2,6,7
 174 550 174 550 147.5 518 c 128,-1,8
 121 486 121 486 63 473 c 1,9,-1
 51 508 l 1,10,0
 89 522 89 522 105 542.5 c 128,-1,1
305 542.5 m 128,-1,12
 321 563 321 563 318 595 c 1,13,-1
 282 595 l 1,14,-1
 282 700 l 1,15,-1
 373 700 l 1,16,-1
 373 610 l 2,17,18
 373 550 373 550 347 518 c 128,-1,19
 321 486 321 486 263 473 c 1,20,-1
 251 508 l 1,21,11
 289 522 289 522 305 542.5 c 128,-1,12
EndSplineSet
EndChar

StartChar: guillemotright
Encoding: 187 187 120
Width: 550
GlyphClass: 1
Flags: W
LayerCount: 2
Fore
SplineSet
194 258 m 1,0,-1
 59 442 l 1,1,-1
 117 476 l 1,2,-1
 279 263 l 1,3,-1
 279 255 l 1,4,-1
 117 41 l 1,5,-1
 59 74 l 1,6,-1
 194 258 l 1,0,-1
416 258 m 1,7,-1
 281 442 l 1,8,-1
 340 476 l 1,9,-1
 502 263 l 1,10,-1
 502 255 l 1,11,-1
 340 41 l 1,12,-1
 281 74 l 1,13,-1
 416 258 l 1,7,-1
EndSplineSet
EndChar

StartChar: ellipsis
Encoding: 8230 8230 121
Width: 723
GlyphClass: 1
Flags: W
LayerCount: 2
Fore
SplineSet
77 103 m 1,0,-1
 166 103 l 1,1,-1
 166 0 l 1,2,-1
 77 0 l 1,3,-1
 77 103 l 1,0,-1
317 103 m 1,4,-1
 406 103 l 1,5,-1
 406 0 l 1,6,-1
 317 0 l 1,7,-1
 317 103 l 1,4,-1
557 103 m 1,8,-1
 647 103 l 1,9,-1
 647 0 l 1,10,-1
 557 0 l 1,11,-1
 557 103 l 1,8,-1
EndSplineSet
EndChar

StartChar: perthousand
Encoding: 8240 8240 122
Width: 1211
GlyphClass: 1
Flags: W
LayerCount: 2
Fore
SplineSet
349 440.5 m 128,-1,1
 329 399 329 399 292.5 374.5 c 128,-1,2
 256 350 256 350 210 350 c 256,3,4
 164 350 164 350 128 374.5 c 128,-1,5
 92 399 92 399 72 439.5 c 128,-1,6
 52 480 52 480 52 528 c 256,7,8
 52 576 52 576 72 617.5 c 128,-1,9
 92 659 92 659 128.5 683.5 c 128,-1,10
 165 708 165 708 212 708 c 0,11,12
 258 708 258 708 293.5 683.5 c 128,-1,13
 329 659 329 659 349 618.5 c 128,-1,14
 369 578 369 578 369 530 c 256,15,0
 369 482 369 482 349 440.5 c 128,-1,1
196 0 m 1,16,-1
 124 0 l 1,17,-1
 638 700 l 1,18,-1
 709 700 l 1,19,-1
 196 0 l 1,16,-1
276 616.5 m 128,-1,21
 249 652 249 652 210 652 c 0,22,23
 169 652 169 652 144 617 c 128,-1,24
 119 582 119 582 119 530 c 0,25,26
 119 477 119 477 146 441.5 c 128,-1,27
 173 406 173 406 212 406 c 0,28,29
 252 406 252 406 277.5 441 c 128,-1,30
 303 476 303 476 303 528 c 0,31,20
 303 581 303 581 276 616.5 c 128,-1,21
761 82.5 m 128,-1,33
 741 41 741 41 705 16.5 c 128,-1,34
 669 -8 669 -8 622 -8 c 0,35,36
 576 -8 576 -8 540.5 16.5 c 128,-1,37
 505 41 505 41 485 81.5 c 128,-1,38
 465 122 465 122 465 170 c 256,39,40
 465 218 465 218 485 259.5 c 128,-1,41
 505 301 505 301 541.5 325.5 c 128,-1,42
 578 350 578 350 624 350 c 256,43,44
 670 350 670 350 706 325.5 c 128,-1,45
 742 301 742 301 761.5 260.5 c 128,-1,46
 781 220 781 220 781 172 c 256,47,32
 781 124 781 124 761 82.5 c 128,-1,33
1138 82.5 m 128,-1,49
 1118 41 1118 41 1082 16.5 c 128,-1,50
 1046 -8 1046 -8 999 -8 c 0,51,52
 953 -8 953 -8 917.5 16.5 c 128,-1,53
 882 41 882 41 862 81.5 c 128,-1,54
 842 122 842 122 842 170 c 256,55,56
 842 218 842 218 862 259.5 c 128,-1,57
 882 301 882 301 918.5 325.5 c 128,-1,58
 955 350 955 350 1001 350 c 256,59,60
 1047 350 1047 350 1083 325.5 c 128,-1,61
 1119 301 1119 301 1138.5 260.5 c 128,-1,62
 1158 220 1158 220 1158 172 c 256,63,48
 1158 124 1158 124 1138 82.5 c 128,-1,49
688 258.5 m 128,-1,65
 661 294 661 294 622 294 c 0,66,67
 582 294 582 294 556.5 259 c 128,-1,68
 531 224 531 224 531 172 c 0,69,70
 531 119 531 119 558 83.5 c 128,-1,71
 585 48 585 48 624 48 c 0,72,73
 665 48 665 48 690 83 c 128,-1,74
 715 118 715 118 715 170 c 0,75,64
 715 223 715 223 688 258.5 c 128,-1,65
1065 258.5 m 128,-1,77
 1038 294 1038 294 999 294 c 0,78,79
 959 294 959 294 933.5 259 c 128,-1,80
 908 224 908 224 908 172 c 0,81,82
 908 119 908 119 935 83.5 c 128,-1,83
 962 48 962 48 1001 48 c 0,84,85
 1042 48 1042 48 1067 83 c 128,-1,86
 1092 118 1092 118 1092 170 c 0,87,76
 1092 223 1092 223 1065 258.5 c 128,-1,77
EndSplineSet
EndChar

StartChar: questiondown
Encoding: 191 191 123
Width: 537
GlyphClass: 1
Flags: W
LayerCount: 2
Fore
SplineSet
338 595 m 1,0,-1
 246 595 l 1,1,-1
 246 700 l 1,2,-1
 338 700 l 1,3,-1
 338 595 l 1,0,-1
179.5 295.5 m 128,-1,5
 128 258 128 258 128 193 c 0,6,7
 128 137 128 137 168 99.5 c 128,-1,8
 208 62 208 62 274 62 c 0,9,10
 375 62 375 62 455 156 c 1,11,-1
 506 107 l 1,12,13
 460 51 460 51 404 21 c 128,-1,14
 348 -9 348 -9 272 -9 c 0,15,16
 205 -9 205 -9 154.5 16.5 c 128,-1,17
 104 42 104 42 76 87.5 c 128,-1,18
 48 133 48 133 48 190 c 0,19,20
 48 279 48 279 105.5 330 c 128,-1,21
 163 381 163 381 256 394 c 1,22,-1
 265 502 l 1,23,-1
 316 502 l 1,24,-1
 332 340 l 1,25,-1
 327 335 l 1,26,4
 231 333 231 333 179.5 295.5 c 128,-1,5
EndSplineSet
EndChar

StartChar: grave
Encoding: 96 96 124
Width: 500
GlyphClass: 1
Flags: W
LayerCount: 2
Fore
SplineSet
224 740 m 1,0,-1
 319 595 l 1,1,-1
 257 595 l 1,2,-1
 144 703 l 1,3,-1
 224 740 l 1,0,-1
EndSplineSet
EndChar

StartChar: acute
Encoding: 180 180 125
Width: 500
GlyphClass: 1
Flags: W
LayerCount: 2
Fore
SplineSet
276 740 m 1,0,-1
 356 703 l 1,1,-1
 243 595 l 1,2,-1
 181 595 l 1,3,-1
 276 740 l 1,0,-1
EndSplineSet
EndChar

StartChar: circumflex
Encoding: 710 710 126
Width: 500
GlyphClass: 1
Flags: W
LayerCount: 2
Fore
SplineSet
110 595 m 1,0,-1
 216 726 l 1,1,-1
 284 726 l 1,2,-1
 390 595 l 1,3,-1
 324 595 l 1,4,-1
 249 662 l 1,5,-1
 174 595 l 1,6,-1
 110 595 l 1,0,-1
EndSplineSet
EndChar

StartChar: tilde
Encoding: 732 732 127
Width: 500
GlyphClass: 1
Flags: W
LayerCount: 2
Fore
SplineSet
377 619.5 m 128,-1,1
 355 595 355 595 319 595 c 0,2,3
 293 595 293 595 243 617 c 0,4,5
 240 618 240 618 219.5 626.5 c 128,-1,6
 199 635 199 635 185 635 c 0,7,8
 166 635 166 635 155.5 624.5 c 128,-1,9
 145 614 145 614 133 586 c 1,10,-1
 86 599 l 1,11,12
 101 655 101 655 123 679.5 c 128,-1,13
 145 704 145 704 181 704 c 0,14,15
 207 704 207 704 257 682 c 0,16,17
 260 681 260 681 280.5 672.5 c 128,-1,18
 301 664 301 664 315 664 c 0,19,20
 334 664 334 664 344.5 674.5 c 128,-1,21
 355 685 355 685 367 713 c 1,22,-1
 414 700 l 1,23,0
 399 644 399 644 377 619.5 c 128,-1,1
EndSplineSet
EndChar

StartChar: macron
Encoding: 175 175 128
Width: 500
GlyphClass: 1
Flags: W
LayerCount: 2
Fore
SplineSet
92 667 m 1,0,-1
 408 667 l 1,1,-1
 408 600 l 1,2,-1
 92 600 l 1,3,-1
 92 667 l 1,0,-1
EndSplineSet
EndChar

StartChar: breve
Encoding: 728 728 129
Width: 500
GlyphClass: 1
Flags: W
LayerCount: 2
Fore
SplineSet
353.5 628.5 m 128,-1,1
 313 593 313 593 250 593 c 256,2,3
 187 593 187 593 146.5 628.5 c 128,-1,4
 106 664 106 664 102 726 c 1,5,-1
 158 726 l 1,6,7
 178 657 178 657 250 657 c 256,8,9
 322 657 322 657 342 726 c 1,10,-1
 398 726 l 1,11,0
 394 664 394 664 353.5 628.5 c 128,-1,1
EndSplineSet
EndChar

StartChar: dotaccent
Encoding: 729 729 130
Width: 500
GlyphClass: 1
Flags: W
LayerCount: 2
Fore
SplineSet
203 691 m 1,0,-1
 297 691 l 1,1,-1
 297 595 l 1,2,-1
 203 595 l 1,3,-1
 203 691 l 1,0,-1
EndSplineSet
EndChar

StartChar: dieresis
Encoding: 168 168 131
Width: 500
GlyphClass: 1
Flags: W
LayerCount: 2
Fore
SplineSet
117 690 m 1,0,-1
 207 690 l 1,1,-1
 207 595 l 1,2,-1
 117 595 l 1,3,-1
 117 690 l 1,0,-1
293 690 m 1,4,-1
 383 690 l 1,5,-1
 383 595 l 1,6,-1
 293 595 l 1,7,-1
 293 690 l 1,4,-1
EndSplineSet
EndChar

StartChar: ring
Encoding: 730 730 132
Width: 500
GlyphClass: 1
Flags: W
LayerCount: 2
Fore
SplineSet
323 622.5 m 128,-1,1
 292 593 292 593 250 593 c 256,2,3
 208 593 208 593 177 622.5 c 128,-1,4
 146 652 146 652 146 693 c 256,5,6
 146 734 146 734 177 763.5 c 128,-1,7
 208 793 208 793 250 793 c 256,8,9
 292 793 292 793 323 763.5 c 128,-1,10
 354 734 354 734 354 693 c 256,11,0
 354 652 354 652 323 622.5 c 128,-1,1
294 737 m 128,-1,13
 276 755 276 755 250 755 c 0,14,15
 225 755 225 755 206.5 737 c 128,-1,16
 188 719 188 719 188 693 c 0,17,18
 188 668 188 668 206.5 649.5 c 128,-1,19
 225 631 225 631 250 631 c 0,20,21
 276 631 276 631 294 649.5 c 128,-1,22
 312 668 312 668 312 693 c 0,23,12
 312 719 312 719 294 737 c 128,-1,13
EndSplineSet
EndChar

StartChar: cedilla
Encoding: 184 184 133
Width: 500
GlyphClass: 1
Flags: W
LayerCount: 2
Fore
SplineSet
225 -155 m 1,0,-1
 150 -121 l 1,1,-1
 240 10 l 1,2,-1
 301 10 l 1,3,-1
 225 -155 l 1,0,-1
EndSplineSet
EndChar

StartChar: hungarumlaut
Encoding: 733 733 134
Width: 500
GlyphClass: 1
Flags: W
LayerCount: 2
Fore
SplineSet
179 740 m 1,0,-1
 254 703 l 1,1,-1
 146 595 l 1,2,-1
 84 595 l 1,3,-1
 179 740 l 1,0,-1
343 740 m 1,4,-1
 418 703 l 1,5,-1
 309 595 l 1,6,-1
 248 595 l 1,7,-1
 343 740 l 1,4,-1
EndSplineSet
EndChar

StartChar: ogonek
Encoding: 731 731 135
Width: 500
GlyphClass: 1
Flags: W
LayerCount: 2
Fore
SplineSet
251 -41 m 0,1,2
 251 -80 251 -80 277.5 -100 c 128,-1,3
 304 -120 304 -120 360 -123 c 1,4,-1
 360 -164 l 1,5,6
 275 -168 275 -168 229 -138.5 c 128,-1,7
 183 -109 183 -109 183 -56 c 0,8,9
 183 -23 183 -23 197 10 c 1,10,-1
 257 10 l 1,11,0
 251 -16 251 -16 251 -41 c 0,1,2
EndSplineSet
EndChar

StartChar: caron
Encoding: 711 711 136
Width: 500
GlyphClass: 1
Flags: W
LayerCount: 2
Fore
SplineSet
390 726 m 1,0,-1
 284 595 l 1,1,-1
 216 595 l 1,2,-1
 110 726 l 1,3,-1
 176 726 l 1,4,-1
 251 659 l 1,5,-1
 326 726 l 1,6,-1
 390 726 l 1,0,-1
EndSplineSet
EndChar

StartChar: emdash
Encoding: 8212 8212 137
Width: 898
GlyphClass: 1
Flags: W
LayerCount: 2
Fore
SplineSet
65 339 m 1,0,-1
 833 339 l 1,1,-1
 833 262 l 1,2,-1
 65 262 l 1,3,-1
 65 339 l 1,0,-1
EndSplineSet
EndChar

StartChar: AE
Encoding: 198 198 138
Width: 1045
GlyphClass: 1
Flags: W
LayerCount: 2
Fore
SplineSet
17 0 m 1,0,-1
 428 700 l 1,1,-1
 980 700 l 1,2,-1
 980 628 l 1,3,-1
 571 628 l 1,4,-1
 571 389 l 1,5,-1
 935 389 l 1,6,-1
 935 317 l 1,7,-1
 571 317 l 1,8,-1
 571 72 l 1,9,-1
 985 72 l 1,10,-1
 985 0 l 1,11,-1
 491 0 l 1,12,-1
 491 185 l 1,13,-1
 209 185 l 1,14,-1
 100 0 l 1,15,-1
 17 0 l 1,0,-1
491 256 m 1,16,-1
 491 630 l 1,17,-1
 467 630 l 1,18,-1
 249 256 l 1,19,-1
 491 256 l 1,16,-1
EndSplineSet
EndChar

StartChar: ordfeminine
Encoding: 170 170 139
Width: 390
GlyphClass: 1
Flags: W
LayerCount: 2
Fore
SplineSet
264 452 m 1,0,1
 228 408 228 408 168 408 c 0,2,3
 125 408 125 408 93 432 c 128,-1,4
 61 456 61 456 61 499 c 0,5,6
 61 544 61 544 94.5 568.5 c 128,-1,7
 128 593 128 593 184 593 c 0,8,9
 224 593 224 593 264 582 c 1,10,-1
 264 587 l 2,11,12
 264 621 264 621 243.5 639.5 c 128,-1,13
 223 658 223 658 186 658 c 0,14,15
 164 658 164 658 144 652.5 c 128,-1,16
 124 647 124 647 100 636 c 1,17,-1
 85 678 l 1,18,19
 114 691 114 691 138 697 c 128,-1,20
 162 703 162 703 191 703 c 0,21,22
 250 703 250 703 281.5 673.5 c 128,-1,23
 313 644 313 644 313 587 c 2,24,-1
 313 414 l 1,25,-1
 264 414 l 1,26,-1
 264 452 l 1,0,1
188 555 m 0,28,29
 153 555 153 555 133 540 c 128,-1,30
 113 525 113 525 113 501 c 256,31,32
 113 477 113 477 131.5 463.5 c 128,-1,33
 150 450 150 450 177 450 c 0,34,35
 213 450 213 450 238.5 469.5 c 128,-1,36
 264 489 264 489 264 520 c 2,37,-1
 264 544 l 1,38,27
 227 555 227 555 188 555 c 0,28,29
58 336 m 1,39,-1
 318 336 l 1,40,-1
 318 289 l 1,41,-1
 58 289 l 1,42,-1
 58 336 l 1,39,-1
EndSplineSet
EndChar

StartChar: Lslash
Encoding: 321 321 140
Width: 649
GlyphClass: 1
Flags: W
LayerCount: 2
Fore
SplineSet
129 301 m 1,0,-1
 54 279 l 1,1,-1
 54 352 l 1,2,-1
 129 375 l 1,3,-1
 129 700 l 1,4,-1
 207 700 l 1,5,-1
 207 399 l 1,6,-1
 423 465 l 1,7,-1
 423 391 l 1,8,-1
 207 326 l 1,9,-1
 207 73 l 1,10,-1
 602 73 l 1,11,-1
 602 0 l 1,12,-1
 129 0 l 1,13,-1
 129 301 l 1,0,-1
EndSplineSet
EndChar

StartChar: Oslash
Encoding: 216 216 141
Width: 850
GlyphClass: 1
Flags: W
LayerCount: 2
Fore
SplineSet
736.5 170.5 m 128,-1,1
 691 87 691 87 609.5 37.5 c 128,-1,2
 528 -12 528 -12 424 -12 c 0,3,4
 360 -12 360 -12 304.5 7 c 128,-1,5
 249 26 249 26 205 62 c 1,6,-1
 143 -5 l 1,7,-1
 60 -5 l 1,8,-1
 159 103 l 1,9,10
 115 152 115 152 91.5 215.5 c 128,-1,11
 68 279 68 279 68 349 c 0,12,13
 68 446 68 446 113.5 529.5 c 128,-1,14
 159 613 159 613 240.5 662.5 c 128,-1,15
 322 712 322 712 426 712 c 0,16,17
 490 712 490 712 545.5 693 c 128,-1,18
 601 674 601 674 645 638 c 1,19,-1
 707 705 l 1,20,-1
 790 705 l 1,21,-1
 691 596 l 1,22,23
 735 548 735 548 758.5 484.5 c 128,-1,24
 782 421 782 421 782 351 c 0,25,0
 782 254 782 254 736.5 170.5 c 128,-1,1
424 641 m 0,27,28
 345 641 345 641 282.5 602 c 128,-1,29
 220 563 220 563 184.5 497 c 128,-1,30
 149 431 149 431 149 351 c 0,31,32
 149 298 149 298 165.5 250 c 128,-1,33
 182 202 182 202 212 163 c 1,34,-1
 595 580 l 1,35,26
 519 641 519 641 424 641 c 0,27,28
684.5 450 m 128,-1,37
 668 498 668 498 638 537 c 1,38,-1
 255 120 l 1,39,40
 331 59 331 59 426 59 c 0,41,42
 505 59 505 59 567.5 98 c 128,-1,43
 630 137 630 137 665.5 203 c 128,-1,44
 701 269 701 269 701 349 c 0,45,36
 701 402 701 402 684.5 450 c 128,-1,37
EndSplineSet
EndChar

StartChar: OE
Encoding: 338 338 142
Width: 1131
GlyphClass: 1
Flags: W
LayerCount: 2
Fore
SplineSet
247.5 45.5 m 128,-1,1
 163 91 163 91 115.5 171 c 128,-1,2
 68 251 68 251 68 349 c 256,3,4
 68 447 68 447 115.5 527.5 c 128,-1,5
 163 608 163 608 247.5 654 c 128,-1,6
 332 700 332 700 440 700 c 2,7,-1
 1066 700 l 1,8,-1
 1066 628 l 1,9,-1
 657 628 l 1,10,-1
 657 389 l 1,11,-1
 1021 389 l 1,12,-1
 1021 317 l 1,13,-1
 657 317 l 1,14,-1
 657 72 l 1,15,-1
 1071 72 l 1,16,-1
 1071 0 l 1,17,-1
 440 0 l 2,18,0
 332 0 332 0 247.5 45.5 c 128,-1,1
440 627 m 2,19,20
 353 627 353 627 287.5 591 c 128,-1,21
 222 555 222 555 186 492 c 128,-1,22
 150 429 150 429 150 351 c 256,23,24
 150 273 150 273 186 209.5 c 128,-1,25
 222 146 222 146 288 109.5 c 128,-1,26
 354 73 354 73 440 73 c 2,27,-1
 578 73 l 1,28,-1
 578 627 l 1,29,-1
 440 627 l 2,19,20
EndSplineSet
EndChar

StartChar: ordmasculine
Encoding: 186 186 143
Width: 390
GlyphClass: 1
Flags: W
LayerCount: 2
Fore
SplineSet
322.5 482 m 128,-1,1
 303 448 303 448 269.5 427.5 c 128,-1,2
 236 407 236 407 194 407 c 0,3,4
 153 407 153 407 119.5 427 c 128,-1,5
 86 447 86 447 67 481 c 128,-1,6
 48 515 48 515 48 555 c 0,7,8
 48 596 48 596 67.5 630 c 128,-1,9
 87 664 87 664 120.5 684.5 c 128,-1,10
 154 705 154 705 196 705 c 0,11,12
 237 705 237 705 270.5 685 c 128,-1,13
 304 665 304 665 323 631 c 128,-1,14
 342 597 342 597 342 557 c 0,15,0
 342 516 342 516 322.5 482 c 128,-1,1
261 627.5 m 128,-1,17
 234 657 234 657 194 657 c 256,18,19
 154 657 154 657 128 628 c 128,-1,20
 102 599 102 599 102 557 c 256,21,22
 102 515 102 515 129 485 c 128,-1,23
 156 455 156 455 196 455 c 256,24,25
 236 455 236 455 262 484 c 128,-1,26
 288 513 288 513 288 555 c 0,27,16
 288 598 288 598 261 627.5 c 128,-1,17
51 336 m 1,28,-1
 339 336 l 1,29,-1
 339 289 l 1,30,-1
 51 289 l 1,31,-1
 51 336 l 1,28,-1
EndSplineSet
EndChar

StartChar: ae
Encoding: 230 230 144
Width: 953
GlyphClass: 1
Flags: W
LayerCount: 2
Fore
SplineSet
242 -11 m 0,1,2
 190 -11 190 -11 145.5 7.5 c 128,-1,3
 101 26 101 26 74 63 c 128,-1,4
 47 100 47 100 47 151 c 0,5,6
 47 231 47 231 106.5 275 c 128,-1,7
 166 319 166 319 264 319 c 0,8,9
 308 319 308 319 343 313.5 c 128,-1,10
 378 308 378 308 417 297 c 1,11,-1
 417 315 l 2,12,13
 417 384 417 384 378.5 420 c 128,-1,14
 340 456 340 456 268 456 c 0,15,16
 227 456 227 456 192 446.5 c 128,-1,17
 157 437 157 437 116 418 c 1,18,-1
 93 481 l 1,19,20
 140 503 140 503 182 513.5 c 128,-1,21
 224 524 224 524 276 524 c 0,22,23
 350 524 350 524 398.5 496 c 128,-1,24
 447 468 447 468 466 413 c 1,25,26
 497 466 497 466 549.5 497 c 128,-1,27
 602 528 602 528 664 528 c 0,28,29
 738 528 738 528 792.5 491.5 c 128,-1,30
 847 455 847 455 876 393 c 128,-1,31
 905 331 905 331 905 254 c 0,32,33
 905 248 905 248 903 230 c 1,34,-1
 494 230 l 1,35,36
 502 149 502 149 553.5 102 c 128,-1,37
 605 55 605 55 675 55 c 0,38,39
 726 55 726 55 765 73.5 c 128,-1,40
 804 92 804 92 838 128 c 1,41,-1
 886 85 l 1,42,43
 845 38 845 38 794 13 c 128,-1,44
 743 -12 743 -12 673 -12 c 0,45,46
 611 -12 611 -12 557 15.5 c 128,-1,47
 503 43 503 43 468 92 c 1,48,0
 369 -11 369 -11 242 -11 c 0,1,2
777.5 413 m 128,-1,50
 735 463 735 463 662 463 c 0,51,52
 594 463 594 463 547.5 413.5 c 128,-1,53
 501 364 501 364 493 287 c 1,54,-1
 826 287 l 1,55,49
 820 363 820 363 777.5 413 c 128,-1,50
272 262 m 0,57,58
 202 262 202 262 163.5 233.5 c 128,-1,59
 125 205 125 205 125 155 c 0,60,61
 125 107 125 107 161 79 c 128,-1,62
 197 51 197 51 251 51 c 0,63,64
 355 51 355 51 437 143 c 1,65,66
 419 188 419 188 416 241 c 1,67,56
 336 262 336 262 272 262 c 0,57,58
EndSplineSet
EndChar

StartChar: dotlessi
Encoding: 305 305 145
Width: 263
GlyphClass: 1
Flags: W
LayerCount: 2
Fore
SplineSet
93 517 m 1,0,-1
 170 517 l 1,1,-1
 170 0 l 1,2,-1
 93 0 l 1,3,-1
 93 517 l 1,0,-1
EndSplineSet
EndChar

StartChar: lslash
Encoding: 322 322 146
Width: 323
GlyphClass: 1
Flags: W
LayerCount: 2
Fore
SplineSet
124 0 m 1,0,-1
 124 321 l 1,1,-1
 48 297 l 1,2,-1
 48 372 l 1,3,-1
 124 395 l 1,4,-1
 124 730 l 1,5,-1
 200 730 l 1,6,-1
 200 418 l 1,7,-1
 276 442 l 1,8,-1
 276 367 l 1,9,-1
 200 343 l 1,10,-1
 200 0 l 1,11,-1
 124 0 l 1,0,-1
EndSplineSet
EndChar

StartChar: oslash
Encoding: 248 248 147
Width: 646
GlyphClass: 1
Flags: W
LayerCount: 2
Fore
SplineSet
557.5 124 m 128,-1,1
 522 62 522 62 460 25 c 128,-1,2
 398 -12 398 -12 322 -12 c 0,3,4
 232 -12 232 -12 161 41 c 1,5,-1
 116 -5 l 1,6,-1
 39 -5 l 1,7,-1
 118 80 l 1,8,9
 87 117 87 117 70.5 162.5 c 128,-1,10
 54 208 54 208 54 257 c 0,11,12
 54 330 54 330 89 392 c 128,-1,13
 124 454 124 454 186 491 c 128,-1,14
 248 528 248 528 324 528 c 0,15,16
 370 528 370 528 411 514 c 128,-1,17
 452 500 452 500 485 474 c 1,18,-1
 530 523 l 1,19,-1
 608 523 l 1,20,-1
 528 437 l 1,21,22
 559 401 559 401 576 355.5 c 128,-1,23
 593 310 593 310 593 259 c 0,24,0
 593 186 593 186 557.5 124 c 128,-1,1
322 461 m 0,26,27
 267 461 267 461 223.5 434 c 128,-1,28
 180 407 180 407 155.5 361 c 128,-1,29
 131 315 131 315 131 259 c 0,30,31
 131 189 131 189 170 136 c 1,32,-1
 438 419 l 1,33,25
 390 461 390 461 322 461 c 0,26,27
476 381 m 1,35,-1
 208 96 l 1,36,37
 258 55 258 55 324 55 c 0,38,39
 379 55 379 55 422.5 81.5 c 128,-1,40
 466 108 466 108 490.5 154.5 c 128,-1,41
 515 201 515 201 515 257 c 0,42,34
 515 328 515 328 476 381 c 1,35,-1
EndSplineSet
EndChar

StartChar: oe
Encoding: 339 339 148
Width: 1049
GlyphClass: 1
Flags: W
LayerCount: 2
Fore
SplineSet
455 26.5 m 128,-1,1
 394 -12 394 -12 319 -12 c 0,2,3
 246 -12 246 -12 185 24.5 c 128,-1,4
 124 61 124 61 89 122.5 c 128,-1,5
 54 184 54 184 54 257 c 256,6,7
 54 330 54 330 89.5 392 c 128,-1,8
 125 454 125 454 186.5 491 c 128,-1,9
 248 528 248 528 322 528 c 0,10,11
 397 528 397 528 457 490 c 128,-1,12
 517 452 517 452 549 389 c 1,13,14
 579 453 579 453 634.5 490.5 c 128,-1,15
 690 528 690 528 761 528 c 0,16,17
 834 528 834 528 888.5 491.5 c 128,-1,18
 943 455 943 455 971.5 393 c 128,-1,19
 1000 331 1000 331 1000 254 c 0,20,21
 1000 239 1000 239 999 230 c 1,22,-1
 590 230 l 1,23,24
 598 149 598 149 649 102 c 128,-1,25
 700 55 700 55 771 55 c 0,26,27
 822 55 822 55 861 74 c 128,-1,28
 900 93 900 93 934 128 c 1,29,-1
 982 85 l 1,30,31
 941 38 941 38 890 13 c 128,-1,32
 839 -12 839 -12 770 -12 c 0,33,34
 698 -12 698 -12 638.5 25.5 c 128,-1,35
 579 63 579 63 548 128 c 1,36,0
 516 65 516 65 455 26.5 c 128,-1,1
873.5 413 m 128,-1,38
 831 463 831 463 758 463 c 0,39,40
 690 463 690 463 643.5 413.5 c 128,-1,41
 597 364 597 364 589 287 c 1,42,-1
 922 287 l 1,43,37
 916 363 916 363 873.5 413 c 128,-1,38
486 359.5 m 128,-1,45
 461 406 461 406 417.5 433 c 128,-1,46
 374 460 374 460 321 460 c 0,47,48
 267 460 267 460 224 433.5 c 128,-1,49
 181 407 181 407 157 361 c 128,-1,50
 133 315 133 315 133 259 c 0,51,52
 133 204 133 204 158 157.5 c 128,-1,53
 183 111 183 111 226.5 84 c 128,-1,54
 270 57 270 57 323 57 c 0,55,56
 377 57 377 57 420 83.5 c 128,-1,57
 463 110 463 110 487 156 c 128,-1,58
 511 202 511 202 511 257 c 0,59,44
 511 313 511 313 486 359.5 c 128,-1,45
EndSplineSet
EndChar

StartChar: germandbls
Encoding: 223 223 149
Width: 620
GlyphClass: 1
Flags: W
LayerCount: 2
Fore
SplineSet
479.5 444 m 128,-1,1
 440 398 440 398 380 372 c 1,2,3
 460 354 460 354 511 310 c 128,-1,4
 562 266 562 266 562 193 c 0,5,6
 562 100 562 100 489.5 48 c 128,-1,7
 417 -4 417 -4 292 -2 c 1,8,-1
 292 60 l 1,9,10
 382 62 382 62 432.5 96 c 128,-1,11
 483 130 483 130 483 193 c 0,12,13
 483 252 483 252 432.5 287 c 128,-1,14
 382 322 382 322 292 331 c 1,15,-1
 292 388 l 1,16,17
 440 443 440 443 440 551 c 0,18,19
 440 604 440 604 403.5 636.5 c 128,-1,20
 367 669 367 669 309 669 c 0,21,22
 244 669 244 669 203.5 623.5 c 128,-1,23
 163 578 163 578 163 502 c 2,24,-1
 163 0 l 1,25,-1
 86 0 l 1,26,-1
 86 501 l 2,27,28
 86 571 86 571 114 624.5 c 128,-1,29
 142 678 142 678 193 707.5 c 128,-1,30
 244 737 244 737 313 737 c 0,31,32
 375 737 375 737 421.5 713.5 c 128,-1,33
 468 690 468 690 493.5 648.5 c 128,-1,34
 519 607 519 607 519 556 c 0,35,0
 519 490 519 490 479.5 444 c 128,-1,1
EndSplineSet
EndChar

StartChar: Eth
Encoding: 208 208 151
Width: 812
GlyphClass: 1
Flags: W
LayerCount: 2
Fore
SplineSet
54 388 m 1,0,-1
 129 388 l 1,1,-1
 129 700 l 1,2,-1
 372 700 l 2,3,4
 480 700 480 700 564.5 654.5 c 128,-1,5
 649 609 649 609 696.5 529 c 128,-1,6
 744 449 744 449 744 351 c 256,7,8
 744 253 744 253 696.5 172.5 c 128,-1,9
 649 92 649 92 564.5 46 c 128,-1,10
 480 0 480 0 372 0 c 2,11,-1
 129 0 l 1,12,-1
 129 316 l 1,13,-1
 54 316 l 1,14,-1
 54 388 l 1,0,-1
418 316 m 1,15,-1
 208 316 l 1,16,-1
 208 73 l 1,17,-1
 372 73 l 2,18,19
 459 73 459 73 524.5 109 c 128,-1,20
 590 145 590 145 626 208 c 128,-1,21
 662 271 662 271 662 349 c 256,22,23
 662 427 662 427 626 490.5 c 128,-1,24
 590 554 590 554 524 590.5 c 128,-1,25
 458 627 458 627 372 627 c 2,26,-1
 208 627 l 1,27,-1
 208 388 l 1,28,-1
 418 388 l 1,29,-1
 418 316 l 1,15,-1
EndSplineSet
EndChar

StartChar: eth
Encoding: 240 240 152
Width: 633
GlyphClass: 1
Flags: W
LayerCount: 2
Fore
SplineSet
158 599 m 1,0,-1
 289 660 l 1,1,-1
 239 730 l 1,2,-1
 331 730 l 1,3,-1
 357 691 l 1,4,-1
 456 739 l 1,5,-1
 491 692 l 1,6,-1
 389 645 l 1,7,-1
 490 496 l 2,8,9
 535 430 535 430 556.5 374 c 128,-1,10
 578 318 578 318 578 252 c 0,11,12
 578 181 578 181 545 120.5 c 128,-1,13
 512 60 512 60 451.5 24 c 128,-1,14
 391 -12 391 -12 312 -12 c 0,15,16
 239 -12 239 -12 180 23 c 128,-1,17
 121 58 121 58 87.5 117 c 128,-1,18
 54 176 54 176 54 246 c 256,19,20
 54 316 54 316 86 370.5 c 128,-1,21
 118 425 118 425 172.5 455.5 c 128,-1,22
 227 486 227 486 291 486 c 0,23,24
 340 486 340 486 377.5 472 c 128,-1,25
 415 458 415 458 453 431 c 1,26,-1
 322 615 l 1,27,-1
 194 552 l 1,28,-1
 158 599 l 1,0,-1
474 334.5 m 128,-1,30
 449 376 449 376 405.5 400.5 c 128,-1,31
 362 425 362 425 309 425 c 256,32,33
 256 425 256 425 215.5 401 c 128,-1,34
 175 377 175 377 153.5 335.5 c 128,-1,35
 132 294 132 294 132 243 c 0,36,37
 132 194 132 194 156 151 c 128,-1,38
 180 108 180 108 222.5 82 c 128,-1,39
 265 56 265 56 317 56 c 0,40,41
 370 56 370 56 411.5 81.5 c 128,-1,42
 453 107 453 107 476 150 c 128,-1,43
 499 193 499 193 499 244 c 0,44,29
 499 293 499 293 474 334.5 c 128,-1,30
EndSplineSet
EndChar

StartChar: Scaron
Encoding: 352 352 153
Width: 640
GlyphClass: 1
Flags: W
LayerCount: 2
Fore
SplineSet
464 893 m 1,0,-1
 358 762 l 1,1,-1
 290 762 l 1,2,-1
 184 893 l 1,3,-1
 250 893 l 1,4,-1
 325 826 l 1,5,-1
 400 893 l 1,6,-1
 464 893 l 1,0,-1
176 466 m 128,-1,8
 192 442 192 442 233 423 c 128,-1,9
 274 404 274 404 350 388 c 0,10,11
 469 362 469 362 523.5 315.5 c 128,-1,12
 578 269 578 269 578 189 c 0,13,14
 578 130 578 130 547.5 84.5 c 128,-1,15
 517 39 517 39 462.5 14.5 c 128,-1,16
 408 -10 408 -10 339 -10 c 0,17,18
 256 -10 256 -10 186.5 17.5 c 128,-1,19
 117 45 117 45 53 102 c 1,20,-1
 102 160 l 1,21,22
 158 109 158 109 214.5 85 c 128,-1,23
 271 61 271 61 342 61 c 0,24,25
 412 61 412 61 455 94.5 c 128,-1,26
 498 128 498 128 498 181 c 0,27,28
 498 216 498 216 482.5 239.5 c 128,-1,29
 467 263 467 263 428 281.5 c 128,-1,30
 389 300 389 300 316 315 c 0,31,32
 192 342 192 342 136.5 387.5 c 128,-1,33
 81 433 81 433 81 518 c 0,34,35
 81 573 81 573 110.5 617 c 128,-1,36
 140 661 140 661 192.5 685.5 c 128,-1,37
 245 710 245 710 311 710 c 0,38,39
 386 710 386 710 444 689 c 128,-1,40
 502 668 502 668 557 624 c 1,41,-1
 511 563 l 1,42,43
 463 602 463 602 413.5 620.5 c 128,-1,44
 364 639 364 639 309 639 c 0,45,46
 242 639 242 639 201 606.5 c 128,-1,47
 160 574 160 574 160 525 c 0,48,7
 160 490 160 490 176 466 c 128,-1,8
EndSplineSet
EndChar

StartChar: scaron
Encoding: 353 353 154
Width: 498
GlyphClass: 1
Flags: W
LayerCount: 2
Fore
SplineSet
392 726 m 1,0,-1
 286 595 l 1,1,-1
 218 595 l 1,2,-1
 112 726 l 1,3,-1
 178 726 l 1,4,-1
 253 659 l 1,5,-1
 328 726 l 1,6,-1
 392 726 l 1,0,-1
389 31.5 m 128,-1,8
 337 -10 337 -10 257 -10 c 0,9,10
 201 -10 201 -10 143.5 10.5 c 128,-1,11
 86 31 86 31 43 66 c 1,12,-1
 82 121 l 1,13,14
 170 55 170 55 261 55 c 0,15,16
 308 55 308 55 338 77.5 c 128,-1,17
 368 100 368 100 368 137 c 2,18,-1
 368 139 l 2,19,20
 368 174 368 174 335.5 193 c 128,-1,21
 303 212 303 212 239 230 c 0,22,23
 186 245 186 245 151 260.5 c 128,-1,24
 116 276 116 276 92 304 c 128,-1,25
 68 332 68 332 68 376 c 2,26,-1
 68 378 l 2,27,28
 68 444 68 444 117.5 485 c 128,-1,29
 167 526 167 526 244 526 c 0,30,31
 291 526 291 526 340.5 510.5 c 128,-1,32
 390 495 390 495 430 469 c 1,33,-1
 395 411 l 1,34,35
 358 435 358 435 318.5 448 c 128,-1,36
 279 461 279 461 242 461 c 0,37,38
 197 461 197 461 169.5 440 c 128,-1,39
 142 419 142 419 142 386 c 2,40,-1
 142 384 l 2,41,42
 142 351 142 351 174.5 333.5 c 128,-1,43
 207 316 207 316 275 295 c 0,44,45
 326 280 326 280 360.5 263.5 c 128,-1,46
 395 247 395 247 418 218.5 c 128,-1,47
 441 190 441 190 441 147 c 2,48,-1
 441 145 l 2,49,7
 441 73 441 73 389 31.5 c 128,-1,8
EndSplineSet
EndChar

StartChar: Yacute
Encoding: 221 221 155
Width: 716
GlyphClass: 1
Flags: W
LayerCount: 2
Fore
SplineSet
424 902 m 1,0,-1
 504 865 l 1,1,-1
 391 757 l 1,2,-1
 329 757 l 1,3,-1
 424 902 l 1,0,-1
318 0 m 1,4,-1
 318 277 l 1,5,-1
 27 700 l 1,6,-1
 123 700 l 1,7,-1
 359 350 l 1,8,-1
 597 700 l 1,9,-1
 689 700 l 1,10,-1
 398 278 l 1,11,-1
 398 0 l 1,12,-1
 318 0 l 1,4,-1
EndSplineSet
EndChar

StartChar: yacute
Encoding: 253 253 156
Width: 591
GlyphClass: 1
Flags: W
LayerCount: 2
Fore
SplineSet
362 736 m 1,0,-1
 442 699 l 1,1,-1
 329 591 l 1,2,-1
 267 591 l 1,3,-1
 362 736 l 1,0,-1
265 -129.5 m 128,-1,5
 225 -163 225 -163 166 -163 c 0,6,7
 135 -163 135 -163 109 -156.5 c 128,-1,8
 83 -150 83 -150 56 -137 c 1,9,-1
 82 -76 l 1,10,11
 119 -95 119 -95 163 -95 c 0,12,13
 198 -95 198 -95 222 -73.5 c 128,-1,14
 246 -52 246 -52 269 2 c 1,15,-1
 34 517 l 1,16,-1
 119 517 l 1,17,-1
 307 86 l 1,18,-1
 473 517 l 1,19,-1
 555 517 l 1,20,-1
 338 -17 l 2,21,4
 305 -96 305 -96 265 -129.5 c 128,-1,5
EndSplineSet
EndChar

StartChar: Thorn
Encoding: 222 222 157
Width: 673
GlyphClass: 1
Flags: W
LayerCount: 2
Fore
SplineSet
586 231.5 m 128,-1,1
 549 179 549 179 486.5 152.5 c 128,-1,2
 424 126 424 126 348 126 c 2,3,-1
 178 126 l 1,4,-1
 178 0 l 1,5,-1
 99 0 l 1,6,-1
 99 700 l 1,7,-1
 178 700 l 1,8,-1
 178 580 l 1,9,-1
 361 580 l 2,10,11
 440 580 440 580 499 553 c 128,-1,12
 558 526 558 526 590.5 476 c 128,-1,13
 623 426 623 426 623 357 c 0,14,0
 623 284 623 284 586 231.5 c 128,-1,1
492.5 467.5 m 128,-1,16
 442 507 442 507 355 507 c 2,17,-1
 178 507 l 1,18,-1
 178 198 l 1,19,-1
 351 198 l 2,20,21
 438 198 438 198 490.5 241 c 128,-1,22
 543 284 543 284 543 354 c 0,23,15
 543 428 543 428 492.5 467.5 c 128,-1,16
EndSplineSet
EndChar

StartChar: thorn
Encoding: 254 254 158
Width: 664
GlyphClass: 1
Flags: W
LayerCount: 2
Fore
SplineSet
573 116 m 128,-1,1
 538 55 538 55 481.5 22 c 128,-1,2
 425 -11 425 -11 361 -11 c 0,3,4
 239 -11 239 -11 163 99 c 1,5,-1
 163 -160 l 1,6,-1
 86 -160 l 1,7,-1
 86 730 l 1,8,-1
 163 730 l 1,9,-1
 163 413 l 1,10,11
 241 528 241 528 361 528 c 0,12,13
 424 528 424 528 481 495.5 c 128,-1,14
 538 463 538 463 573 402 c 128,-1,15
 608 341 608 341 608 259 c 256,16,0
 608 177 608 177 573 116 c 128,-1,1
504.5 363.5 m 128,-1,18
 480 409 480 409 438 434 c 128,-1,19
 396 459 396 459 347 459 c 0,20,21
 299 459 299 459 256 433.5 c 128,-1,22
 213 408 213 408 186.5 362.5 c 128,-1,23
 160 317 160 317 160 259 c 256,24,25
 160 201 160 201 186.5 155 c 128,-1,26
 213 109 213 109 256 83.5 c 128,-1,27
 299 58 299 58 347 58 c 0,28,29
 397 58 397 58 438.5 82 c 128,-1,30
 480 106 480 106 504.5 151.5 c 128,-1,31
 529 197 529 197 529 258 c 0,32,17
 529 318 529 318 504.5 363.5 c 128,-1,18
EndSplineSet
EndChar

StartChar: Zcaron
Encoding: 381 381 159
Width: 693
GlyphClass: 1
Flags: W
LayerCount: 2
Fore
SplineSet
491 893 m 1,0,-1
 385 762 l 1,1,-1
 317 762 l 1,2,-1
 211 893 l 1,3,-1
 277 893 l 1,4,-1
 352 826 l 1,5,-1
 427 893 l 1,6,-1
 491 893 l 1,0,-1
82 700 m 1,7,-1
 628 700 l 1,8,-1
 628 647 l 1,9,-1
 174 71 l 1,10,-1
 628 71 l 1,11,-1
 628 0 l 1,12,-1
 67 0 l 1,13,-1
 67 53 l 1,14,-1
 520 629 l 1,15,-1
 82 629 l 1,16,-1
 82 700 l 1,7,-1
EndSplineSet
EndChar

StartChar: zcaron
Encoding: 382 382 160
Width: 556
GlyphClass: 1
Flags: W
LayerCount: 2
Fore
SplineSet
427 726 m 1,0,-1
 321 595 l 1,1,-1
 253 595 l 1,2,-1
 147 726 l 1,3,-1
 213 726 l 1,4,-1
 288 659 l 1,5,-1
 363 726 l 1,6,-1
 427 726 l 1,0,-1
68 517 m 1,7,-1
 504 517 l 1,8,-1
 504 468 l 1,9,-1
 160 65 l 1,10,-1
 504 65 l 1,11,-1
 504 0 l 1,12,-1
 56 0 l 1,13,-1
 56 49 l 1,14,-1
 399 452 l 1,15,-1
 68 452 l 1,16,-1
 68 517 l 1,7,-1
EndSplineSet
EndChar

StartChar: Adieresis
Encoding: 196 196 161
Width: 790
GlyphClass: 1
Flags: W
LayerCount: 2
Fore
SplineSet
262 857 m 1,0,-1
 352 857 l 1,1,-1
 352 762 l 1,2,-1
 262 762 l 1,3,-1
 262 857 l 1,0,-1
438 857 m 1,4,-1
 528 857 l 1,5,-1
 528 762 l 1,6,-1
 438 762 l 1,7,-1
 438 857 l 1,4,-1
666 0 m 1,8,-1
 584 185 l 1,9,-1
 203 185 l 1,10,-1
 120 0 l 1,11,-1
 39 0 l 1,12,-1
 358 705 l 1,13,-1
 432 705 l 1,14,-1
 751 0 l 1,15,-1
 666 0 l 1,8,-1
234 256 m 1,16,-1
 553 256 l 1,17,-1
 394 613 l 1,18,-1
 234 256 l 1,16,-1
EndSplineSet
EndChar

StartChar: Aring
Encoding: 197 197 162
Width: 790
GlyphClass: 1
Flags: W
LayerCount: 2
Fore
SplineSet
306 716 m 128,-1,1
 291 739 291 739 291 767 c 0,2,3
 291 808 291 808 322 837.5 c 128,-1,4
 353 867 353 867 395 867 c 256,5,6
 437 867 437 867 468 837.5 c 128,-1,7
 499 808 499 808 499 767 c 0,8,9
 499 739 499 739 484 716 c 128,-1,10
 469 693 469 693 444 680 c 1,11,-1
 751 0 l 1,12,-1
 666 0 l 1,13,-1
 584 185 l 1,14,-1
 203 185 l 1,15,-1
 120 0 l 1,16,-1
 39 0 l 1,17,-1
 346 680 l 1,18,0
 321 693 321 693 306 716 c 128,-1,1
439 811 m 128,-1,20
 421 829 421 829 395 829 c 0,21,22
 370 829 370 829 351.5 811 c 128,-1,23
 333 793 333 793 333 767 c 0,24,25
 333 742 333 742 351.5 723.5 c 128,-1,26
 370 705 370 705 395 705 c 0,27,28
 421 705 421 705 439 723.5 c 128,-1,29
 457 742 457 742 457 767 c 0,30,19
 457 793 457 793 439 811 c 128,-1,20
234 256 m 1,31,-1
 553 256 l 1,32,-1
 394 613 l 1,33,-1
 234 256 l 1,31,-1
EndSplineSet
EndChar

StartChar: Ccedilla
Encoding: 199 199 163
Width: 738
GlyphClass: 1
Flags: W
LayerCount: 2
Fore
SplineSet
215 52 m 128,-1,1
 146 102 146 102 107 179.5 c 128,-1,2
 68 257 68 257 68 349 c 0,3,4
 68 448 68 448 113.5 531.5 c 128,-1,5
 159 615 159 615 240 663.5 c 128,-1,6
 321 712 321 712 422 712 c 0,7,8
 511 712 511 712 574 684 c 128,-1,9
 637 656 637 656 695 601 c 1,10,-1
 641 543 l 1,11,12
 592 589 592 589 540 614 c 128,-1,13
 488 639 488 639 421 639 c 0,14,15
 345 639 345 639 283 601 c 128,-1,16
 221 563 221 563 185.5 497 c 128,-1,17
 150 431 150 431 150 351 c 256,18,19
 150 271 150 271 185.5 204.5 c 128,-1,20
 221 138 221 138 283 99.5 c 128,-1,21
 345 61 345 61 421 61 c 0,22,23
 489 61 489 61 541 86 c 128,-1,24
 593 111 593 111 647 162 c 1,25,-1
 699 111 l 1,26,27
 642 53 642 53 580.5 22.5 c 128,-1,28
 519 -8 519 -8 435 -12 c 1,29,-1
 369 -155 l 1,30,-1
 294 -121 l 1,31,-1
 371 -9 l 1,32,0
 284 2 284 2 215 52 c 128,-1,1
EndSplineSet
EndChar

StartChar: Eacute
Encoding: 201 201 164
Width: 670
GlyphClass: 1
Flags: W
LayerCount: 2
Fore
SplineSet
392 907 m 1,0,-1
 472 870 l 1,1,-1
 359 762 l 1,2,-1
 297 762 l 1,3,-1
 392 907 l 1,0,-1
178 628 m 1,4,-1
 178 389 l 1,5,-1
 560 389 l 1,6,-1
 560 317 l 1,7,-1
 178 317 l 1,8,-1
 178 72 l 1,9,-1
 610 72 l 1,10,-1
 610 0 l 1,11,-1
 99 0 l 1,12,-1
 99 700 l 1,13,-1
 605 700 l 1,14,-1
 605 628 l 1,15,-1
 178 628 l 1,4,-1
EndSplineSet
EndChar

StartChar: Ntilde
Encoding: 209 209 165
Width: 790
GlyphClass: 1
Flags: W
LayerCount: 2
Fore
SplineSet
522 786.5 m 128,-1,1
 500 762 500 762 464 762 c 0,2,3
 438 762 438 762 388 784 c 0,4,5
 385 785 385 785 364.5 793.5 c 128,-1,6
 344 802 344 802 330 802 c 0,7,8
 311 802 311 802 300.5 791.5 c 128,-1,9
 290 781 290 781 278 753 c 1,10,-1
 231 766 l 1,11,12
 246 822 246 822 268 846.5 c 128,-1,13
 290 871 290 871 326 871 c 0,14,15
 352 871 352 871 402 849 c 0,16,17
 405 848 405 848 425.5 839.5 c 128,-1,18
 446 831 446 831 460 831 c 0,19,20
 479 831 479 831 489.5 841.5 c 128,-1,21
 500 852 500 852 512 880 c 1,22,-1
 559 867 l 1,23,0
 544 811 544 811 522 786.5 c 128,-1,1
691 700 m 1,24,-1
 691 0 l 1,25,-1
 628 0 l 1,26,-1
 176 574 l 1,27,-1
 176 0 l 1,28,-1
 99 0 l 1,29,-1
 99 700 l 1,30,-1
 173 700 l 1,31,-1
 614 139 l 1,32,-1
 614 700 l 1,33,-1
 691 700 l 1,24,-1
EndSplineSet
EndChar

StartChar: Odieresis
Encoding: 214 214 166
Width: 850
GlyphClass: 1
Flags: W
LayerCount: 2
Fore
SplineSet
292 857 m 1,0,-1
 382 857 l 1,1,-1
 382 762 l 1,2,-1
 292 762 l 1,3,-1
 292 857 l 1,0,-1
468 857 m 1,4,-1
 558 857 l 1,5,-1
 558 762 l 1,6,-1
 468 762 l 1,7,-1
 468 857 l 1,4,-1
736.5 170.5 m 128,-1,9
 691 87 691 87 609.5 37.5 c 128,-1,10
 528 -12 528 -12 424 -12 c 256,11,12
 320 -12 320 -12 239 37 c 128,-1,13
 158 86 158 86 113 169 c 128,-1,14
 68 252 68 252 68 349 c 256,15,16
 68 446 68 446 113.5 529.5 c 128,-1,17
 159 613 159 613 240.5 662.5 c 128,-1,18
 322 712 322 712 426 712 c 256,19,20
 530 712 530 712 611 663 c 128,-1,21
 692 614 692 614 737 531 c 128,-1,22
 782 448 782 448 782 351 c 256,23,8
 782 254 782 254 736.5 170.5 c 128,-1,9
664.5 494.5 m 128,-1,25
 629 561 629 561 565.5 600 c 128,-1,26
 502 639 502 639 424 639 c 256,27,28
 346 639 346 639 283.5 600.5 c 128,-1,29
 221 562 221 562 185.5 496 c 128,-1,30
 150 430 150 430 150 351 c 256,31,32
 150 272 150 272 185.5 205.5 c 128,-1,33
 221 139 221 139 284.5 100 c 128,-1,34
 348 61 348 61 426 61 c 256,35,36
 504 61 504 61 566.5 99.5 c 128,-1,37
 629 138 629 138 664.5 204 c 128,-1,38
 700 270 700 270 700 349 c 256,39,24
 700 428 700 428 664.5 494.5 c 128,-1,25
EndSplineSet
EndChar

StartChar: Udieresis
Encoding: 220 220 167
Width: 759
GlyphClass: 1
Flags: W
LayerCount: 2
Fore
SplineSet
246 854 m 1,0,-1
 336 854 l 1,1,-1
 336 759 l 1,2,-1
 246 759 l 1,3,-1
 246 854 l 1,0,-1
422 854 m 1,4,-1
 512 854 l 1,5,-1
 512 759 l 1,6,-1
 422 759 l 1,7,-1
 422 854 l 1,4,-1
592 69 m 128,-1,9
 513 -11 513 -11 379 -11 c 0,10,11
 292 -11 292 -11 226.5 24 c 128,-1,12
 161 59 161 59 124.5 127.5 c 128,-1,13
 88 196 88 196 88 293 c 2,14,-1
 88 700 l 1,15,-1
 167 700 l 1,16,-1
 167 298 l 2,17,18
 167 185 167 185 223.5 123.5 c 128,-1,19
 280 62 280 62 381 62 c 0,20,21
 480 62 480 62 536 121 c 128,-1,22
 592 180 592 180 592 293 c 2,23,-1
 592 700 l 1,24,-1
 671 700 l 1,25,-1
 671 299 l 2,26,8
 671 149 671 149 592 69 c 128,-1,9
EndSplineSet
EndChar

StartChar: aacute
Encoding: 225 225 168
Width: 579
GlyphClass: 1
Flags: W
LayerCount: 2
Fore
SplineSet
343 740 m 1,0,-1
 423 703 l 1,1,-1
 310 595 l 1,2,-1
 248 595 l 1,3,-1
 343 740 l 1,0,-1
193 446 m 128,-1,5
 156 436 156 436 116 418 c 1,6,-1
 93 481 l 1,7,8
 140 502 140 502 184 513 c 128,-1,9
 228 524 228 524 281 524 c 0,10,11
 387 524 387 524 444 471 c 128,-1,12
 501 418 501 418 501 316 c 2,13,-1
 501 0 l 1,14,-1
 427 0 l 1,15,-1
 427 78 l 1,16,17
 397 38 397 38 350 13.5 c 128,-1,18
 303 -11 303 -11 240 -11 c 0,19,20
 190 -11 190 -11 146 7.5 c 128,-1,21
 102 26 102 26 74.5 62.5 c 128,-1,22
 47 99 47 99 47 151 c 0,23,24
 47 232 47 232 107 275.5 c 128,-1,25
 167 319 167 319 268 319 c 0,26,27
 349 319 349 319 427 297 c 1,28,-1
 427 315 l 2,29,30
 427 384 427 384 387 420 c 128,-1,31
 347 456 347 456 273 456 c 0,32,4
 230 456 230 456 193 446 c 128,-1,5
164.5 233 m 128,-1,34
 125 204 125 204 125 154 c 0,35,36
 125 106 125 106 162.5 78 c 128,-1,37
 200 50 200 50 255 50 c 0,38,39
 302 50 302 50 342 68 c 128,-1,40
 382 86 382 86 405 118 c 128,-1,41
 428 150 428 150 428 190 c 2,42,-1
 428 240 l 1,43,44
 352 262 352 262 276 262 c 0,45,33
 204 262 204 262 164.5 233 c 128,-1,34
EndSplineSet
EndChar

StartChar: agrave
Encoding: 224 224 169
Width: 579
GlyphClass: 1
Flags: W
LayerCount: 2
Fore
SplineSet
228 740 m 1,0,-1
 323 595 l 1,1,-1
 261 595 l 1,2,-1
 148 703 l 1,3,-1
 228 740 l 1,0,-1
193 446 m 128,-1,5
 156 436 156 436 116 418 c 1,6,-1
 93 481 l 1,7,8
 140 502 140 502 184 513 c 128,-1,9
 228 524 228 524 281 524 c 0,10,11
 387 524 387 524 444 471 c 128,-1,12
 501 418 501 418 501 316 c 2,13,-1
 501 0 l 1,14,-1
 427 0 l 1,15,-1
 427 78 l 1,16,17
 397 38 397 38 350 13.5 c 128,-1,18
 303 -11 303 -11 240 -11 c 0,19,20
 190 -11 190 -11 146 7.5 c 128,-1,21
 102 26 102 26 74.5 62.5 c 128,-1,22
 47 99 47 99 47 151 c 0,23,24
 47 232 47 232 107 275.5 c 128,-1,25
 167 319 167 319 268 319 c 0,26,27
 349 319 349 319 427 297 c 1,28,-1
 427 315 l 2,29,30
 427 384 427 384 387 420 c 128,-1,31
 347 456 347 456 273 456 c 0,32,4
 230 456 230 456 193 446 c 128,-1,5
164.5 233 m 128,-1,34
 125 204 125 204 125 154 c 0,35,36
 125 106 125 106 162.5 78 c 128,-1,37
 200 50 200 50 255 50 c 0,38,39
 302 50 302 50 342 68 c 128,-1,40
 382 86 382 86 405 118 c 128,-1,41
 428 150 428 150 428 190 c 2,42,-1
 428 240 l 1,43,44
 352 262 352 262 276 262 c 0,45,33
 204 262 204 262 164.5 233 c 128,-1,34
EndSplineSet
EndChar

StartChar: acircumflex
Encoding: 226 226 170
Width: 579
GlyphClass: 1
Flags: W
LayerCount: 2
Fore
SplineSet
151 595 m 1,0,-1
 257 726 l 1,1,-1
 325 726 l 1,2,-1
 431 595 l 1,3,-1
 365 595 l 1,4,-1
 290 662 l 1,5,-1
 215 595 l 1,6,-1
 151 595 l 1,0,-1
193 446 m 128,-1,8
 156 436 156 436 116 418 c 1,9,-1
 93 481 l 1,10,11
 140 502 140 502 184 513 c 128,-1,12
 228 524 228 524 281 524 c 0,13,14
 387 524 387 524 444 471 c 128,-1,15
 501 418 501 418 501 316 c 2,16,-1
 501 0 l 1,17,-1
 427 0 l 1,18,-1
 427 78 l 1,19,20
 397 38 397 38 350 13.5 c 128,-1,21
 303 -11 303 -11 240 -11 c 0,22,23
 190 -11 190 -11 146 7.5 c 128,-1,24
 102 26 102 26 74.5 62.5 c 128,-1,25
 47 99 47 99 47 151 c 0,26,27
 47 232 47 232 107 275.5 c 128,-1,28
 167 319 167 319 268 319 c 0,29,30
 349 319 349 319 427 297 c 1,31,-1
 427 315 l 2,32,33
 427 384 427 384 387 420 c 128,-1,34
 347 456 347 456 273 456 c 0,35,7
 230 456 230 456 193 446 c 128,-1,8
164.5 233 m 128,-1,37
 125 204 125 204 125 154 c 0,38,39
 125 106 125 106 162.5 78 c 128,-1,40
 200 50 200 50 255 50 c 0,41,42
 302 50 302 50 342 68 c 128,-1,43
 382 86 382 86 405 118 c 128,-1,44
 428 150 428 150 428 190 c 2,45,-1
 428 240 l 1,46,47
 352 262 352 262 276 262 c 0,48,36
 204 262 204 262 164.5 233 c 128,-1,37
EndSplineSet
EndChar

StartChar: adieresis
Encoding: 228 228 171
Width: 579
GlyphClass: 1
Flags: W
LayerCount: 2
Fore
SplineSet
158 690 m 1,0,-1
 248 690 l 1,1,-1
 248 595 l 1,2,-1
 158 595 l 1,3,-1
 158 690 l 1,0,-1
334 690 m 1,4,-1
 424 690 l 1,5,-1
 424 595 l 1,6,-1
 334 595 l 1,7,-1
 334 690 l 1,4,-1
193 446 m 128,-1,9
 156 436 156 436 116 418 c 1,10,-1
 93 481 l 1,11,12
 140 502 140 502 184 513 c 128,-1,13
 228 524 228 524 281 524 c 0,14,15
 387 524 387 524 444 471 c 128,-1,16
 501 418 501 418 501 316 c 2,17,-1
 501 0 l 1,18,-1
 427 0 l 1,19,-1
 427 78 l 1,20,21
 397 38 397 38 350 13.5 c 128,-1,22
 303 -11 303 -11 240 -11 c 0,23,24
 190 -11 190 -11 146 7.5 c 128,-1,25
 102 26 102 26 74.5 62.5 c 128,-1,26
 47 99 47 99 47 151 c 0,27,28
 47 232 47 232 107 275.5 c 128,-1,29
 167 319 167 319 268 319 c 0,30,31
 349 319 349 319 427 297 c 1,32,-1
 427 315 l 2,33,34
 427 384 427 384 387 420 c 128,-1,35
 347 456 347 456 273 456 c 0,36,8
 230 456 230 456 193 446 c 128,-1,9
164.5 233 m 128,-1,38
 125 204 125 204 125 154 c 0,39,40
 125 106 125 106 162.5 78 c 128,-1,41
 200 50 200 50 255 50 c 0,42,43
 302 50 302 50 342 68 c 128,-1,44
 382 86 382 86 405 118 c 128,-1,45
 428 150 428 150 428 190 c 2,46,-1
 428 240 l 1,47,48
 352 262 352 262 276 262 c 0,49,37
 204 262 204 262 164.5 233 c 128,-1,38
EndSplineSet
EndChar

StartChar: atilde
Encoding: 227 227 172
Width: 579
GlyphClass: 1
Flags: W
LayerCount: 2
Fore
SplineSet
419 619.5 m 128,-1,1
 397 595 397 595 361 595 c 0,2,3
 335 595 335 595 285 617 c 0,4,5
 282 618 282 618 261.5 626.5 c 128,-1,6
 241 635 241 635 227 635 c 0,7,8
 208 635 208 635 197.5 624.5 c 128,-1,9
 187 614 187 614 175 586 c 1,10,-1
 128 599 l 1,11,12
 143 655 143 655 165 679.5 c 128,-1,13
 187 704 187 704 223 704 c 0,14,15
 249 704 249 704 299 682 c 0,16,17
 302 681 302 681 322.5 672.5 c 128,-1,18
 343 664 343 664 357 664 c 0,19,20
 376 664 376 664 386.5 674.5 c 128,-1,21
 397 685 397 685 409 713 c 1,22,-1
 456 700 l 1,23,0
 441 644 441 644 419 619.5 c 128,-1,1
193 446 m 128,-1,25
 156 436 156 436 116 418 c 1,26,-1
 93 481 l 1,27,28
 140 502 140 502 184 513 c 128,-1,29
 228 524 228 524 281 524 c 0,30,31
 387 524 387 524 444 471 c 128,-1,32
 501 418 501 418 501 316 c 2,33,-1
 501 0 l 1,34,-1
 427 0 l 1,35,-1
 427 78 l 1,36,37
 397 38 397 38 350 13.5 c 128,-1,38
 303 -11 303 -11 240 -11 c 0,39,40
 190 -11 190 -11 146 7.5 c 128,-1,41
 102 26 102 26 74.5 62.5 c 128,-1,42
 47 99 47 99 47 151 c 0,43,44
 47 232 47 232 107 275.5 c 128,-1,45
 167 319 167 319 268 319 c 0,46,47
 349 319 349 319 427 297 c 1,48,-1
 427 315 l 2,49,50
 427 384 427 384 387 420 c 128,-1,51
 347 456 347 456 273 456 c 0,52,24
 230 456 230 456 193 446 c 128,-1,25
164.5 233 m 128,-1,54
 125 204 125 204 125 154 c 0,55,56
 125 106 125 106 162.5 78 c 128,-1,57
 200 50 200 50 255 50 c 0,58,59
 302 50 302 50 342 68 c 128,-1,60
 382 86 382 86 405 118 c 128,-1,61
 428 150 428 150 428 190 c 2,62,-1
 428 240 l 1,63,64
 352 262 352 262 276 262 c 0,65,53
 204 262 204 262 164.5 233 c 128,-1,54
EndSplineSet
EndChar

StartChar: aring
Encoding: 229 229 173
Width: 579
GlyphClass: 1
Flags: W
LayerCount: 2
Fore
SplineSet
364 622.5 m 128,-1,1
 333 593 333 593 291 593 c 256,2,3
 249 593 249 593 218 622.5 c 128,-1,4
 187 652 187 652 187 693 c 256,5,6
 187 734 187 734 218 763.5 c 128,-1,7
 249 793 249 793 291 793 c 256,8,9
 333 793 333 793 364 763.5 c 128,-1,10
 395 734 395 734 395 693 c 256,11,0
 395 652 395 652 364 622.5 c 128,-1,1
335 737 m 128,-1,13
 317 755 317 755 291 755 c 0,14,15
 266 755 266 755 247.5 737 c 128,-1,16
 229 719 229 719 229 693 c 0,17,18
 229 668 229 668 247.5 649.5 c 128,-1,19
 266 631 266 631 291 631 c 0,20,21
 317 631 317 631 335 649.5 c 128,-1,22
 353 668 353 668 353 693 c 0,23,12
 353 719 353 719 335 737 c 128,-1,13
193 446 m 128,-1,25
 156 436 156 436 116 418 c 1,26,-1
 93 481 l 1,27,28
 140 502 140 502 184 513 c 128,-1,29
 228 524 228 524 281 524 c 0,30,31
 387 524 387 524 444 471 c 128,-1,32
 501 418 501 418 501 316 c 2,33,-1
 501 0 l 1,34,-1
 427 0 l 1,35,-1
 427 78 l 1,36,37
 397 38 397 38 350 13.5 c 128,-1,38
 303 -11 303 -11 240 -11 c 0,39,40
 190 -11 190 -11 146 7.5 c 128,-1,41
 102 26 102 26 74.5 62.5 c 128,-1,42
 47 99 47 99 47 151 c 0,43,44
 47 232 47 232 107 275.5 c 128,-1,45
 167 319 167 319 268 319 c 0,46,47
 349 319 349 319 427 297 c 1,48,-1
 427 315 l 2,49,50
 427 384 427 384 387 420 c 128,-1,51
 347 456 347 456 273 456 c 0,52,24
 230 456 230 456 193 446 c 128,-1,25
164.5 233 m 128,-1,54
 125 204 125 204 125 154 c 0,55,56
 125 106 125 106 162.5 78 c 128,-1,57
 200 50 200 50 255 50 c 0,58,59
 302 50 302 50 342 68 c 128,-1,60
 382 86 382 86 405 118 c 128,-1,61
 428 150 428 150 428 190 c 2,62,-1
 428 240 l 1,63,64
 352 262 352 262 276 262 c 0,65,53
 204 262 204 262 164.5 233 c 128,-1,54
EndSplineSet
EndChar

StartChar: ccedilla
Encoding: 231 231 174
Width: 571
GlyphClass: 1
Flags: W
LayerCount: 2
Fore
SplineSet
159.5 41.5 m 128,-1,1
 110 79 110 79 82 135.5 c 128,-1,2
 54 192 54 192 54 257 c 0,3,4
 54 330 54 330 89 392 c 128,-1,5
 124 454 124 454 184.5 491 c 128,-1,6
 245 528 245 528 319 528 c 0,7,8
 387 528 387 528 436 503.5 c 128,-1,9
 485 479 485 479 526 436 c 1,10,-1
 475 382 l 1,11,12
 439 419 439 419 402.5 439.5 c 128,-1,13
 366 460 366 460 318 460 c 0,14,15
 266 460 266 460 224 433 c 128,-1,16
 182 406 182 406 157.5 360 c 128,-1,17
 133 314 133 314 133 259 c 0,18,19
 133 203 133 203 158 157 c 128,-1,20
 183 111 183 111 226.5 84 c 128,-1,21
 270 57 270 57 323 57 c 0,22,23
 409 57 409 57 481 134 c 1,24,-1
 530 88 l 1,25,26
 489 42 489 42 442.5 17 c 128,-1,27
 396 -8 396 -8 334 -12 c 1,28,-1
 268 -155 l 1,29,-1
 193 -121 l 1,30,-1
 271 -7 l 1,31,0
 209 4 209 4 159.5 41.5 c 128,-1,1
EndSplineSet
EndChar

StartChar: eacute
Encoding: 233 233 175
Width: 592
GlyphClass: 1
Flags: W
LayerCount: 2
Fore
SplineSet
349 740 m 1,0,-1
 429 703 l 1,1,-1
 316 595 l 1,2,-1
 254 595 l 1,3,-1
 349 740 l 1,0,-1
191.5 102 m 128,-1,5
 243 55 243 55 314 55 c 0,6,7
 365 55 365 55 404 74 c 128,-1,8
 443 93 443 93 477 128 c 1,9,-1
 525 85 l 1,10,11
 483 38 483 38 432 13 c 128,-1,12
 381 -12 381 -12 312 -12 c 0,13,14
 241 -12 241 -12 182 22 c 128,-1,15
 123 56 123 56 88.5 117.5 c 128,-1,16
 54 179 54 179 54 258 c 0,17,18
 54 332 54 332 86 394 c 128,-1,19
 118 456 118 456 175 492 c 128,-1,20
 232 528 232 528 302 528 c 0,21,22
 376 528 376 528 431 492 c 128,-1,23
 486 456 486 456 514.5 393.5 c 128,-1,24
 543 331 543 331 543 254 c 0,25,26
 543 239 543 239 542 230 c 1,27,-1
 132 230 l 1,28,4
 140 149 140 149 191.5 102 c 128,-1,5
416 413 m 128,-1,30
 373 463 373 463 300 463 c 0,31,32
 233 463 233 463 186.5 413 c 128,-1,33
 140 363 140 363 132 287 c 1,34,-1
 465 287 l 1,35,29
 459 363 459 363 416 413 c 128,-1,30
EndSplineSet
EndChar

StartChar: egrave
Encoding: 232 232 176
Width: 592
GlyphClass: 1
Flags: W
LayerCount: 2
Fore
SplineSet
243 740 m 1,0,-1
 338 595 l 1,1,-1
 276 595 l 1,2,-1
 163 703 l 1,3,-1
 243 740 l 1,0,-1
191.5 102 m 128,-1,5
 243 55 243 55 314 55 c 0,6,7
 365 55 365 55 404 74 c 128,-1,8
 443 93 443 93 477 128 c 1,9,-1
 525 85 l 1,10,11
 483 38 483 38 432 13 c 128,-1,12
 381 -12 381 -12 312 -12 c 0,13,14
 241 -12 241 -12 182 22 c 128,-1,15
 123 56 123 56 88.5 117.5 c 128,-1,16
 54 179 54 179 54 258 c 0,17,18
 54 332 54 332 86 394 c 128,-1,19
 118 456 118 456 175 492 c 128,-1,20
 232 528 232 528 302 528 c 0,21,22
 376 528 376 528 431 492 c 128,-1,23
 486 456 486 456 514.5 393.5 c 128,-1,24
 543 331 543 331 543 254 c 0,25,26
 543 239 543 239 542 230 c 1,27,-1
 132 230 l 1,28,4
 140 149 140 149 191.5 102 c 128,-1,5
416 413 m 128,-1,30
 373 463 373 463 300 463 c 0,31,32
 233 463 233 463 186.5 413 c 128,-1,33
 140 363 140 363 132 287 c 1,34,-1
 465 287 l 1,35,29
 459 363 459 363 416 413 c 128,-1,30
EndSplineSet
EndChar

StartChar: ecircumflex
Encoding: 234 234 177
Width: 592
GlyphClass: 1
Flags: W
LayerCount: 2
Fore
SplineSet
159 595 m 1,0,-1
 265 726 l 1,1,-1
 333 726 l 1,2,-1
 439 595 l 1,3,-1
 373 595 l 1,4,-1
 298 662 l 1,5,-1
 223 595 l 1,6,-1
 159 595 l 1,0,-1
191.5 102 m 128,-1,8
 243 55 243 55 314 55 c 0,9,10
 365 55 365 55 404 74 c 128,-1,11
 443 93 443 93 477 128 c 1,12,-1
 525 85 l 1,13,14
 483 38 483 38 432 13 c 128,-1,15
 381 -12 381 -12 312 -12 c 0,16,17
 241 -12 241 -12 182 22 c 128,-1,18
 123 56 123 56 88.5 117.5 c 128,-1,19
 54 179 54 179 54 258 c 0,20,21
 54 332 54 332 86 394 c 128,-1,22
 118 456 118 456 175 492 c 128,-1,23
 232 528 232 528 302 528 c 0,24,25
 376 528 376 528 431 492 c 128,-1,26
 486 456 486 456 514.5 393.5 c 128,-1,27
 543 331 543 331 543 254 c 0,28,29
 543 239 543 239 542 230 c 1,30,-1
 132 230 l 1,31,7
 140 149 140 149 191.5 102 c 128,-1,8
416 413 m 128,-1,33
 373 463 373 463 300 463 c 0,34,35
 233 463 233 463 186.5 413 c 128,-1,36
 140 363 140 363 132 287 c 1,37,-1
 465 287 l 1,38,32
 459 363 459 363 416 413 c 128,-1,33
EndSplineSet
EndChar

StartChar: edieresis
Encoding: 235 235 178
Width: 592
GlyphClass: 1
Flags: W
LayerCount: 2
Fore
SplineSet
166 690 m 1,0,-1
 256 690 l 1,1,-1
 256 595 l 1,2,-1
 166 595 l 1,3,-1
 166 690 l 1,0,-1
342 690 m 1,4,-1
 432 690 l 1,5,-1
 432 595 l 1,6,-1
 342 595 l 1,7,-1
 342 690 l 1,4,-1
191.5 102 m 128,-1,9
 243 55 243 55 314 55 c 0,10,11
 365 55 365 55 404 74 c 128,-1,12
 443 93 443 93 477 128 c 1,13,-1
 525 85 l 1,14,15
 483 38 483 38 432 13 c 128,-1,16
 381 -12 381 -12 312 -12 c 0,17,18
 241 -12 241 -12 182 22 c 128,-1,19
 123 56 123 56 88.5 117.5 c 128,-1,20
 54 179 54 179 54 258 c 0,21,22
 54 332 54 332 86 394 c 128,-1,23
 118 456 118 456 175 492 c 128,-1,24
 232 528 232 528 302 528 c 0,25,26
 376 528 376 528 431 492 c 128,-1,27
 486 456 486 456 514.5 393.5 c 128,-1,28
 543 331 543 331 543 254 c 0,29,30
 543 239 543 239 542 230 c 1,31,-1
 132 230 l 1,32,8
 140 149 140 149 191.5 102 c 128,-1,9
416 413 m 128,-1,34
 373 463 373 463 300 463 c 0,35,36
 233 463 233 463 186.5 413 c 128,-1,37
 140 363 140 363 132 287 c 1,38,-1
 465 287 l 1,39,33
 459 363 459 363 416 413 c 128,-1,34
EndSplineSet
EndChar

StartChar: iacute
Encoding: 237 237 179
Width: 263
GlyphClass: 1
Flags: W
LayerCount: 2
Fore
SplineSet
195 740 m 1,0,-1
 275 703 l 1,1,-1
 162 595 l 1,2,-1
 100 595 l 1,3,-1
 195 740 l 1,0,-1
93 517 m 1,4,-1
 170 517 l 1,5,-1
 170 0 l 1,6,-1
 93 0 l 1,7,-1
 93 517 l 1,4,-1
EndSplineSet
EndChar

StartChar: igrave
Encoding: 236 236 180
Width: 263
GlyphClass: 1
Flags: W
LayerCount: 2
Fore
SplineSet
69 740 m 1,0,-1
 164 595 l 1,1,-1
 102 595 l 1,2,-1
 -11 703 l 1,3,-1
 69 740 l 1,0,-1
93 517 m 1,4,-1
 170 517 l 1,5,-1
 170 0 l 1,6,-1
 93 0 l 1,7,-1
 93 517 l 1,4,-1
EndSplineSet
EndChar

StartChar: icircumflex
Encoding: 238 238 181
Width: 263
GlyphClass: 1
Flags: W
LayerCount: 2
Fore
SplineSet
-9 595 m 1,0,-1
 97 726 l 1,1,-1
 165 726 l 1,2,-1
 271 595 l 1,3,-1
 205 595 l 1,4,-1
 130 662 l 1,5,-1
 55 595 l 1,6,-1
 -9 595 l 1,0,-1
93 517 m 1,7,-1
 170 517 l 1,8,-1
 170 0 l 1,9,-1
 93 0 l 1,10,-1
 93 517 l 1,7,-1
EndSplineSet
EndChar

StartChar: idieresis
Encoding: 239 239 182
Width: 263
GlyphClass: 1
Flags: W
LayerCount: 2
Fore
SplineSet
-2 690 m 1,0,-1
 88 690 l 1,1,-1
 88 595 l 1,2,-1
 -2 595 l 1,3,-1
 -2 690 l 1,0,-1
174 690 m 1,4,-1
 264 690 l 1,5,-1
 264 595 l 1,6,-1
 174 595 l 1,7,-1
 174 690 l 1,4,-1
93 517 m 1,8,-1
 170 517 l 1,9,-1
 170 0 l 1,10,-1
 93 0 l 1,11,-1
 93 517 l 1,8,-1
EndSplineSet
EndChar

StartChar: ntilde
Encoding: 241 241 183
Width: 616
GlyphClass: 1
Flags: W
LayerCount: 2
Fore
SplineSet
439 619.5 m 128,-1,1
 417 595 417 595 381 595 c 0,2,3
 355 595 355 595 305 617 c 0,4,5
 302 618 302 618 281.5 626.5 c 128,-1,6
 261 635 261 635 247 635 c 0,7,8
 228 635 228 635 217.5 624.5 c 128,-1,9
 207 614 207 614 195 586 c 1,10,-1
 148 599 l 1,11,12
 163 655 163 655 185 679.5 c 128,-1,13
 207 704 207 704 243 704 c 0,14,15
 269 704 269 704 319 682 c 0,16,17
 322 681 322 681 342.5 672.5 c 128,-1,18
 363 664 363 664 377 664 c 0,19,20
 396 664 396 664 406.5 674.5 c 128,-1,21
 417 685 417 685 429 713 c 1,22,-1
 476 700 l 1,23,0
 461 644 461 644 439 619.5 c 128,-1,1
86 0 m 1,24,-1
 86 517 l 1,25,-1
 163 517 l 1,26,-1
 163 427 l 1,27,28
 224 528 224 528 340 528 c 0,29,30
 432 528 432 528 485 471.5 c 128,-1,31
 538 415 538 415 538 321 c 2,32,-1
 538 0 l 1,33,-1
 461 0 l 1,34,-1
 461 302 l 2,35,36
 461 375 461 375 423.5 416.5 c 128,-1,37
 386 458 386 458 318 458 c 0,38,39
 251 458 251 458 207 413 c 128,-1,40
 163 368 163 368 163 296 c 2,41,-1
 163 0 l 1,42,-1
 86 0 l 1,24,-1
EndSplineSet
EndChar

StartChar: oacute
Encoding: 243 243 184
Width: 646
GlyphClass: 1
Flags: W
LayerCount: 2
Fore
SplineSet
388 740 m 1,0,-1
 468 703 l 1,1,-1
 355 595 l 1,2,-1
 293 595 l 1,3,-1
 388 740 l 1,0,-1
557.5 124 m 128,-1,5
 522 62 522 62 460 25 c 128,-1,6
 398 -12 398 -12 322 -12 c 256,7,8
 246 -12 246 -12 185 24.5 c 128,-1,9
 124 61 124 61 89 122.5 c 128,-1,10
 54 184 54 184 54 257 c 256,11,12
 54 330 54 330 89 392 c 128,-1,13
 124 454 124 454 186 491 c 128,-1,14
 248 528 248 528 324 528 c 256,15,16
 400 528 400 528 461.5 491.5 c 128,-1,17
 523 455 523 455 558 393.5 c 128,-1,18
 593 332 593 332 593 259 c 256,19,4
 593 186 593 186 557.5 124 c 128,-1,5
488.5 359.5 m 128,-1,21
 463 406 463 406 419.5 433 c 128,-1,22
 376 460 376 460 322 460 c 0,23,24
 267 460 267 460 224 433.5 c 128,-1,25
 181 407 181 407 157 361 c 128,-1,26
 133 315 133 315 133 259 c 0,27,28
 133 204 133 204 158 157.5 c 128,-1,29
 183 111 183 111 227 84 c 128,-1,30
 271 57 271 57 324 57 c 0,31,32
 379 57 379 57 422 83.5 c 128,-1,33
 465 110 465 110 489.5 156 c 128,-1,34
 514 202 514 202 514 257 c 0,35,20
 514 313 514 313 488.5 359.5 c 128,-1,21
EndSplineSet
EndChar

StartChar: ograve
Encoding: 242 242 185
Width: 646
GlyphClass: 1
Flags: W
LayerCount: 2
Fore
SplineSet
259 740 m 1,0,-1
 354 595 l 1,1,-1
 292 595 l 1,2,-1
 179 703 l 1,3,-1
 259 740 l 1,0,-1
557.5 124 m 128,-1,5
 522 62 522 62 460 25 c 128,-1,6
 398 -12 398 -12 322 -12 c 256,7,8
 246 -12 246 -12 185 24.5 c 128,-1,9
 124 61 124 61 89 122.5 c 128,-1,10
 54 184 54 184 54 257 c 256,11,12
 54 330 54 330 89 392 c 128,-1,13
 124 454 124 454 186 491 c 128,-1,14
 248 528 248 528 324 528 c 256,15,16
 400 528 400 528 461.5 491.5 c 128,-1,17
 523 455 523 455 558 393.5 c 128,-1,18
 593 332 593 332 593 259 c 256,19,4
 593 186 593 186 557.5 124 c 128,-1,5
488.5 359.5 m 128,-1,21
 463 406 463 406 419.5 433 c 128,-1,22
 376 460 376 460 322 460 c 0,23,24
 267 460 267 460 224 433.5 c 128,-1,25
 181 407 181 407 157 361 c 128,-1,26
 133 315 133 315 133 259 c 0,27,28
 133 204 133 204 158 157.5 c 128,-1,29
 183 111 183 111 227 84 c 128,-1,30
 271 57 271 57 324 57 c 0,31,32
 379 57 379 57 422 83.5 c 128,-1,33
 465 110 465 110 489.5 156 c 128,-1,34
 514 202 514 202 514 257 c 0,35,20
 514 313 514 313 488.5 359.5 c 128,-1,21
EndSplineSet
EndChar

StartChar: ocircumflex
Encoding: 244 244 186
Width: 646
GlyphClass: 1
Flags: W
LayerCount: 2
Fore
SplineSet
183 595 m 1,0,-1
 289 726 l 1,1,-1
 357 726 l 1,2,-1
 463 595 l 1,3,-1
 397 595 l 1,4,-1
 322 662 l 1,5,-1
 247 595 l 1,6,-1
 183 595 l 1,0,-1
557.5 124 m 128,-1,8
 522 62 522 62 460 25 c 128,-1,9
 398 -12 398 -12 322 -12 c 256,10,11
 246 -12 246 -12 185 24.5 c 128,-1,12
 124 61 124 61 89 122.5 c 128,-1,13
 54 184 54 184 54 257 c 256,14,15
 54 330 54 330 89 392 c 128,-1,16
 124 454 124 454 186 491 c 128,-1,17
 248 528 248 528 324 528 c 256,18,19
 400 528 400 528 461.5 491.5 c 128,-1,20
 523 455 523 455 558 393.5 c 128,-1,21
 593 332 593 332 593 259 c 256,22,7
 593 186 593 186 557.5 124 c 128,-1,8
488.5 359.5 m 128,-1,24
 463 406 463 406 419.5 433 c 128,-1,25
 376 460 376 460 322 460 c 0,26,27
 267 460 267 460 224 433.5 c 128,-1,28
 181 407 181 407 157 361 c 128,-1,29
 133 315 133 315 133 259 c 0,30,31
 133 204 133 204 158 157.5 c 128,-1,32
 183 111 183 111 227 84 c 128,-1,33
 271 57 271 57 324 57 c 0,34,35
 379 57 379 57 422 83.5 c 128,-1,36
 465 110 465 110 489.5 156 c 128,-1,37
 514 202 514 202 514 257 c 0,38,23
 514 313 514 313 488.5 359.5 c 128,-1,24
EndSplineSet
EndChar

StartChar: odieresis
Encoding: 246 246 187
Width: 646
GlyphClass: 1
Flags: W
LayerCount: 2
Fore
SplineSet
190 690 m 1,0,-1
 280 690 l 1,1,-1
 280 595 l 1,2,-1
 190 595 l 1,3,-1
 190 690 l 1,0,-1
366 690 m 1,4,-1
 456 690 l 1,5,-1
 456 595 l 1,6,-1
 366 595 l 1,7,-1
 366 690 l 1,4,-1
557.5 124 m 128,-1,9
 522 62 522 62 460 25 c 128,-1,10
 398 -12 398 -12 322 -12 c 256,11,12
 246 -12 246 -12 185 24.5 c 128,-1,13
 124 61 124 61 89 122.5 c 128,-1,14
 54 184 54 184 54 257 c 256,15,16
 54 330 54 330 89 392 c 128,-1,17
 124 454 124 454 186 491 c 128,-1,18
 248 528 248 528 324 528 c 256,19,20
 400 528 400 528 461.5 491.5 c 128,-1,21
 523 455 523 455 558 393.5 c 128,-1,22
 593 332 593 332 593 259 c 256,23,8
 593 186 593 186 557.5 124 c 128,-1,9
488.5 359.5 m 128,-1,25
 463 406 463 406 419.5 433 c 128,-1,26
 376 460 376 460 322 460 c 0,27,28
 267 460 267 460 224 433.5 c 128,-1,29
 181 407 181 407 157 361 c 128,-1,30
 133 315 133 315 133 259 c 0,31,32
 133 204 133 204 158 157.5 c 128,-1,33
 183 111 183 111 227 84 c 128,-1,34
 271 57 271 57 324 57 c 0,35,36
 379 57 379 57 422 83.5 c 128,-1,37
 465 110 465 110 489.5 156 c 128,-1,38
 514 202 514 202 514 257 c 0,39,24
 514 313 514 313 488.5 359.5 c 128,-1,25
EndSplineSet
EndChar

StartChar: otilde
Encoding: 245 245 188
Width: 646
GlyphClass: 1
Flags: W
LayerCount: 2
Fore
SplineSet
450 619.5 m 128,-1,1
 428 595 428 595 392 595 c 0,2,3
 366 595 366 595 316 617 c 0,4,5
 313 618 313 618 292.5 626.5 c 128,-1,6
 272 635 272 635 258 635 c 0,7,8
 239 635 239 635 228.5 624.5 c 128,-1,9
 218 614 218 614 206 586 c 1,10,-1
 159 599 l 1,11,12
 174 655 174 655 196 679.5 c 128,-1,13
 218 704 218 704 254 704 c 0,14,15
 280 704 280 704 330 682 c 0,16,17
 333 681 333 681 353.5 672.5 c 128,-1,18
 374 664 374 664 388 664 c 0,19,20
 407 664 407 664 417.5 674.5 c 128,-1,21
 428 685 428 685 440 713 c 1,22,-1
 487 700 l 1,23,0
 472 644 472 644 450 619.5 c 128,-1,1
557.5 124 m 128,-1,25
 522 62 522 62 460 25 c 128,-1,26
 398 -12 398 -12 322 -12 c 256,27,28
 246 -12 246 -12 185 24.5 c 128,-1,29
 124 61 124 61 89 122.5 c 128,-1,30
 54 184 54 184 54 257 c 256,31,32
 54 330 54 330 89 392 c 128,-1,33
 124 454 124 454 186 491 c 128,-1,34
 248 528 248 528 324 528 c 256,35,36
 400 528 400 528 461.5 491.5 c 128,-1,37
 523 455 523 455 558 393.5 c 128,-1,38
 593 332 593 332 593 259 c 256,39,24
 593 186 593 186 557.5 124 c 128,-1,25
488.5 359.5 m 128,-1,41
 463 406 463 406 419.5 433 c 128,-1,42
 376 460 376 460 322 460 c 0,43,44
 267 460 267 460 224 433.5 c 128,-1,45
 181 407 181 407 157 361 c 128,-1,46
 133 315 133 315 133 259 c 0,47,48
 133 204 133 204 158 157.5 c 128,-1,49
 183 111 183 111 227 84 c 128,-1,50
 271 57 271 57 324 57 c 0,51,52
 379 57 379 57 422 83.5 c 128,-1,53
 465 110 465 110 489.5 156 c 128,-1,54
 514 202 514 202 514 257 c 0,55,40
 514 313 514 313 488.5 359.5 c 128,-1,41
EndSplineSet
EndChar

StartChar: uacute
Encoding: 250 250 189
Width: 616
GlyphClass: 1
Flags: W
LayerCount: 2
Fore
SplineSet
361 736 m 1,0,-1
 441 699 l 1,1,-1
 328 591 l 1,2,-1
 266 591 l 1,3,-1
 361 736 l 1,0,-1
529 517 m 1,4,-1
 529 0 l 1,5,-1
 453 0 l 1,6,-1
 453 90 l 1,7,8
 390 -11 390 -11 276 -11 c 0,9,10
 184 -11 184 -11 131 45.5 c 128,-1,11
 78 102 78 102 78 196 c 2,12,-1
 78 517 l 1,13,-1
 155 517 l 1,14,-1
 155 215 l 2,15,16
 155 142 155 142 192.5 100.5 c 128,-1,17
 230 59 230 59 298 59 c 0,18,19
 342 59 342 59 377 79.5 c 128,-1,20
 412 100 412 100 432.5 136.5 c 128,-1,21
 453 173 453 173 453 221 c 2,22,-1
 453 517 l 1,23,-1
 529 517 l 1,4,-1
EndSplineSet
EndChar

StartChar: ugrave
Encoding: 249 249 190
Width: 616
GlyphClass: 1
Flags: W
LayerCount: 2
Fore
SplineSet
251 736 m 1,0,-1
 346 591 l 1,1,-1
 284 591 l 1,2,-1
 171 699 l 1,3,-1
 251 736 l 1,0,-1
529 517 m 1,4,-1
 529 0 l 1,5,-1
 453 0 l 1,6,-1
 453 90 l 1,7,8
 390 -11 390 -11 276 -11 c 0,9,10
 184 -11 184 -11 131 45.5 c 128,-1,11
 78 102 78 102 78 196 c 2,12,-1
 78 517 l 1,13,-1
 155 517 l 1,14,-1
 155 215 l 2,15,16
 155 142 155 142 192.5 100.5 c 128,-1,17
 230 59 230 59 298 59 c 0,18,19
 342 59 342 59 377 79.5 c 128,-1,20
 412 100 412 100 432.5 136.5 c 128,-1,21
 453 173 453 173 453 221 c 2,22,-1
 453 517 l 1,23,-1
 529 517 l 1,4,-1
EndSplineSet
EndChar

StartChar: ucircumflex
Encoding: 251 251 191
Width: 616
GlyphClass: 1
Flags: W
LayerCount: 2
Fore
SplineSet
169 595 m 1,0,-1
 275 726 l 1,1,-1
 343 726 l 1,2,-1
 449 595 l 1,3,-1
 383 595 l 1,4,-1
 308 662 l 1,5,-1
 233 595 l 1,6,-1
 169 595 l 1,0,-1
529 517 m 1,7,-1
 529 0 l 1,8,-1
 453 0 l 1,9,-1
 453 90 l 1,10,11
 390 -11 390 -11 276 -11 c 0,12,13
 184 -11 184 -11 131 45.5 c 128,-1,14
 78 102 78 102 78 196 c 2,15,-1
 78 517 l 1,16,-1
 155 517 l 1,17,-1
 155 215 l 2,18,19
 155 142 155 142 192.5 100.5 c 128,-1,20
 230 59 230 59 298 59 c 0,21,22
 342 59 342 59 377 79.5 c 128,-1,23
 412 100 412 100 432.5 136.5 c 128,-1,24
 453 173 453 173 453 221 c 2,25,-1
 453 517 l 1,26,-1
 529 517 l 1,7,-1
EndSplineSet
EndChar

StartChar: udieresis
Encoding: 252 252 192
Width: 616
GlyphClass: 1
Flags: W
LayerCount: 2
Fore
SplineSet
176 690 m 1,0,-1
 266 690 l 1,1,-1
 266 595 l 1,2,-1
 176 595 l 1,3,-1
 176 690 l 1,0,-1
352 690 m 1,4,-1
 442 690 l 1,5,-1
 442 595 l 1,6,-1
 352 595 l 1,7,-1
 352 690 l 1,4,-1
529 517 m 1,8,-1
 529 0 l 1,9,-1
 453 0 l 1,10,-1
 453 90 l 1,11,12
 390 -11 390 -11 276 -11 c 0,13,14
 184 -11 184 -11 131 45.5 c 128,-1,15
 78 102 78 102 78 196 c 2,16,-1
 78 517 l 1,17,-1
 155 517 l 1,18,-1
 155 215 l 2,19,20
 155 142 155 142 192.5 100.5 c 128,-1,21
 230 59 230 59 298 59 c 0,22,23
 342 59 342 59 377 79.5 c 128,-1,24
 412 100 412 100 432.5 136.5 c 128,-1,25
 453 173 453 173 453 221 c 2,26,-1
 453 517 l 1,27,-1
 529 517 l 1,8,-1
EndSplineSet
EndChar

StartChar: degree
Encoding: 176 176 193
Width: 458
GlyphClass: 1
Flags: W
LayerCount: 2
Fore
SplineSet
364 477.5 m 128,-1,1
 342 442 342 442 305.5 421 c 128,-1,2
 269 400 269 400 229 400 c 256,3,4
 189 400 189 400 152.5 421 c 128,-1,5
 116 442 116 442 94 477.5 c 128,-1,6
 72 513 72 513 72 553 c 256,7,8
 72 593 72 593 94 628.5 c 128,-1,9
 116 664 116 664 152.5 685 c 128,-1,10
 189 706 189 706 229 706 c 256,11,12
 269 706 269 706 305.5 685 c 128,-1,13
 342 664 342 664 364 628.5 c 128,-1,14
 386 593 386 593 386 553 c 256,15,0
 386 513 386 513 364 477.5 c 128,-1,1
299.5 624 m 128,-1,17
 271 654 271 654 229 654 c 256,18,19
 187 654 187 654 158.5 624 c 128,-1,20
 130 594 130 594 130 553 c 256,21,22
 130 512 130 512 158.5 482 c 128,-1,23
 187 452 187 452 229 452 c 256,24,25
 271 452 271 452 299.5 482 c 128,-1,26
 328 512 328 512 328 553 c 256,27,16
 328 594 328 594 299.5 624 c 128,-1,17
EndSplineSet
EndChar

StartChar: registered
Encoding: 174 174 194
Width: 830
GlyphClass: 1
Flags: W
LayerCount: 2
Fore
SplineSet
728.5 169.5 m 128,-1,1
 680 86 680 86 597 37 c 128,-1,2
 514 -12 514 -12 414 -12 c 256,3,4
 314 -12 314 -12 231.5 36.5 c 128,-1,5
 149 85 149 85 101 168 c 128,-1,6
 53 251 53 251 53 349 c 256,7,8
 53 447 53 447 101.5 530.5 c 128,-1,9
 150 614 150 614 233 663 c 128,-1,10
 316 712 316 712 416 712 c 256,11,12
 516 712 516 712 598.5 663.5 c 128,-1,13
 681 615 681 615 729 532 c 128,-1,14
 777 449 777 449 777 351 c 256,15,0
 777 253 777 253 728.5 169.5 c 128,-1,1
701 516.5 m 128,-1,17
 658 592 658 592 583 636.5 c 128,-1,18
 508 681 508 681 416 681 c 256,19,20
 324 681 324 681 248.5 636 c 128,-1,21
 173 591 173 591 129.5 515 c 128,-1,22
 86 439 86 439 86 349 c 256,23,24
 86 259 86 259 129 183.5 c 128,-1,25
 172 108 172 108 247 63.5 c 128,-1,26
 322 19 322 19 414 19 c 256,27,28
 506 19 506 19 581.5 64 c 128,-1,29
 657 109 657 109 700.5 185 c 128,-1,30
 744 261 744 261 744 351 c 256,31,16
 744 441 744 441 701 516.5 c 128,-1,17
553 362 m 128,-1,33
 527 334 527 334 483 324 c 1,34,-1
 598 175 l 1,35,-1
 530 175 l 1,36,-1
 423 315 l 1,37,-1
 328 315 l 1,38,-1
 328 175 l 1,39,-1
 273 175 l 1,40,-1
 273 546 l 1,41,-1
 439 546 l 2,42,43
 501 546 501 546 540 515.5 c 128,-1,44
 579 485 579 485 579 434 c 0,45,32
 579 390 579 390 553 362 c 128,-1,33
499.5 479 m 128,-1,47
 477 496 477 496 437 496 c 2,48,-1
 328 496 l 1,49,-1
 328 364 l 1,50,-1
 434 364 l 2,51,52
 474 364 474 364 498 381.5 c 128,-1,53
 522 399 522 399 522 431 c 0,54,46
 522 462 522 462 499.5 479 c 128,-1,47
EndSplineSet
EndChar

StartChar: copyright
Encoding: 169 169 195
Width: 830
GlyphClass: 1
Flags: W
LayerCount: 2
Fore
SplineSet
728.5 169.5 m 128,-1,1
 680 86 680 86 597 37 c 128,-1,2
 514 -12 514 -12 414 -12 c 256,3,4
 314 -12 314 -12 231.5 36.5 c 128,-1,5
 149 85 149 85 101 168 c 128,-1,6
 53 251 53 251 53 349 c 256,7,8
 53 447 53 447 101.5 530.5 c 128,-1,9
 150 614 150 614 233 663 c 128,-1,10
 316 712 316 712 416 712 c 256,11,12
 516 712 516 712 598.5 663.5 c 128,-1,13
 681 615 681 615 729 532 c 128,-1,14
 777 449 777 449 777 351 c 256,15,0
 777 253 777 253 728.5 169.5 c 128,-1,1
701 516.5 m 128,-1,17
 658 592 658 592 583 636.5 c 128,-1,18
 508 681 508 681 416 681 c 256,19,20
 324 681 324 681 248.5 636 c 128,-1,21
 173 591 173 591 129.5 515 c 128,-1,22
 86 439 86 439 86 349 c 256,23,24
 86 259 86 259 129 183.5 c 128,-1,25
 172 108 172 108 247 63.5 c 128,-1,26
 322 19 322 19 414 19 c 256,27,28
 506 19 506 19 581.5 64 c 128,-1,29
 657 109 657 109 700.5 185 c 128,-1,30
 744 261 744 261 744 351 c 256,31,16
 744 441 744 441 701 516.5 c 128,-1,17
500.5 179.5 m 128,-1,33
 466 163 466 163 419 163 c 0,34,35
 367 163 367 163 324.5 189 c 128,-1,36
 282 215 282 215 257.5 259 c 128,-1,37
 233 303 233 303 233 355 c 256,38,39
 233 407 233 407 257.5 451 c 128,-1,40
 282 495 282 495 325 521 c 128,-1,41
 368 547 368 547 421 547 c 0,42,43
 468 547 468 547 501 531.5 c 128,-1,44
 534 516 534 516 565 487 c 1,45,-1
 528 447 l 1,46,47
 476 497 476 497 420 497 c 0,48,49
 363 497 363 497 326 456 c 128,-1,50
 289 415 289 415 289 356 c 0,51,52
 289 318 289 318 306.5 285 c 128,-1,53
 324 252 324 252 354.5 233 c 128,-1,54
 385 214 385 214 421 214 c 0,55,56
 454 214 454 214 479 226.5 c 128,-1,57
 504 239 504 239 531 264 c 1,58,-1
 567 229 l 1,59,32
 535 196 535 196 500.5 179.5 c 128,-1,33
EndSplineSet
EndChar

StartChar: trademark
Encoding: 8482 8482 196
Width: 690
GlyphClass: 1
Flags: W
LayerCount: 2
Fore
SplineSet
125 392 m 1,0,-1
 125 658 l 1,1,-1
 26 658 l 1,2,-1
 26 700 l 1,3,-1
 268 700 l 1,4,-1
 268 658 l 1,5,-1
 169 658 l 1,6,-1
 169 392 l 1,7,-1
 125 392 l 1,0,-1
489 461 m 1,8,-1
 380 628 l 1,9,-1
 380 392 l 1,10,-1
 336 392 l 1,11,-1
 336 700 l 1,12,-1
 383 700 l 1,13,-1
 493 531 l 1,14,-1
 602 700 l 1,15,-1
 648 700 l 1,16,-1
 648 392 l 1,17,-1
 605 392 l 1,18,-1
 605 628 l 1,19,-1
 495 461 l 1,20,-1
 489 461 l 1,8,-1
EndSplineSet
EndChar

StartChar: plusminus
Encoding: 177 177 197
Width: 604
GlyphClass: 1
Flags: W
LayerCount: 2
Fore
SplineSet
516 87.5 m 128,-1,1
 486 41 486 41 431 14.5 c 128,-1,2
 376 -12 376 -12 306 -12 c 0,3,4
 225 -12 225 -12 157 22 c 128,-1,5
 89 56 89 56 43 114 c 1,6,-1
 101 164 l 1,7,8
 184 60 184 60 308 60 c 0,9,10
 378 60 378 60 422 96 c 128,-1,11
 466 132 466 132 466 191 c 0,12,13
 466 251 466 251 416.5 285 c 128,-1,14
 367 319 367 319 279 319 c 2,15,-1
 207 319 l 1,16,-1
 207 387 l 1,17,-1
 281 387 l 2,18,19
 354 387 354 387 400.5 422 c 128,-1,20
 447 457 447 457 447 517 c 0,21,22
 447 571 447 571 405.5 605.5 c 128,-1,23
 364 640 364 640 297 640 c 0,24,25
 240 640 240 640 196.5 615 c 128,-1,26
 153 590 153 590 116 540 c 1,27,-1
 58 582 l 1,28,29
 103 645 103 645 161 678.5 c 128,-1,30
 219 712 219 712 299 712 c 0,31,32
 365 712 365 712 417 688 c 128,-1,33
 469 664 469 664 498 621 c 128,-1,34
 527 578 527 578 527 524 c 0,35,36
 527 460 527 460 493 420 c 128,-1,37
 459 380 459 380 405 359 c 1,38,39
 470 338 470 338 508 296.5 c 128,-1,40
 546 255 546 255 546 191 c 0,41,0
 546 134 546 134 516 87.5 c 128,-1,1
EndSplineSet
EndChar

StartChar: uni00B5
Encoding: 181 181 198
Width: 850
GlyphClass: 1
Flags: W
LayerCount: 2
Fore
SplineSet
748 194 m 128,-1,1
 714 120 714 120 653 70 c 1,2,-1
 825 -95 l 1,3,-1
 825 -101 l 1,4,-1
 709 -101 l 1,5,-1
 577 22 l 1,6,7
 507 -12 507 -12 424 -12 c 0,8,9
 320 -12 320 -12 239 37 c 128,-1,10
 158 86 158 86 113 169 c 128,-1,11
 68 252 68 252 68 349 c 256,12,13
 68 446 68 446 113.5 529.5 c 128,-1,14
 159 613 159 613 240.5 662.5 c 128,-1,15
 322 712 322 712 426 712 c 256,16,17
 530 712 530 712 611 663 c 128,-1,18
 692 614 692 614 737 531 c 128,-1,19
 782 448 782 448 782 351 c 0,20,0
 782 268 782 268 748 194 c 128,-1,1
664.5 494.5 m 128,-1,22
 629 561 629 561 565.5 600 c 128,-1,23
 502 639 502 639 424 639 c 256,24,25
 346 639 346 639 283.5 600.5 c 128,-1,26
 221 562 221 562 185.5 496 c 128,-1,27
 150 430 150 430 150 351 c 256,28,29
 150 272 150 272 185.5 205.5 c 128,-1,30
 221 139 221 139 284.5 100 c 128,-1,31
 348 61 348 61 426 61 c 256,32,33
 504 61 504 61 566.5 99.5 c 128,-1,34
 629 138 629 138 664.5 204 c 128,-1,35
 700 270 700 270 700 349 c 256,36,21
 700 428 700 428 664.5 494.5 c 128,-1,22
EndSplineSet
EndChar

StartChar: pi
Encoding: 960 960 199
Width: 830
GlyphClass: 1
Flags: W
LayerCount: 2
Fore
SplineSet
728.5 169.5 m 128,-1,1
 680 86 680 86 597 37 c 128,-1,2
 514 -12 514 -12 414 -12 c 256,3,4
 314 -12 314 -12 231.5 36.5 c 128,-1,5
 149 85 149 85 101 168 c 128,-1,6
 53 251 53 251 53 349 c 256,7,8
 53 447 53 447 101.5 530.5 c 128,-1,9
 150 614 150 614 233 663 c 128,-1,10
 316 712 316 712 416 712 c 256,11,12
 516 712 516 712 598.5 663.5 c 128,-1,13
 681 615 681 615 729 532 c 128,-1,14
 777 449 777 449 777 351 c 256,15,0
 777 253 777 253 728.5 169.5 c 128,-1,1
701 516.5 m 128,-1,17
 658 592 658 592 583 636.5 c 128,-1,18
 508 681 508 681 416 681 c 256,19,20
 324 681 324 681 248.5 636 c 128,-1,21
 173 591 173 591 129.5 515 c 128,-1,22
 86 439 86 439 86 349 c 256,23,24
 86 259 86 259 129 183.5 c 128,-1,25
 172 108 172 108 247 63.5 c 128,-1,26
 322 19 322 19 414 19 c 256,27,28
 506 19 506 19 581.5 64 c 128,-1,29
 657 109 657 109 700.5 185 c 128,-1,30
 744 261 744 261 744 351 c 256,31,16
 744 441 744 441 701 516.5 c 128,-1,17
538.5 329.5 m 128,-1,33
 495 297 495 297 431 297 c 2,34,-1
 348 297 l 1,35,-1
 348 172 l 1,36,-1
 292 172 l 1,37,-1
 292 543 l 1,38,-1
 438 543 l 2,39,40
 504 543 504 543 543 511 c 128,-1,41
 582 479 582 479 582 422 c 0,42,32
 582 362 582 362 538.5 329.5 c 128,-1,33
501.5 475 m 128,-1,44
 477 493 477 493 433 493 c 2,45,-1
 348 493 l 1,46,-1
 348 347 l 1,47,-1
 432 347 l 2,48,49
 475 347 475 347 500.5 366.5 c 128,-1,50
 526 386 526 386 526 421 c 0,51,43
 526 457 526 457 501.5 475 c 128,-1,44
EndSplineSet
EndChar

StartChar: uni03A9
Encoding: 937 937 200
Width: 735
GlyphClass: 1
Flags: W
LayerCount: 2
Fore
SplineSet
355 449 m 1,0,-1
 192 449 l 1,1,-1
 192 0 l 1,2,-1
 115 0 l 1,3,-1
 115 449 l 1,4,-1
 44 449 l 1,5,-1
 44 516 l 1,6,-1
 115 516 l 1,7,-1
 115 561 l 2,8,9
 115 645 115 645 155.5 689.5 c 128,-1,10
 196 734 196 734 271 734 c 0,11,12
 320 734 320 734 356 721 c 1,13,-1
 356 654 l 1,14,15
 310 667 310 667 281 667 c 0,16,17
 191 667 191 667 191 557 c 2,18,-1
 191 515 l 1,19,-1
 355 515 l 1,20,-1
 355 449 l 1,0,-1
722 449 m 1,21,-1
 559 449 l 1,22,-1
 559 0 l 1,23,-1
 483 0 l 1,24,-1
 483 449 l 1,25,-1
 412 449 l 1,26,-1
 412 516 l 1,27,-1
 483 516 l 1,28,-1
 483 561 l 2,29,30
 483 645 483 645 523 689.5 c 128,-1,31
 563 734 563 734 638 734 c 0,32,33
 688 734 688 734 723 721 c 1,34,-1
 723 654 l 1,35,36
 679 667 679 667 649 667 c 0,37,38
 603 667 603 667 581 640 c 128,-1,39
 559 613 559 613 559 557 c 2,40,-1
 559 515 l 1,41,-1
 722 515 l 1,42,-1
 722 449 l 1,21,-1
EndSplineSet
EndChar

StartChar: radical
Encoding: 8730 8730 201
Width: 998
GlyphClass: 1
Flags: W
LayerCount: 2
Fore
SplineSet
355 449 m 1,0,-1
 192 449 l 1,1,-1
 192 0 l 1,2,-1
 115 0 l 1,3,-1
 115 449 l 1,4,-1
 44 449 l 1,5,-1
 44 516 l 1,6,-1
 115 516 l 1,7,-1
 115 561 l 2,8,9
 115 645 115 645 155.5 689.5 c 128,-1,10
 196 734 196 734 271 734 c 0,11,12
 320 734 320 734 356 721 c 1,13,-1
 356 654 l 1,14,15
 310 667 310 667 281 667 c 0,16,17
 191 667 191 667 191 557 c 2,18,-1
 191 515 l 1,19,-1
 355 515 l 1,20,-1
 355 449 l 1,0,-1
722 449 m 1,21,-1
 559 449 l 1,22,-1
 559 0 l 1,23,-1
 483 0 l 1,24,-1
 483 449 l 1,25,-1
 412 449 l 1,26,-1
 412 516 l 1,27,-1
 483 516 l 1,28,-1
 483 561 l 2,29,30
 483 645 483 645 523 689.5 c 128,-1,31
 563 734 563 734 638 734 c 0,32,33
 688 734 688 734 723 721 c 1,34,-1
 723 654 l 1,35,36
 679 667 679 667 649 667 c 0,37,38
 603 667 603 667 581 640 c 128,-1,39
 559 613 559 613 559 557 c 2,40,-1
 559 515 l 1,41,-1
 722 515 l 1,42,-1
 722 449 l 1,21,-1
828 730 m 1,43,-1
 905 730 l 1,44,-1
 905 0 l 1,45,-1
 828 0 l 1,46,-1
 828 730 l 1,43,-1
EndSplineSet
EndChar

StartChar: approxequal
Encoding: 8776 8776 202
Width: 998
GlyphClass: 1
Flags: W
LayerCount: 2
Fore
SplineSet
355 449 m 1,0,-1
 192 449 l 1,1,-1
 192 0 l 1,2,-1
 115 0 l 1,3,-1
 115 449 l 1,4,-1
 44 449 l 1,5,-1
 44 516 l 1,6,-1
 115 516 l 1,7,-1
 115 561 l 2,8,9
 115 645 115 645 155.5 689.5 c 128,-1,10
 196 734 196 734 271 734 c 0,11,12
 320 734 320 734 356 721 c 1,13,-1
 356 654 l 1,14,15
 310 667 310 667 281 667 c 0,16,17
 191 667 191 667 191 557 c 2,18,-1
 191 515 l 1,19,-1
 355 515 l 1,20,-1
 355 449 l 1,0,-1
722 449 m 1,21,-1
 559 449 l 1,22,-1
 559 0 l 1,23,-1
 483 0 l 1,24,-1
 483 449 l 1,25,-1
 412 449 l 1,26,-1
 412 516 l 1,27,-1
 483 516 l 1,28,-1
 483 561 l 2,29,30
 483 645 483 645 523 689.5 c 128,-1,31
 563 734 563 734 638 734 c 0,32,33
 688 734 688 734 723 721 c 1,34,-1
 723 654 l 1,35,36
 679 667 679 667 649 667 c 0,37,38
 603 667 603 667 581 640 c 128,-1,39
 559 613 559 613 559 557 c 2,40,-1
 559 515 l 1,41,-1
 722 515 l 1,42,-1
 722 449 l 1,21,-1
823 715 m 1,43,-1
 910 715 l 1,44,-1
 910 630 l 1,45,-1
 823 630 l 1,46,-1
 823 715 l 1,43,-1
828 517 m 1,47,-1
 905 517 l 1,48,-1
 905 0 l 1,49,-1
 828 0 l 1,50,-1
 828 517 l 1,47,-1
EndSplineSet
EndChar

StartChar: Agrave
Encoding: 192 192 204
Width: 790
GlyphClass: 1
Flags: W
LayerCount: 2
Fore
SplineSet
330 907 m 1,0,-1
 425 762 l 1,1,-1
 363 762 l 1,2,-1
 250 870 l 1,3,-1
 330 907 l 1,0,-1
666 0 m 1,4,-1
 584 185 l 1,5,-1
 203 185 l 1,6,-1
 120 0 l 1,7,-1
 39 0 l 1,8,-1
 358 705 l 1,9,-1
 432 705 l 1,10,-1
 751 0 l 1,11,-1
 666 0 l 1,4,-1
234 256 m 1,12,-1
 553 256 l 1,13,-1
 394 613 l 1,14,-1
 234 256 l 1,12,-1
EndSplineSet
EndChar

StartChar: Atilde
Encoding: 195 195 205
Width: 790
GlyphClass: 1
Flags: W
LayerCount: 2
Fore
SplineSet
522 786.5 m 128,-1,1
 500 762 500 762 464 762 c 0,2,3
 438 762 438 762 388 784 c 0,4,5
 385 785 385 785 364.5 793.5 c 128,-1,6
 344 802 344 802 330 802 c 0,7,8
 311 802 311 802 300.5 791.5 c 128,-1,9
 290 781 290 781 278 753 c 1,10,-1
 231 766 l 1,11,12
 246 822 246 822 268 846.5 c 128,-1,13
 290 871 290 871 326 871 c 0,14,15
 352 871 352 871 402 849 c 0,16,17
 405 848 405 848 425.5 839.5 c 128,-1,18
 446 831 446 831 460 831 c 0,19,20
 479 831 479 831 489.5 841.5 c 128,-1,21
 500 852 500 852 512 880 c 1,22,-1
 559 867 l 1,23,0
 544 811 544 811 522 786.5 c 128,-1,1
666 0 m 1,24,-1
 584 185 l 1,25,-1
 203 185 l 1,26,-1
 120 0 l 1,27,-1
 39 0 l 1,28,-1
 358 705 l 1,29,-1
 432 705 l 1,30,-1
 751 0 l 1,31,-1
 666 0 l 1,24,-1
234 256 m 1,32,-1
 553 256 l 1,33,-1
 394 613 l 1,34,-1
 234 256 l 1,32,-1
EndSplineSet
EndChar

StartChar: Otilde
Encoding: 213 213 206
Width: 850
GlyphClass: 1
Flags: W
LayerCount: 2
Fore
SplineSet
552 786.5 m 128,-1,1
 530 762 530 762 494 762 c 0,2,3
 468 762 468 762 418 784 c 0,4,5
 415 785 415 785 394.5 793.5 c 128,-1,6
 374 802 374 802 360 802 c 0,7,8
 341 802 341 802 330.5 791.5 c 128,-1,9
 320 781 320 781 308 753 c 1,10,-1
 261 766 l 1,11,12
 276 822 276 822 298 846.5 c 128,-1,13
 320 871 320 871 356 871 c 0,14,15
 382 871 382 871 432 849 c 0,16,17
 435 848 435 848 455.5 839.5 c 128,-1,18
 476 831 476 831 490 831 c 0,19,20
 509 831 509 831 519.5 841.5 c 128,-1,21
 530 852 530 852 542 880 c 1,22,-1
 589 867 l 1,23,0
 574 811 574 811 552 786.5 c 128,-1,1
736.5 170.5 m 128,-1,25
 691 87 691 87 609.5 37.5 c 128,-1,26
 528 -12 528 -12 424 -12 c 256,27,28
 320 -12 320 -12 239 37 c 128,-1,29
 158 86 158 86 113 169 c 128,-1,30
 68 252 68 252 68 349 c 256,31,32
 68 446 68 446 113.5 529.5 c 128,-1,33
 159 613 159 613 240.5 662.5 c 128,-1,34
 322 712 322 712 426 712 c 256,35,36
 530 712 530 712 611 663 c 128,-1,37
 692 614 692 614 737 531 c 128,-1,38
 782 448 782 448 782 351 c 256,39,24
 782 254 782 254 736.5 170.5 c 128,-1,25
664.5 494.5 m 128,-1,41
 629 561 629 561 565.5 600 c 128,-1,42
 502 639 502 639 424 639 c 256,43,44
 346 639 346 639 283.5 600.5 c 128,-1,45
 221 562 221 562 185.5 496 c 128,-1,46
 150 430 150 430 150 351 c 256,47,48
 150 272 150 272 185.5 205.5 c 128,-1,49
 221 139 221 139 284.5 100 c 128,-1,50
 348 61 348 61 426 61 c 256,51,52
 504 61 504 61 566.5 99.5 c 128,-1,53
 629 138 629 138 664.5 204 c 128,-1,54
 700 270 700 270 700 349 c 256,55,40
 700 428 700 428 664.5 494.5 c 128,-1,41
EndSplineSet
EndChar

StartChar: ydieresis
Encoding: 255 255 207
Width: 591
GlyphClass: 1
Flags: W
LayerCount: 2
Fore
SplineSet
163 690 m 1,0,-1
 253 690 l 1,1,-1
 253 595 l 1,2,-1
 163 595 l 1,3,-1
 163 690 l 1,0,-1
339 690 m 1,4,-1
 429 690 l 1,5,-1
 429 595 l 1,6,-1
 339 595 l 1,7,-1
 339 690 l 1,4,-1
265 -129.5 m 128,-1,9
 225 -163 225 -163 166 -163 c 0,10,11
 135 -163 135 -163 109 -156.5 c 128,-1,12
 83 -150 83 -150 56 -137 c 1,13,-1
 82 -76 l 1,14,15
 119 -95 119 -95 163 -95 c 0,16,17
 198 -95 198 -95 222 -73.5 c 128,-1,18
 246 -52 246 -52 269 2 c 1,19,-1
 34 517 l 1,20,-1
 119 517 l 1,21,-1
 307 86 l 1,22,-1
 473 517 l 1,23,-1
 555 517 l 1,24,-1
 338 -17 l 2,25,8
 305 -96 305 -96 265 -129.5 c 128,-1,9
EndSplineSet
EndChar

StartChar: Ydieresis
Encoding: 376 376 208
Width: 716
GlyphClass: 1
Flags: W
LayerCount: 2
Fore
SplineSet
225 854 m 1,0,-1
 315 854 l 1,1,-1
 315 759 l 1,2,-1
 225 759 l 1,3,-1
 225 854 l 1,0,-1
401 854 m 1,4,-1
 491 854 l 1,5,-1
 491 759 l 1,6,-1
 401 759 l 1,7,-1
 401 854 l 1,4,-1
318 0 m 1,8,-1
 318 277 l 1,9,-1
 27 700 l 1,10,-1
 123 700 l 1,11,-1
 359 350 l 1,12,-1
 597 700 l 1,13,-1
 689 700 l 1,14,-1
 398 278 l 1,15,-1
 398 0 l 1,16,-1
 318 0 l 1,8,-1
EndSplineSet
EndChar

StartChar: Acircumflex
Encoding: 194 194 209
Width: 790
GlyphClass: 1
Flags: W
LayerCount: 2
Fore
SplineSet
255 759 m 1,0,-1
 361 890 l 1,1,-1
 429 890 l 1,2,-1
 535 759 l 1,3,-1
 469 759 l 1,4,-1
 394 826 l 1,5,-1
 319 759 l 1,6,-1
 255 759 l 1,0,-1
666 0 m 1,7,-1
 584 185 l 1,8,-1
 203 185 l 1,9,-1
 120 0 l 1,10,-1
 39 0 l 1,11,-1
 358 705 l 1,12,-1
 432 705 l 1,13,-1
 751 0 l 1,14,-1
 666 0 l 1,7,-1
234 256 m 1,15,-1
 553 256 l 1,16,-1
 394 613 l 1,17,-1
 234 256 l 1,15,-1
EndSplineSet
EndChar

StartChar: Ecircumflex
Encoding: 202 202 210
Width: 670
GlyphClass: 1
Flags: W
LayerCount: 2
Fore
SplineSet
208 762 m 1,0,-1
 314 893 l 1,1,-1
 382 893 l 1,2,-1
 488 762 l 1,3,-1
 422 762 l 1,4,-1
 347 829 l 1,5,-1
 272 762 l 1,6,-1
 208 762 l 1,0,-1
178 628 m 1,7,-1
 178 389 l 1,8,-1
 560 389 l 1,9,-1
 560 317 l 1,10,-1
 178 317 l 1,11,-1
 178 72 l 1,12,-1
 610 72 l 1,13,-1
 610 0 l 1,14,-1
 99 0 l 1,15,-1
 99 700 l 1,16,-1
 605 700 l 1,17,-1
 605 628 l 1,18,-1
 178 628 l 1,7,-1
EndSplineSet
EndChar

StartChar: Aacute
Encoding: 193 193 211
Width: 790
GlyphClass: 1
Flags: W
LayerCount: 2
Fore
SplineSet
460 907 m 1,0,-1
 540 870 l 1,1,-1
 427 762 l 1,2,-1
 365 762 l 1,3,-1
 460 907 l 1,0,-1
666 0 m 1,4,-1
 584 185 l 1,5,-1
 203 185 l 1,6,-1
 120 0 l 1,7,-1
 39 0 l 1,8,-1
 358 705 l 1,9,-1
 432 705 l 1,10,-1
 751 0 l 1,11,-1
 666 0 l 1,4,-1
234 256 m 1,12,-1
 553 256 l 1,13,-1
 394 613 l 1,14,-1
 234 256 l 1,12,-1
EndSplineSet
EndChar

StartChar: Edieresis
Encoding: 203 203 212
Width: 670
GlyphClass: 1
Flags: W
LayerCount: 2
Fore
SplineSet
215 857 m 1,0,-1
 305 857 l 1,1,-1
 305 762 l 1,2,-1
 215 762 l 1,3,-1
 215 857 l 1,0,-1
391 857 m 1,4,-1
 481 857 l 1,5,-1
 481 762 l 1,6,-1
 391 762 l 1,7,-1
 391 857 l 1,4,-1
178 628 m 1,8,-1
 178 389 l 1,9,-1
 560 389 l 1,10,-1
 560 317 l 1,11,-1
 178 317 l 1,12,-1
 178 72 l 1,13,-1
 610 72 l 1,14,-1
 610 0 l 1,15,-1
 99 0 l 1,16,-1
 99 700 l 1,17,-1
 605 700 l 1,18,-1
 605 628 l 1,19,-1
 178 628 l 1,8,-1
EndSplineSet
EndChar

StartChar: Egrave
Encoding: 200 200 213
Width: 670
GlyphClass: 1
Flags: W
LayerCount: 2
Fore
SplineSet
307 907 m 1,0,-1
 402 762 l 1,1,-1
 340 762 l 1,2,-1
 227 870 l 1,3,-1
 307 907 l 1,0,-1
178 628 m 1,4,-1
 178 389 l 1,5,-1
 560 389 l 1,6,-1
 560 317 l 1,7,-1
 178 317 l 1,8,-1
 178 72 l 1,9,-1
 610 72 l 1,10,-1
 610 0 l 1,11,-1
 99 0 l 1,12,-1
 99 700 l 1,13,-1
 605 700 l 1,14,-1
 605 628 l 1,15,-1
 178 628 l 1,4,-1
EndSplineSet
EndChar

StartChar: Iacute
Encoding: 205 205 214
Width: 291
GlyphClass: 1
Flags: W
LayerCount: 2
Fore
SplineSet
209 907 m 1,0,-1
 289 870 l 1,1,-1
 176 762 l 1,2,-1
 114 762 l 1,3,-1
 209 907 l 1,0,-1
185 0 m 1,4,-1
 106 0 l 1,5,-1
 106 700 l 1,6,-1
 185 700 l 1,7,-1
 185 0 l 1,4,-1
EndSplineSet
EndChar

StartChar: Icircumflex
Encoding: 206 206 215
Width: 291
GlyphClass: 1
Flags: W
LayerCount: 2
Fore
SplineSet
6 762 m 1,0,-1
 112 893 l 1,1,-1
 180 893 l 1,2,-1
 286 762 l 1,3,-1
 220 762 l 1,4,-1
 145 829 l 1,5,-1
 70 762 l 1,6,-1
 6 762 l 1,0,-1
185 0 m 1,7,-1
 106 0 l 1,8,-1
 106 700 l 1,9,-1
 185 700 l 1,10,-1
 185 0 l 1,7,-1
EndSplineSet
EndChar

StartChar: Idieresis
Encoding: 207 207 216
Width: 291
GlyphClass: 1
Flags: W
LayerCount: 2
Fore
SplineSet
13 857 m 1,0,-1
 103 857 l 1,1,-1
 103 762 l 1,2,-1
 13 762 l 1,3,-1
 13 857 l 1,0,-1
189 857 m 1,4,-1
 279 857 l 1,5,-1
 279 762 l 1,6,-1
 189 762 l 1,7,-1
 189 857 l 1,4,-1
185 0 m 1,8,-1
 106 0 l 1,9,-1
 106 700 l 1,10,-1
 185 700 l 1,11,-1
 185 0 l 1,8,-1
EndSplineSet
EndChar

StartChar: Igrave
Encoding: 204 204 217
Width: 291
GlyphClass: 1
Flags: W
LayerCount: 2
Fore
SplineSet
82 907 m 1,0,-1
 177 762 l 1,1,-1
 115 762 l 1,2,-1
 2 870 l 1,3,-1
 82 907 l 1,0,-1
185 0 m 1,4,-1
 106 0 l 1,5,-1
 106 700 l 1,6,-1
 185 700 l 1,7,-1
 185 0 l 1,4,-1
EndSplineSet
EndChar

StartChar: Oacute
Encoding: 211 211 218
Width: 850
GlyphClass: 1
Flags: W
LayerCount: 2
Fore
SplineSet
494 907 m 1,0,-1
 574 870 l 1,1,-1
 461 762 l 1,2,-1
 399 762 l 1,3,-1
 494 907 l 1,0,-1
736.5 170.5 m 128,-1,5
 691 87 691 87 609.5 37.5 c 128,-1,6
 528 -12 528 -12 424 -12 c 256,7,8
 320 -12 320 -12 239 37 c 128,-1,9
 158 86 158 86 113 169 c 128,-1,10
 68 252 68 252 68 349 c 256,11,12
 68 446 68 446 113.5 529.5 c 128,-1,13
 159 613 159 613 240.5 662.5 c 128,-1,14
 322 712 322 712 426 712 c 256,15,16
 530 712 530 712 611 663 c 128,-1,17
 692 614 692 614 737 531 c 128,-1,18
 782 448 782 448 782 351 c 256,19,4
 782 254 782 254 736.5 170.5 c 128,-1,5
664.5 494.5 m 128,-1,21
 629 561 629 561 565.5 600 c 128,-1,22
 502 639 502 639 424 639 c 256,23,24
 346 639 346 639 283.5 600.5 c 128,-1,25
 221 562 221 562 185.5 496 c 128,-1,26
 150 430 150 430 150 351 c 256,27,28
 150 272 150 272 185.5 205.5 c 128,-1,29
 221 139 221 139 284.5 100 c 128,-1,30
 348 61 348 61 426 61 c 256,31,32
 504 61 504 61 566.5 99.5 c 128,-1,33
 629 138 629 138 664.5 204 c 128,-1,34
 700 270 700 270 700 349 c 256,35,20
 700 428 700 428 664.5 494.5 c 128,-1,21
EndSplineSet
EndChar

StartChar: Ocircumflex
Encoding: 212 212 219
Width: 850
GlyphClass: 1
Flags: W
LayerCount: 2
Fore
SplineSet
285 762 m 1,0,-1
 391 893 l 1,1,-1
 459 893 l 1,2,-1
 565 762 l 1,3,-1
 499 762 l 1,4,-1
 424 829 l 1,5,-1
 349 762 l 1,6,-1
 285 762 l 1,0,-1
736.5 170.5 m 128,-1,8
 691 87 691 87 609.5 37.5 c 128,-1,9
 528 -12 528 -12 424 -12 c 256,10,11
 320 -12 320 -12 239 37 c 128,-1,12
 158 86 158 86 113 169 c 128,-1,13
 68 252 68 252 68 349 c 256,14,15
 68 446 68 446 113.5 529.5 c 128,-1,16
 159 613 159 613 240.5 662.5 c 128,-1,17
 322 712 322 712 426 712 c 256,18,19
 530 712 530 712 611 663 c 128,-1,20
 692 614 692 614 737 531 c 128,-1,21
 782 448 782 448 782 351 c 256,22,7
 782 254 782 254 736.5 170.5 c 128,-1,8
664.5 494.5 m 128,-1,24
 629 561 629 561 565.5 600 c 128,-1,25
 502 639 502 639 424 639 c 256,26,27
 346 639 346 639 283.5 600.5 c 128,-1,28
 221 562 221 562 185.5 496 c 128,-1,29
 150 430 150 430 150 351 c 256,30,31
 150 272 150 272 185.5 205.5 c 128,-1,32
 221 139 221 139 284.5 100 c 128,-1,33
 348 61 348 61 426 61 c 256,34,35
 504 61 504 61 566.5 99.5 c 128,-1,36
 629 138 629 138 664.5 204 c 128,-1,37
 700 270 700 270 700 349 c 256,38,23
 700 428 700 428 664.5 494.5 c 128,-1,24
EndSplineSet
EndChar

StartChar: uniF8FF
Encoding: 63743 63743 220
Width: 967
GlyphClass: 1
Flags: W
LayerCount: 2
Fore
SplineSet
101 750 m 1,0,-1
 868 750 l 1,1,-1
 868 0 l 1,2,-1
 101 0 l 1,3,-1
 101 750 l 1,0,-1
559 690.5 m 128,-1,5
 559 694 559 694 558 698 c 1,6,7
 556 697 556 697 541 697 c 256,8,9
 526 697 526 697 523 698 c 1,10,-1
 522 686 l 1,11,-1
 524 686 l 2,12,13
 525 687 525 687 527.5 691 c 128,-1,14
 530 695 530 695 534 695 c 0,15,16
 537 695 537 695 537 692 c 2,17,-1
 537 669 l 2,18,19
 537 665 537 665 535 664.5 c 128,-1,20
 533 664 533 664 532 664 c 1,21,-1
 532 662 l 1,22,-1
 549 662 l 1,23,-1
 549 664 l 1,24,25
 548 664 548 664 546 664.5 c 128,-1,26
 544 665 544 665 544 669 c 2,27,-1
 544 692 l 2,28,29
 544 695 544 695 547 695 c 0,30,31
 551 695 551 695 554 691 c 128,-1,32
 557 687 557 687 557 686 c 1,33,-1
 559 686 l 1,34,4
 559 687 559 687 559 690.5 c 128,-1,5
436 664.5 m 128,-1,36
 434 665 434 665 434 669 c 2,37,-1
 434 690 l 2,38,39
 434 694 434 694 436 694.5 c 128,-1,40
 438 695 438 695 439 695 c 1,41,-1
 439 697 l 1,42,-1
 410 697 l 1,43,-1
 408 687 l 1,44,-1
 410 686 l 1,45,46
 410 687 410 687 412.5 690.5 c 128,-1,47
 415 694 415 694 419 694 c 2,48,-1
 423 694 l 2,49,50
 427 694 427 694 427 691 c 2,51,-1
 427 681 l 1,52,-1
 423 681 l 2,53,54
 419 681 419 681 418 683 c 128,-1,55
 417 685 417 685 417 686 c 1,56,-1
 415 686 l 1,57,-1
 415 673 l 1,58,-1
 417 673 l 1,59,60
 417 674 417 674 418 676.5 c 128,-1,61
 419 679 419 679 423 679 c 2,62,-1
 427 679 l 1,63,-1
 427 668 l 2,64,65
 427 665 427 665 423 665 c 2,66,-1
 419 665 l 2,67,68
 415 665 415 665 412 669 c 128,-1,69
 409 673 409 673 409 674 c 1,70,-1
 407 673 l 1,71,-1
 409 662 l 1,72,-1
 439 662 l 1,73,-1
 439 664 l 1,74,35
 438 664 438 664 436 664.5 c 128,-1,36
500.5 664.5 m 128,-1,76
 498 665 498 665 498 669 c 2,77,-1
 498 690 l 2,78,79
 498 694 498 694 500.5 694.5 c 128,-1,80
 503 695 503 695 504 695 c 1,81,-1
 504 697 l 1,82,-1
 486 697 l 1,83,-1
 486 695 l 1,84,85
 487 695 487 695 489 694.5 c 128,-1,86
 491 694 491 694 491 690 c 2,87,-1
 491 681 l 1,88,-1
 474 681 l 1,89,-1
 474 690 l 2,90,91
 474 694 474 694 476 694.5 c 128,-1,92
 478 695 478 695 479 695 c 1,93,-1
 479 697 l 1,94,-1
 462 697 l 1,95,-1
 462 695 l 1,96,97
 463 695 463 695 465 694.5 c 128,-1,98
 467 694 467 694 467 690 c 2,99,-1
 467 669 l 2,100,101
 467 666 467 666 465 665 c 128,-1,102
 463 664 463 664 462 664 c 1,103,-1
 462 662 l 1,104,-1
 479 662 l 1,105,-1
 479 664 l 1,106,107
 478 664 478 664 476 665 c 128,-1,108
 474 666 474 666 474 669 c 2,109,-1
 474 679 l 1,110,-1
 491 679 l 1,111,-1
 491 669 l 2,112,113
 491 665 491 665 489 664.5 c 128,-1,114
 487 664 487 664 486 664 c 1,115,-1
 486 662 l 1,116,-1
 504 662 l 1,117,-1
 504 664 l 1,118,75
 503 664 503 664 500.5 664.5 c 128,-1,76
142 624 m 1,119,-1
 142 618 l 1,120,-1
 827 618 l 1,121,-1
 827 624 l 1,122,-1
 142 624 l 1,119,-1
281 554 m 1,124,125
 286 557 286 557 286 563 c 0,126,127
 286 568 286 568 280.5 573 c 128,-1,128
 275 578 275 578 265 578 c 0,129,130
 259 578 259 578 255.5 575 c 128,-1,131
 252 572 252 572 252 567 c 0,132,133
 252 561 252 561 257 561 c 0,134,135
 261 561 261 561 261 564 c 0,136,137
 261 566 261 566 259.5 567.5 c 128,-1,138
 258 569 258 569 258 570 c 0,139,140
 258 575 258 575 265 575 c 0,141,142
 275 575 275 575 275 563 c 0,143,144
 275 559 275 559 273 557 c 2,145,-1
 268 557 l 2,146,147
 257 557 257 557 257 551 c 0,148,149
 257 549 257 549 259.5 547 c 128,-1,150
 262 545 262 545 265 545 c 0,151,152
 271 545 271 545 276 550 c 1,153,154
 282 546 282 546 282 535 c 0,155,156
 282 521 282 521 270 521 c 0,157,158
 265 521 265 521 261.5 523.5 c 128,-1,159
 258 526 258 526 258 530 c 0,160,161
 258 533 258 533 261 533 c 0,162,163
 262 533 262 533 263 532 c 128,-1,164
 264 531 264 531 266 531 c 0,165,166
 270 531 270 531 270 536 c 256,167,168
 270 541 270 541 263 541 c 0,169,170
 259 541 259 541 256.5 538 c 128,-1,171
 254 535 254 535 254 531 c 0,172,173
 254 526 254 526 258.5 522 c 128,-1,174
 263 518 263 518 270 518 c 0,175,176
 282 518 282 518 288.5 523.5 c 128,-1,177
 295 529 295 529 295 537 c 0,178,123
 295 549 295 549 281 554 c 1,124,125
396.5 526.5 m 128,-1,180
 393 529 393 529 387 530 c 0,181,182
 383 532 383 532 381.5 546.5 c 128,-1,183
 380 561 380 561 376 569.5 c 128,-1,184
 372 578 372 578 358 578 c 0,185,186
 353 578 353 578 349 574.5 c 128,-1,187
 345 571 345 571 345 568 c 0,188,189
 345 563 345 563 350 563 c 0,190,191
 353 563 353 563 353.5 564.5 c 128,-1,192
 354 566 354 566 354 569 c 0,193,194
 354 575 354 575 359 575 c 0,195,196
 365 575 365 575 367 564.5 c 128,-1,197
 369 554 369 554 371 545 c 128,-1,198
 373 536 373 536 380 530 c 1,199,200
 372 530 372 530 366 523.5 c 128,-1,201
 360 517 360 517 357 517 c 0,202,203
 352 517 352 517 352 521 c 0,204,205
 352 523 352 523 353 524 c 128,-1,206
 354 525 354 525 354 526 c 0,207,208
 354 531 354 531 349 531 c 256,209,210
 344 531 344 531 344 524 c 0,211,212
 344 520 344 520 349 516 c 128,-1,213
 354 512 354 512 359 512 c 0,214,215
 369 512 369 512 374 518.5 c 128,-1,216
 379 525 379 525 384 525 c 1,217,218
 388 518 388 518 396 518 c 0,219,220
 400 518 400 518 400 521 c 256,221,179
 400 524 400 524 396.5 526.5 c 128,-1,180
575 554 m 1,223,224
 580 557 580 557 580 563 c 0,225,226
 580 568 580 568 574.5 573 c 128,-1,227
 569 578 569 578 559 578 c 0,228,229
 553 578 553 578 549.5 575 c 128,-1,230
 546 572 546 572 546 567 c 0,231,232
 546 561 546 561 551 561 c 0,233,234
 555 561 555 561 555 564 c 0,235,236
 555 566 555 566 553.5 567.5 c 128,-1,237
 552 569 552 569 552 570 c 0,238,239
 552 575 552 575 559 575 c 0,240,241
 569 575 569 575 569 563 c 0,242,243
 569 559 569 559 567 557 c 2,244,-1
 562 557 l 2,245,246
 551 557 551 557 551 551 c 0,247,248
 551 549 551 549 553.5 547 c 128,-1,249
 556 545 556 545 559 545 c 0,250,251
 565 545 565 545 570 550 c 1,252,253
 576 546 576 546 576 535 c 0,254,255
 576 521 576 521 564 521 c 0,256,257
 559 521 559 521 555.5 523.5 c 128,-1,258
 552 526 552 526 552 530 c 0,259,260
 552 533 552 533 555 533 c 0,261,262
 556 533 556 533 557 532 c 128,-1,263
 558 531 558 531 560 531 c 0,264,265
 564 531 564 531 564 536 c 256,266,267
 564 541 564 541 557 541 c 0,268,269
 553 541 553 541 550.5 538 c 128,-1,270
 548 535 548 535 548 531 c 0,271,272
 548 526 548 526 552.5 522 c 128,-1,273
 557 518 557 518 564 518 c 0,274,275
 576 518 576 518 582.5 523.5 c 128,-1,276
 589 529 589 529 589 537 c 0,277,222
 589 549 589 549 575 554 c 1,223,224
684.5 566.5 m 128,-1,279
 673 578 673 578 659 578 c 0,280,281
 651 578 651 578 643.5 572.5 c 128,-1,282
 636 567 636 567 636 556 c 0,283,284
 636 541 636 541 647.5 529.5 c 128,-1,285
 659 518 659 518 673 518 c 0,286,287
 681 518 681 518 688.5 523.5 c 128,-1,288
 696 529 696 529 696 540 c 0,289,278
 696 555 696 555 684.5 566.5 c 128,-1,279
197 523 m 128,-1,291
 193 524 193 524 192 530 c 2,292,-1
 185 565 l 1,293,-1
 185 567 l 2,294,295
 185 571 185 571 188 572 c 128,-1,296
 191 573 191 573 192 573 c 1,297,-1
 191 576 l 1,298,-1
 164 576 l 2,299,300
 144 576 144 576 144 561 c 0,301,302
 144 555 144 555 149.5 551 c 128,-1,303
 155 547 155 547 163 546 c 1,304,-1
 154 530 l 2,305,306
 151 524 151 524 146.5 523 c 128,-1,307
 142 522 142 522 140 522 c 1,308,-1
 141 519 l 1,309,-1
 160 519 l 1,310,-1
 172 542 l 2,311,312
 174 545 174 545 177 545 c 2,313,-1
 180 530 l 1,314,-1
 180 528 l 2,315,316
 180 524 180 524 177 523 c 128,-1,317
 174 522 174 522 173 522 c 1,318,-1
 174 519 l 1,319,-1
 203 519 l 1,320,-1
 202 522 l 2,321,290
 201 522 201 522 197 523 c 128,-1,291
492 523 m 128,-1,323
 488 524 488 524 487 530 c 2,324,-1
 480 565 l 1,325,-1
 480 567 l 2,326,327
 480 571 480 571 483 572 c 128,-1,328
 486 573 486 573 487 573 c 1,329,-1
 486 576 l 1,330,-1
 441 576 l 1,331,332
 442 572 442 572 441.5 566.5 c 128,-1,333
 441 561 441 561 441 559 c 1,334,-1
 445 559 l 1,335,336
 445 563 445 563 447 567.5 c 128,-1,337
 449 572 449 572 458 572 c 2,338,-1
 462 572 l 2,339,340
 467 572 467 572 468 566 c 2,341,-1
 471 550 l 1,342,-1
 467 550 l 2,343,344
 461 550 461 550 458 554 c 128,-1,345
 455 558 455 558 455 559 c 1,346,-1
 452 559 l 1,347,-1
 457 536 l 1,348,-1
 460 536 l 1,349,-1
 460 537 l 2,350,351
 460 547 460 547 468 547 c 2,352,-1
 472 547 l 1,353,-1
 475 530 l 1,354,-1
 475 528 l 2,355,356
 475 524 475 524 472 523 c 128,-1,357
 469 522 469 522 468 522 c 1,358,-1
 469 519 l 1,359,-1
 498 519 l 1,360,-1
 497 522 l 2,361,322
 496 522 496 522 492 523 c 128,-1,323
815 523 m 128,-1,363
 811 524 811 524 810 530 c 2,364,-1
 803 565 l 1,365,-1
 803 567 l 2,366,367
 803 571 803 571 806 572 c 128,-1,368
 809 573 809 573 810 573 c 1,369,-1
 809 576 l 1,370,-1
 781 576 l 1,371,-1
 782 573 l 2,372,373
 783 573 783 573 786.5 572 c 128,-1,374
 790 571 790 571 791 565 c 2,375,-1
 794 550 l 1,376,-1
 770 550 l 1,377,-1
 767 565 l 1,378,-1
 767 567 l 2,379,380
 767 571 767 571 770 572 c 128,-1,381
 773 573 773 573 774 573 c 1,382,-1
 773 576 l 1,383,-1
 744 576 l 1,384,-1
 745 573 l 2,385,386
 746 573 746 573 750 572 c 128,-1,387
 754 571 754 571 755 565 c 2,388,-1
 762 530 l 1,389,-1
 762 528 l 2,390,391
 762 524 762 524 759 523 c 128,-1,392
 756 522 756 522 755 522 c 1,393,-1
 756 519 l 1,394,-1
 785 519 l 1,395,-1
 784 522 l 2,396,397
 783 522 783 522 779 523 c 128,-1,398
 775 524 775 524 774 530 c 2,399,-1
 771 546 l 1,400,-1
 795 546 l 1,401,-1
 798 530 l 1,402,-1
 798 528 l 2,403,404
 798 524 798 524 795 523 c 128,-1,405
 792 522 792 522 791 522 c 1,406,-1
 792 519 l 1,407,-1
 821 519 l 1,408,-1
 820 522 l 2,409,362
 819 522 819 522 815 523 c 128,-1,363
673 522 m 0,411,412
 664 522 664 522 656 533.5 c 128,-1,413
 648 545 648 545 648 560 c 0,414,415
 648 574 648 574 659 574 c 0,416,417
 668 574 668 574 676 562 c 128,-1,418
 684 550 684 550 684 535 c 0,419,410
 684 522 684 522 673 522 c 0,411,412
160 553 m 128,-1,421
 156 558 156 558 156 563 c 0,422,423
 156 572 156 572 164 572 c 256,424,425
 172 572 172 572 173 567 c 2,426,-1
 176 548 l 1,427,-1
 171 548 l 2,428,420
 164 548 164 548 160 553 c 128,-1,421
265 549 m 256,430,431
 261 549 261 549 261 551 c 0,432,433
 261 554 261 554 265 554 c 0,434,435
 270 554 270 554 272 553 c 1,436,429
 269 549 269 549 265 549 c 256,430,431
559 549 m 256,438,439
 555 549 555 549 555 551 c 0,440,441
 555 554 555 554 559 554 c 0,442,443
 564 554 564 554 566 553 c 1,444,437
 563 549 563 549 559 549 c 256,438,439
142 481 m 1,445,-1
 142 475 l 1,446,-1
 827 475 l 1,447,-1
 827 481 l 1,448,-1
 142 481 l 1,445,-1
269 341 m 1,449,-1
 269 406 l 1,450,-1
 283 406 l 1,451,-1
 283 440 l 1,452,-1
 142 440 l 1,453,-1
 142 378 l 1,454,-1
 183 378 l 1,455,-1
 183 406 l 1,456,-1
 216 406 l 1,457,-1
 216 386 l 1,458,-1
 192 386 l 1,459,-1
 192 362 l 1,460,-1
 216 362 l 1,461,-1
 216 341 l 1,462,-1
 183 341 l 1,463,-1
 183 369 l 1,464,-1
 142 369 l 1,465,-1
 142 308 l 1,466,-1
 283 308 l 1,467,-1
 283 341 l 1,468,-1
 269 341 l 1,449,-1
444 341 m 1,469,-1
 444 406 l 1,470,-1
 458 406 l 1,471,-1
 458 440 l 1,472,-1
 362 440 l 2,473,474
 341 440 341 440 328 428.5 c 128,-1,475
 315 417 315 417 315 400 c 0,476,477
 315 382 315 382 328 371 c 128,-1,478
 341 360 341 360 362 360 c 2,479,-1
 392 360 l 1,480,-1
 392 341 l 1,481,-1
 377 341 l 1,482,-1
 377 308 l 1,483,-1
 458 308 l 1,484,-1
 458 341 l 1,485,-1
 444 341 l 1,469,-1
567 440 m 1,486,-1
 567 406 l 1,487,-1
 578 406 l 1,488,-1
 563 383 l 1,489,-1
 548 406 l 1,490,-1
 558 406 l 1,491,-1
 558 440 l 1,492,-1
 496 440 l 1,493,-1
 496 406 l 1,494,-1
 508 406 l 1,495,-1
 545 360 l 1,496,-1
 545 341 l 1,497,-1
 531 341 l 1,498,-1
 531 308 l 1,499,-1
 612 308 l 1,500,-1
 612 341 l 1,501,-1
 597 341 l 1,502,-1
 597 361 l 1,503,-1
 634 406 l 1,504,-1
 648 406 l 1,505,-1
 648 440 l 1,506,-1
 567 440 l 1,486,-1
680 440 m 1,507,-1
 680 378 l 1,508,-1
 716 378 l 1,509,-1
 716 406 l 1,510,-1
 727 406 l 1,511,-1
 727 341 l 1,512,-1
 713 341 l 1,513,-1
 713 308 l 1,514,-1
 794 308 l 1,515,-1
 794 341 l 1,516,-1
 780 341 l 1,517,-1
 780 406 l 1,518,-1
 791 406 l 1,519,-1
 791 378 l 1,520,-1
 827 378 l 1,521,-1
 827 440 l 1,522,-1
 680 440 l 1,507,-1
368 395 m 256,524,525
 368 406 368 406 381 406 c 2,526,-1
 392 406 l 1,527,-1
 392 384 l 1,528,-1
 381 384 l 2,529,523
 368 384 368 384 368 395 c 256,524,525
142 277 m 1,530,-1
 142 271 l 1,531,-1
 827 271 l 1,532,-1
 827 277 l 1,533,-1
 142 277 l 1,530,-1
195.5 227 m 128,-1,535
 192 230 192 230 185 230 c 0,536,537
 170 230 170 230 171 207 c 1,538,539
 164 230 164 230 150 230 c 0,540,541
 145 230 145 230 141.5 227 c 128,-1,542
 138 224 138 224 138 218 c 1,543,-1
 141 217 l 1,544,545
 141 223 141 223 149 223 c 0,546,547
 165 223 165 223 173 190 c 0,548,549
 174 187 174 187 174 183 c 0,550,551
 174 177 174 177 171 176 c 128,-1,552
 168 175 168 175 167 175 c 1,553,-1
 168 171 l 1,554,-1
 196 171 l 1,555,-1
 195 175 l 1,556,-1
 194 175 l 2,557,558
 187 175 187 175 185 184 c 0,559,560
 180 201 180 201 180 209 c 0,561,562
 180 222 180 222 189 222 c 0,563,564
 194 222 194 222 201 215 c 1,565,-1
 203 217 l 1,566,534
 199 224 199 224 195.5 227 c 128,-1,535
716.5 218.5 m 128,-1,568
 705 230 705 230 691 230 c 0,569,570
 683 230 683 230 675.5 224.5 c 128,-1,571
 668 219 668 219 668 208 c 0,572,573
 668 193 668 193 679.5 181.5 c 128,-1,574
 691 170 691 170 705 170 c 0,575,576
 713 170 713 170 720.5 175.5 c 128,-1,577
 728 181 728 181 728 192 c 0,578,567
 728 207 728 207 716.5 218.5 c 128,-1,568
301 175 m 128,-1,580
 297 176 297 176 296 182 c 2,581,-1
 289 217 l 1,582,-1
 289 219 l 2,583,584
 289 223 289 223 292 224 c 128,-1,585
 295 225 295 225 296 225 c 1,586,-1
 295 228 l 1,587,-1
 268 228 l 2,588,589
 248 228 248 228 248 213 c 0,590,591
 248 207 248 207 253.5 203 c 128,-1,592
 259 199 259 199 267 198 c 1,593,-1
 258 182 l 2,594,595
 255 176 255 176 250.5 175 c 128,-1,596
 246 174 246 174 244 174 c 1,597,-1
 245 171 l 1,598,-1
 264 171 l 1,599,-1
 276 194 l 2,600,601
 278 197 278 197 281 197 c 2,602,-1
 284 182 l 1,603,-1
 284 180 l 2,604,605
 284 176 284 176 281 175 c 128,-1,606
 278 174 278 174 277 174 c 1,607,-1
 278 171 l 1,608,-1
 307 171 l 1,609,-1
 306 174 l 2,610,579
 305 174 305 174 301 175 c 128,-1,580
412 175 m 2,611,612
 405 175 405 175 403 184 c 2,613,-1
 395 215 l 1,614,-1
 394 219 l 2,615,616
 394 224 394 224 403 225 c 1,617,-1
 402 228 l 1,618,-1
 372 228 l 2,619,620
 362 228 362 228 354.5 222.5 c 128,-1,621
 347 217 347 217 347 206 c 0,622,623
 347 191 347 191 358 181 c 128,-1,624
 369 171 369 171 382 171 c 2,625,-1
 414 171 l 1,626,-1
 413 175 l 1,627,-1
 412 175 l 2,611,612
518 176 m 128,-1,629
 515 178 515 178 513 184 c 2,630,-1
 506 216 l 1,631,-1
 506 218 l 2,632,633
 506 223 506 223 509.5 224 c 128,-1,634
 513 225 513 225 514 225 c 1,635,-1
 513 228 l 1,636,-1
 499 228 l 1,637,-1
 470 186 l 1,638,-1
 465 216 l 1,639,-1
 465 218 l 2,640,641
 465 222 465 222 468 223.5 c 128,-1,642
 471 225 471 225 472 225 c 1,643,-1
 471 228 l 1,644,-1
 450 228 l 1,645,-1
 451 225 l 2,646,647
 452 225 452 225 455.5 223.5 c 128,-1,648
 459 222 459 222 460 216 c 2,649,-1
 468 171 l 1,650,-1
 471 170 l 1,651,-1
 501 214 l 1,652,-1
 507 184 l 1,653,-1
 507 181 l 2,654,655
 507 176 507 176 504.5 175 c 128,-1,656
 502 174 502 174 501 174 c 1,657,-1
 502 171 l 1,658,-1
 523 171 l 1,659,-1
 522 174 l 2,660,628
 521 174 521 174 518 176 c 128,-1,629
591 228 m 1,661,-1
 592 225 l 2,662,663
 593 225 593 225 597 223.5 c 128,-1,664
 601 222 601 222 602 216 c 2,665,-1
 607 195 l 2,666,667
 609 187 609 187 609 184 c 0,668,669
 609 175 609 175 596 175 c 0,670,671
 582 175 582 175 576 197 c 2,672,-1
 572 216 l 1,673,-1
 572 219 l 2,674,675
 572 224 572 224 575 224.5 c 128,-1,676
 578 225 578 225 579 225 c 1,677,-1
 579 228 l 1,678,-1
 555 228 l 1,679,-1
 556 225 l 2,680,681
 557 225 557 225 561.5 223.5 c 128,-1,682
 566 222 566 222 567 216 c 2,683,-1
 571 197 l 2,684,685
 573 187 573 187 580 178.5 c 128,-1,686
 587 170 587 170 599 170 c 0,687,688
 619 170 619 170 619 185 c 0,689,690
 619 191 619 191 618 194 c 2,691,-1
 613 216 l 1,692,-1
 612 219 l 2,693,694
 612 224 612 224 616 224.5 c 128,-1,695
 620 225 620 225 621 225 c 1,696,-1
 620 228 l 1,697,-1
 591 228 l 1,661,-1
817 175 m 128,-1,699
 813 176 813 176 812 182 c 2,700,-1
 805 217 l 1,701,-1
 805 219 l 2,702,703
 805 223 805 223 808 224 c 128,-1,704
 811 225 811 225 812 225 c 1,705,-1
 811 228 l 1,706,-1
 766 228 l 1,707,708
 767 224 767 224 766.5 218.5 c 128,-1,709
 766 213 766 213 766 211 c 1,710,-1
 770 211 l 1,711,712
 770 215 770 215 772 219.5 c 128,-1,713
 774 224 774 224 783 224 c 2,714,-1
 787 224 l 2,715,716
 792 224 792 224 793 218 c 2,717,-1
 796 202 l 1,718,-1
 792 202 l 2,719,720
 786 202 786 202 783 206 c 128,-1,721
 780 210 780 210 780 211 c 1,722,-1
 777 211 l 1,723,-1
 782 188 l 1,724,-1
 785 188 l 1,725,-1
 785 189 l 2,726,727
 785 199 785 199 793 199 c 2,728,-1
 797 199 l 1,729,-1
 800 182 l 1,730,-1
 800 180 l 2,731,732
 800 176 800 176 797 175 c 128,-1,733
 794 174 794 174 793 174 c 1,734,-1
 794 171 l 1,735,-1
 823 171 l 1,736,-1
 822 174 l 2,737,698
 821 174 821 174 817 175 c 128,-1,699
705 174 m 0,739,740
 696 174 696 174 688 185.5 c 128,-1,741
 680 197 680 197 680 212 c 0,742,743
 680 226 680 226 691 226 c 0,744,745
 700 226 700 226 708 214 c 128,-1,746
 716 202 716 202 716 187 c 0,747,738
 716 174 716 174 705 174 c 0,739,740
264 205 m 128,-1,749
 260 210 260 210 260 215 c 0,750,751
 260 224 260 224 268 224 c 256,752,753
 276 224 276 224 277 219 c 2,754,-1
 280 200 l 1,755,-1
 275 200 l 2,756,748
 268 200 268 200 264 205 c 128,-1,749
389 175 m 2,758,-1
 384 175 l 2,759,760
 373 175 373 175 365.5 185 c 128,-1,761
 358 195 358 195 358 207 c 0,762,763
 358 224 358 224 372 224 c 2,764,-1
 378 224 l 2,765,766
 380 224 380 224 381.5 222.5 c 128,-1,767
 383 221 383 221 384 217 c 2,768,-1
 393 182 l 2,769,757
 393 175 393 175 389 175 c 2,758,-1
142 133 m 1,770,-1
 142 127 l 1,771,-1
 827 127 l 1,772,-1
 827 133 l 1,773,-1
 142 133 l 1,770,-1
419.5 77 m 128,-1,775
 414 82 414 82 405 82 c 256,776,777
 396 82 396 82 390.5 77 c 128,-1,778
 385 72 385 72 385 64 c 256,779,780
 385 56 385 56 390.5 50.5 c 128,-1,781
 396 45 396 45 405 45 c 256,782,783
 414 45 414 45 419.5 50.5 c 128,-1,784
 425 56 425 56 425 64 c 256,785,774
 425 72 425 72 419.5 77 c 128,-1,775
305.5 49.5 m 128,-1,787
 303 51 303 51 303 54 c 2,788,-1
 303 74 l 2,789,790
 303 77 303 77 305.5 78 c 128,-1,791
 308 79 308 79 309 79 c 1,792,-1
 309 81 l 1,793,-1
 291 81 l 1,794,-1
 291 79 l 1,795,796
 292 79 292 79 294.5 78 c 128,-1,797
 297 77 297 77 297 74 c 2,798,-1
 297 65 l 1,799,800
 295 65 295 65 293 67 c 2,801,-1
 285 75 l 2,802,803
 283 77 283 77 284 78 c 128,-1,804
 285 79 285 79 286 79 c 1,805,-1
 286 81 l 1,806,-1
 272 81 l 1,807,-1
 272 79 l 1,808,809
 273 79 273 79 275.5 78 c 128,-1,810
 278 77 278 77 280 75 c 2,811,-1
 290 66 l 1,812,-1
 277 53 l 1,813,-1
 270 48 l 1,814,-1
 270 46 l 1,815,-1
 287 46 l 1,816,-1
 287 48 l 1,817,818
 286 48 286 48 284.5 49 c 128,-1,819
 283 50 283 50 285 53 c 2,820,-1
 293 61 l 2,821,822
 295 63 295 63 297 63 c 1,823,-1
 297 54 l 2,824,825
 297 50 297 50 294.5 49 c 128,-1,826
 292 48 292 48 291 48 c 1,827,-1
 291 46 l 1,828,-1
 309 46 l 1,829,-1
 309 48 l 1,830,786
 308 48 308 48 305.5 49.5 c 128,-1,787
361 49 m 128,-1,832
 359 50 359 50 359 53 c 2,833,-1
 359 73 l 2,834,835
 359 77 359 77 361 78 c 128,-1,836
 363 79 363 79 364 79 c 1,837,-1
 364 81 l 1,838,-1
 346 81 l 2,839,840
 340 81 340 81 336.5 78.5 c 128,-1,841
 333 76 333 76 333 72 c 0,842,843
 333 67 333 67 342 63 c 1,844,-1
 335 53 l 2,845,846
 333 50 333 50 330.5 49 c 128,-1,847
 328 48 328 48 327 48 c 1,848,-1
 327 46 l 1,849,-1
 338 46 l 1,850,-1
 345 58 l 2,851,852
 347 60 347 60 348.5 61 c 128,-1,853
 350 62 350 62 352 62 c 1,854,-1
 352 53 l 2,855,856
 352 50 352 50 350 49 c 128,-1,857
 348 48 348 48 347 48 c 1,858,-1
 347 46 l 1,859,-1
 364 46 l 1,860,-1
 364 48 l 1,861,831
 363 48 363 48 361 49 c 128,-1,832
465 81 m 1,862,-1
 465 79 l 1,863,864
 466 79 466 79 467 78 c 128,-1,865
 468 77 468 77 466 74 c 2,866,-1
 460 65 l 1,867,-1
 454 74 l 2,868,869
 452 77 452 77 454 78 c 128,-1,870
 456 79 456 79 457 79 c 1,871,-1
 457 81 l 1,872,-1
 442 81 l 1,873,-1
 442 79 l 1,874,875
 443 79 443 79 445.5 78 c 128,-1,876
 448 77 448 77 450 74 c 2,877,-1
 458 62 l 1,878,-1
 458 54 l 2,879,880
 458 50 458 50 456 49 c 128,-1,881
 454 48 454 48 453 48 c 1,882,-1
 453 46 l 1,883,-1
 470 46 l 1,884,-1
 470 48 l 1,885,886
 469 48 469 48 467 49 c 128,-1,887
 465 50 465 50 465 54 c 2,888,-1
 465 62 l 1,889,-1
 473 74 l 2,890,891
 475 77 475 77 477 78 c 128,-1,892
 479 79 479 79 480 79 c 1,893,-1
 480 81 l 1,894,-1
 465 81 l 1,862,-1
568 79 m 1,895,896
 569 79 569 79 570 78 c 128,-1,897
 571 77 571 77 570 74 c 2,898,-1
 561 55 l 1,899,-1
 556 65 l 1,900,-1
 560 73 l 2,901,902
 562 76 562 76 563.5 77.5 c 128,-1,903
 565 79 565 79 566 79 c 1,904,-1
 566 81 l 1,905,-1
 540 81 l 1,906,-1
 541 79 l 2,907,908
 542 79 542 79 544 78 c 128,-1,909
 546 77 546 77 548 73 c 2,910,-1
 551 68 l 1,911,-1
 544 55 l 1,912,-1
 536 73 l 2,913,914
 535 76 535 76 536 77.5 c 128,-1,915
 537 79 537 79 538 79 c 1,916,-1
 538 81 l 1,917,-1
 525 81 l 1,918,-1
 525 79 l 1,919,920
 526 79 526 79 528 77.5 c 128,-1,921
 530 76 530 76 531 73 c 2,922,-1
 544 46 l 1,923,-1
 545 46 l 1,924,925
 545 46 545 46 545.5 45.5 c 128,-1,926
 546 45 546 45 546 46 c 2,927,-1
 554 62 l 1,928,-1
 563 46 l 1,929,-1
 564 46 l 1,930,-1
 576 73 l 2,931,932
 578 77 578 77 580 78 c 128,-1,933
 582 79 582 79 583 79 c 1,934,-1
 583 81 l 1,935,-1
 568 81 l 1,936,-1
 568 79 l 1,895,896
630 48.5 m 128,-1,938
 628 49 628 49 628 53 c 2,939,-1
 628 74 l 2,940,941
 628 78 628 78 630 78.5 c 128,-1,942
 632 79 632 79 633 79 c 1,943,-1
 633 81 l 1,944,-1
 604 81 l 1,945,-1
 602 71 l 1,946,-1
 604 70 l 1,947,948
 604 71 604 71 606.5 74.5 c 128,-1,949
 609 78 609 78 613 78 c 2,950,-1
 617 78 l 2,951,952
 621 78 621 78 621 75 c 2,953,-1
 621 65 l 1,954,-1
 617 65 l 2,955,956
 613 65 613 65 612 67 c 128,-1,957
 611 69 611 69 611 70 c 1,958,-1
 609 70 l 1,959,-1
 609 57 l 1,960,-1
 611 57 l 1,961,962
 611 58 611 58 612 60.5 c 128,-1,963
 613 63 613 63 617 63 c 2,964,-1
 621 63 l 1,965,-1
 621 52 l 2,966,967
 621 49 621 49 617 49 c 2,968,-1
 613 49 l 2,969,970
 609 49 609 49 606 53 c 128,-1,971
 603 57 603 57 603 58 c 1,972,-1
 601 57 l 1,973,-1
 603 46 l 1,974,-1
 633 46 l 1,975,-1
 633 48 l 1,976,937
 632 48 632 48 630 48.5 c 128,-1,938
690.5 49.5 m 128,-1,978
 688 51 688 51 688 53 c 2,979,-1
 688 73 l 2,980,981
 688 75 688 75 690.5 77 c 128,-1,982
 693 79 693 79 694 79 c 1,983,-1
 694 81 l 1,984,-1
 684 81 l 1,985,-1
 660 55 l 1,986,-1
 660 73 l 2,987,988
 660 76 660 76 662.5 77.5 c 128,-1,989
 665 79 665 79 666 79 c 1,990,-1
 666 81 l 1,991,-1
 651 81 l 1,992,-1
 651 79 l 1,993,994
 652 79 652 79 654.5 77.5 c 128,-1,995
 657 76 657 76 657 73 c 2,996,-1
 657 45 l 1,997,-1
 660 45 l 1,998,-1
 685 73 l 1,999,-1
 685 53 l 2,1000,1001
 685 51 685 51 683 49.5 c 128,-1,1002
 681 48 681 48 680 48 c 1,1003,-1
 680 46 l 1,1004,-1
 694 46 l 1,1005,-1
 694 48 l 1,1006,977
 693 48 693 48 690.5 49.5 c 128,-1,978
405 47 m 0,1008,1009
 399 47 399 47 396 52 c 128,-1,1010
 393 57 393 57 393 64 c 0,1011,1012
 393 80 393 80 405 80 c 256,1013,1014
 417 80 417 80 417 64 c 0,1015,1007
 417 47 417 47 405 47 c 0,1008,1009
555.5 76.5 m 128,-1,1017
 555 74 555 74 553 70 c 1,1018,1019
 548 79 548 79 553 79 c 0,1020,1016
 556 79 556 79 555.5 76.5 c 128,-1,1017
349 64 m 2,1021,1022
 341 64 341 64 341 72 c 0,1023,1024
 341 78 341 78 348 78 c 0,1025,1026
 352 78 352 78 352 74 c 2,1027,-1
 352 64 l 1,1028,-1
 349 64 l 2,1021,1022
142 -105 m 1,1029,-1
 131 -82 l 1,1030,-1
 121 -105 l 1,1031,-1
 120 -105 l 1,1032,-1
 108 -71 l 1,1033,-1
 114 -70 l 1,1034,-1
 121 -93 l 1,1035,-1
 131 -70 l 1,1036,-1
 132 -70 l 1,1037,-1
 142 -93 l 1,1038,-1
 149 -71 l 1,1039,-1
 155 -71 l 1,1040,-1
 143 -105 l 1,1041,-1
 142 -105 l 1,1029,-1
198 -105 m 1,1042,-1
 187 -82 l 1,1043,-1
 177 -105 l 1,1044,-1
 176 -105 l 1,1045,-1
 164 -71 l 1,1046,-1
 170 -70 l 1,1047,-1
 177 -93 l 1,1048,-1
 187 -70 l 1,1049,-1
 188 -70 l 1,1050,-1
 198 -93 l 1,1051,-1
 205 -71 l 1,1052,-1
 211 -71 l 1,1053,-1
 199 -105 l 1,1054,-1
 198 -105 l 1,1042,-1
254 -105 m 1,1055,-1
 243 -82 l 1,1056,-1
 233 -105 l 1,1057,-1
 232 -105 l 1,1058,-1
 220 -71 l 1,1059,-1
 226 -70 l 1,1060,-1
 233 -93 l 1,1061,-1
 243 -70 l 1,1062,-1
 244 -70 l 1,1063,-1
 254 -93 l 1,1064,-1
 261 -71 l 1,1065,-1
 267 -71 l 1,1066,-1
 255 -105 l 1,1067,-1
 254 -105 l 1,1055,-1
351 -104 m 1,1068,-1
 345 -104 l 1,1069,-1
 345 -90 l 1,1070,-1
 331 -71 l 1,1071,-1
 337 -70 l 1,1072,-1
 348 -85 l 1,1073,-1
 357 -71 l 1,1074,-1
 364 -71 l 1,1075,-1
 351 -90 l 1,1076,-1
 351 -104 l 1,1068,-1
383 -94 m 1,1078,-1
 383 -104 l 1,1079,-1
 377 -104 l 1,1080,-1
 377 -71 l 1,1081,-1
 383 -71 l 2,1082,1083
 400 -71 400 -71 400 -82 c 0,1084,1077
 400 -94 400 -94 383 -94 c 1,1078,-1
442 -100 m 128,-1,1086
 437 -105 437 -105 430 -105 c 256,1087,1088
 423 -105 423 -105 418 -100 c 128,-1,1089
 413 -95 413 -95 413 -88 c 0,1090,1091
 413 -80 413 -80 418 -75 c 128,-1,1092
 423 -70 423 -70 431 -70 c 0,1093,1094
 438 -70 438 -70 442.5 -75 c 128,-1,1095
 447 -80 447 -80 447 -87 c 0,1096,1085
 447 -95 447 -95 442 -100 c 128,-1,1086
478 -105 m 0,1098,1099
 470 -105 470 -105 465 -100 c 128,-1,1100
 460 -95 460 -95 460 -88 c 0,1101,1102
 460 -80 460 -80 465.5 -75 c 128,-1,1103
 471 -70 471 -70 479 -70 c 0,1104,1105
 485 -70 485 -70 491 -74 c 1,1106,-1
 489 -79 l 1,1107,1108
 485 -75 485 -75 478 -75 c 0,1109,1110
 473 -75 473 -75 469.5 -78.5 c 128,-1,1111
 466 -82 466 -82 466 -88 c 0,1112,1113
 466 -93 466 -93 470 -96.5 c 128,-1,1114
 474 -100 474 -100 479 -100 c 0,1115,1116
 481 -100 481 -100 485 -98 c 1,1117,-1
 485 -91 l 1,1118,-1
 476 -91 l 1,1119,-1
 476 -86 l 1,1120,-1
 491 -86 l 1,1121,-1
 491 -101 l 1,1122,1097
 485 -105 485 -105 478 -105 c 0,1098,1099
519 -93 m 1,1123,-1
 514 -93 l 1,1124,-1
 514 -104 l 1,1125,-1
 508 -104 l 1,1126,-1
 508 -71 l 1,1127,-1
 515 -71 l 2,1128,1129
 531 -71 531 -71 531 -81 c 0,1130,1131
 531 -88 531 -88 524 -91 c 1,1132,-1
 534 -104 l 1,1133,-1
 527 -104 l 1,1134,-1
 519 -93 l 1,1123,-1
566 -96 m 1,1135,-1
 552 -96 l 1,1136,-1
 549 -104 l 1,1137,-1
 543 -104 l 1,1138,-1
 558 -70 l 1,1139,-1
 560 -70 l 1,1140,-1
 576 -104 l 1,1141,-1
 570 -104 l 1,1142,-1
 566 -96 l 1,1135,-1
595 -94 m 1,1144,-1
 595 -104 l 1,1145,-1
 589 -104 l 1,1146,-1
 589 -71 l 1,1147,-1
 595 -71 l 2,1148,1149
 612 -71 612 -71 612 -82 c 0,1150,1143
 612 -94 612 -94 595 -94 c 1,1144,-1
689 -104 m 1,1151,-1
 683 -104 l 1,1152,-1
 683 -90 l 1,1153,-1
 669 -71 l 1,1154,-1
 675 -70 l 1,1155,-1
 686 -85 l 1,1156,-1
 695 -71 l 1,1157,-1
 702 -71 l 1,1158,-1
 689 -90 l 1,1159,-1
 689 -104 l 1,1151,-1
747 -105 m 0,1161,1162
 739 -105 739 -105 734 -100.5 c 128,-1,1163
 729 -96 729 -96 729 -88 c 0,1164,1165
 729 -81 729 -81 734.5 -75.5 c 128,-1,1166
 740 -70 740 -70 747 -70 c 256,1167,1168
 754 -70 754 -70 758 -73 c 1,1169,-1
 756 -78 l 1,1170,1171
 753 -75 753 -75 747 -75 c 0,1172,1173
 742 -75 742 -75 738.5 -78.5 c 128,-1,1174
 735 -82 735 -82 735 -87 c 0,1175,1176
 735 -100 735 -100 748 -100 c 0,1177,1178
 752 -100 752 -100 758 -96 c 1,1179,-1
 757 -102 l 2,1180,1160
 754 -105 754 -105 747 -105 c 0,1161,1162
801 -100 m 128,-1,1182
 796 -105 796 -105 789 -105 c 256,1183,1184
 782 -105 782 -105 777 -100 c 128,-1,1185
 772 -95 772 -95 772 -88 c 0,1186,1187
 772 -80 772 -80 777 -75 c 128,-1,1188
 782 -70 782 -70 790 -70 c 0,1189,1190
 797 -70 797 -70 801.5 -75 c 128,-1,1191
 806 -80 806 -80 806 -87 c 0,1192,1181
 806 -95 806 -95 801 -100 c 128,-1,1182
850 -84 m 1,1193,-1
 840 -105 l 1,1194,-1
 838 -105 l 1,1195,-1
 828 -84 l 1,1196,-1
 825 -104 l 1,1197,-1
 819 -104 l 1,1198,-1
 825 -70 l 1,1199,-1
 826 -70 l 1,1200,-1
 839 -96 l 1,1201,-1
 852 -70 l 1,1202,-1
 853 -70 l 1,1203,-1
 859 -104 l 1,1204,-1
 853 -104 l 1,1205,-1
 850 -84 l 1,1193,-1
311 -76 m 1,1206,-1
 311 -104 l 1,1207,-1
 305 -104 l 1,1208,-1
 305 -76 l 1,1209,-1
 293 -76 l 1,1210,-1
 293 -71 l 1,1211,-1
 323 -71 l 1,1212,-1
 323 -76 l 1,1213,-1
 311 -76 l 1,1206,-1
650 -89 m 1,1214,-1
 634 -89 l 1,1215,-1
 634 -104 l 1,1216,-1
 628 -104 l 1,1217,-1
 628 -71 l 1,1218,-1
 634 -71 l 1,1219,-1
 634 -84 l 1,1220,-1
 650 -84 l 1,1221,-1
 650 -71 l 1,1222,-1
 656 -71 l 1,1223,-1
 656 -104 l 1,1224,-1
 650 -104 l 1,1225,-1
 650 -89 l 1,1214,-1
430 -75 m 0,1227,1228
 425 -75 425 -75 422 -78.5 c 128,-1,1229
 419 -82 419 -82 419 -87 c 0,1230,1231
 419 -93 419 -93 422 -96.5 c 128,-1,1232
 425 -100 425 -100 430 -100 c 256,1233,1234
 435 -100 435 -100 438 -96.5 c 128,-1,1235
 441 -93 441 -93 441 -88 c 0,1236,1226
 441 -75 441 -75 430 -75 c 0,1227,1228
789 -75 m 0,1238,1239
 784 -75 784 -75 781 -78.5 c 128,-1,1240
 778 -82 778 -82 778 -87 c 0,1241,1242
 778 -93 778 -93 781 -96.5 c 128,-1,1243
 784 -100 784 -100 789 -100 c 256,1244,1245
 794 -100 794 -100 797 -96.5 c 128,-1,1246
 800 -93 800 -93 800 -88 c 0,1247,1237
 800 -75 800 -75 789 -75 c 0,1238,1239
383 -76 m 1,1249,-1
 383 -89 l 1,1250,1251
 394 -89 394 -89 394 -83 c 0,1252,1248
 394 -75 394 -75 383 -76 c 1,1249,-1
522 -76.5 m 128,-1,1254
 519 -75 519 -75 514 -76 c 1,1255,-1
 514 -88 l 1,1256,-1
 517 -88 l 2,1257,1258
 525 -88 525 -88 525 -82 c 0,1259,1253
 525 -78 525 -78 522 -76.5 c 128,-1,1254
595 -76 m 1,1261,-1
 595 -89 l 1,1262,1263
 606 -89 606 -89 606 -83 c 0,1264,1260
 606 -75 606 -75 595 -76 c 1,1261,-1
554 -92 m 1,1265,-1
 564 -92 l 1,1266,-1
 559 -80 l 1,1267,-1
 554 -92 l 1,1265,-1
280 -105 m 256,1269,1270
 276 -105 276 -105 276 -101 c 256,1271,1272
 276 -97 276 -97 280 -97 c 256,1273,1274
 284 -97 284 -97 284 -101 c 256,1275,1268
 284 -105 284 -105 280 -105 c 256,1269,1270
712 -105 m 256,1277,1278
 708 -105 708 -105 708 -101 c 256,1279,1280
 708 -97 708 -97 712 -97 c 256,1281,1282
 716 -97 716 -97 716 -101 c 256,1283,1276
 716 -105 716 -105 712 -105 c 256,1277,1278
EndSplineSet
EndChar

StartChar: Ograve
Encoding: 210 210 221
Width: 850
GlyphClass: 1
Flags: W
LayerCount: 2
Fore
SplineSet
356 907 m 1,0,-1
 451 762 l 1,1,-1
 389 762 l 1,2,-1
 276 870 l 1,3,-1
 356 907 l 1,0,-1
736.5 170.5 m 128,-1,5
 691 87 691 87 609.5 37.5 c 128,-1,6
 528 -12 528 -12 424 -12 c 256,7,8
 320 -12 320 -12 239 37 c 128,-1,9
 158 86 158 86 113 169 c 128,-1,10
 68 252 68 252 68 349 c 256,11,12
 68 446 68 446 113.5 529.5 c 128,-1,13
 159 613 159 613 240.5 662.5 c 128,-1,14
 322 712 322 712 426 712 c 256,15,16
 530 712 530 712 611 663 c 128,-1,17
 692 614 692 614 737 531 c 128,-1,18
 782 448 782 448 782 351 c 256,19,4
 782 254 782 254 736.5 170.5 c 128,-1,5
664.5 494.5 m 128,-1,21
 629 561 629 561 565.5 600 c 128,-1,22
 502 639 502 639 424 639 c 256,23,24
 346 639 346 639 283.5 600.5 c 128,-1,25
 221 562 221 562 185.5 496 c 128,-1,26
 150 430 150 430 150 351 c 256,27,28
 150 272 150 272 185.5 205.5 c 128,-1,29
 221 139 221 139 284.5 100 c 128,-1,30
 348 61 348 61 426 61 c 256,31,32
 504 61 504 61 566.5 99.5 c 128,-1,33
 629 138 629 138 664.5 204 c 128,-1,34
 700 270 700 270 700 349 c 256,35,20
 700 428 700 428 664.5 494.5 c 128,-1,21
EndSplineSet
EndChar

StartChar: Uacute
Encoding: 218 218 222
Width: 759
GlyphClass: 1
Flags: W
LayerCount: 2
Fore
SplineSet
438 902 m 1,0,-1
 518 865 l 1,1,-1
 405 757 l 1,2,-1
 343 757 l 1,3,-1
 438 902 l 1,0,-1
592 69 m 128,-1,5
 513 -11 513 -11 379 -11 c 0,6,7
 292 -11 292 -11 226.5 24 c 128,-1,8
 161 59 161 59 124.5 127.5 c 128,-1,9
 88 196 88 196 88 293 c 2,10,-1
 88 700 l 1,11,-1
 167 700 l 1,12,-1
 167 298 l 2,13,14
 167 185 167 185 223.5 123.5 c 128,-1,15
 280 62 280 62 381 62 c 0,16,17
 480 62 480 62 536 121 c 128,-1,18
 592 180 592 180 592 293 c 2,19,-1
 592 700 l 1,20,-1
 671 700 l 1,21,-1
 671 299 l 2,22,4
 671 149 671 149 592 69 c 128,-1,5
EndSplineSet
EndChar

StartChar: Ucircumflex
Encoding: 219 219 223
Width: 759
GlyphClass: 1
Flags: W
LayerCount: 2
Fore
SplineSet
239 759 m 1,0,-1
 345 890 l 1,1,-1
 413 890 l 1,2,-1
 519 759 l 1,3,-1
 453 759 l 1,4,-1
 378 826 l 1,5,-1
 303 759 l 1,6,-1
 239 759 l 1,0,-1
592 69 m 128,-1,8
 513 -11 513 -11 379 -11 c 0,9,10
 292 -11 292 -11 226.5 24 c 128,-1,11
 161 59 161 59 124.5 127.5 c 128,-1,12
 88 196 88 196 88 293 c 2,13,-1
 88 700 l 1,14,-1
 167 700 l 1,15,-1
 167 298 l 2,16,17
 167 185 167 185 223.5 123.5 c 128,-1,18
 280 62 280 62 381 62 c 0,19,20
 480 62 480 62 536 121 c 128,-1,21
 592 180 592 180 592 293 c 2,22,-1
 592 700 l 1,23,-1
 671 700 l 1,24,-1
 671 299 l 2,25,7
 671 149 671 149 592 69 c 128,-1,8
EndSplineSet
EndChar

StartChar: Ugrave
Encoding: 217 217 224
Width: 759
GlyphClass: 1
Flags: W
LayerCount: 2
Fore
SplineSet
321 902 m 1,0,-1
 416 757 l 1,1,-1
 354 757 l 1,2,-1
 241 865 l 1,3,-1
 321 902 l 1,0,-1
592 69 m 128,-1,5
 513 -11 513 -11 379 -11 c 0,6,7
 292 -11 292 -11 226.5 24 c 128,-1,8
 161 59 161 59 124.5 127.5 c 128,-1,9
 88 196 88 196 88 293 c 2,10,-1
 88 700 l 1,11,-1
 167 700 l 1,12,-1
 167 298 l 2,13,14
 167 185 167 185 223.5 123.5 c 128,-1,15
 280 62 280 62 381 62 c 0,16,17
 480 62 480 62 536 121 c 128,-1,18
 592 180 592 180 592 293 c 2,19,-1
 592 700 l 1,20,-1
 671 700 l 1,21,-1
 671 299 l 2,22,4
 671 149 671 149 592 69 c 128,-1,5
EndSplineSet
EndChar

